<svg width="93" height="24" viewBox="0 0 93 24" fill="none" xmlns="http://www.w3.org/2000/svg">
<path d="M11.3112 19.3406L11.2447 19.4049C10.1737 20.4961 8.9341 21.0744 7.65677 21.0744C4.99053 21.0744 3.05512 19.0742 3.05512 16.3144C3.05512 13.5596 4.99053 11.5566 7.65677 11.5566C8.9341 11.5566 10.1737 12.1373 11.2447 13.2313L11.3112 13.2976L13.0259 11.2242L12.98 11.1679C11.554 9.48283 9.84303 8.66249 7.73954 8.66249C5.62878 8.66249 3.69926 9.37285 2.30866 10.6539C0.797742 12.0412 0 13.9977 0 16.3144C0 18.63 0.797742 20.5913 2.30866 21.979C3.69926 23.266 5.62878 23.9724 7.73954 23.9724C9.84303 23.9724 11.554 23.1525 12.98 21.4667L13.0259 21.4144L11.3112 19.3406Z" fill="#003B70"/>
<path d="M14.7587 23.6902H17.7879V8.90273H14.7587V23.6902Z" fill="#003B70"/>
<path d="M29.6534 20.4748C28.8453 20.9669 28.0932 21.2143 27.4177 21.2143C26.4391 21.2143 25.9968 20.6977 25.9968 19.5472V11.7009H29.0819V8.91623H25.9968V4.31503L23.0278 5.90396V8.91623H20.4664V11.7009H23.0278V20.0477C23.0278 22.3218 24.3748 23.8753 26.3857 23.9157C27.751 23.9424 28.5741 23.5357 29.074 23.2384L29.1033 23.2166L29.8326 20.3654L29.6534 20.4748Z" fill="#003B70"/>
<path d="M32.1622 23.6902H35.1934V8.90273H32.1622V23.6902Z" fill="#003B70"/>
<path d="M83.5062 3.2762V17.3819L84.4498 15.9131C84.449 15.9197 88.6892 9.77956 89.2326 8.99662H91.1223C90.7201 9.53707 87.3862 14.1252 87.3862 14.1252C87.3862 14.1252 91.7289 23.1747 91.9799 23.6902H90.1241C90.0221 23.4791 86.2914 15.5812 86.2914 15.5812L83.5062 19.4838V23.6902H81.7773V4.26353C81.9285 4.1767 83.0992 3.50558 83.5062 3.2762ZM69.3039 10.7484C70.1957 9.41522 71.593 8.68011 73.2277 8.68011C76.4875 8.68011 78.215 10.7591 78.215 14.6931V23.6902H76.4818V15.0657C76.4818 11.7187 75.3196 10.165 72.8019 10.165C70.3923 10.165 68.9535 11.9978 68.9535 15.0657V23.6902H67.2251V8.99662H68.9535V11.2752L69.3039 10.7484ZM58.6777 8.68011C62.0321 8.68011 63.6628 10.214 63.6628 13.3704V23.6902H61.9337V21.5465L61.5973 21.9175C60.3249 23.3214 58.8644 24.0078 57.1253 24.0078C55.7626 24.0078 52.5919 23.5568 52.5919 19.3738C52.5919 15.9547 55.4143 14.7411 58.0584 14.7411C59.386 14.7411 60.6974 15.0468 61.6492 15.5801L61.9337 15.7379V13.6284C61.9337 11.2896 60.7915 10.1052 58.5343 10.1052C57.1424 10.1052 55.8862 10.4565 54.5982 11.1825C54.4845 10.9214 54.085 10.0381 53.9738 9.78607C55.32 9.07656 56.9824 8.68011 58.6777 8.68011ZM54.2873 19.2298C54.2873 21.4263 55.4254 22.6368 57.4931 22.6368C59.253 22.6368 60.816 21.8054 61.9012 20.2934L61.9337 20.2415V17.02L61.8377 16.9644C60.7341 16.3353 59.6038 16.0815 57.9426 16.0815C55.6557 16.0815 54.2873 17.2581 54.2873 19.2298ZM40.9371 3.2762V11.1364L41.2718 10.77C42.5451 9.36357 43.9546 8.68011 45.575 8.68011C48.8178 8.68011 50.6791 11.383 50.6791 16.0969C50.6791 20.9024 48.5651 24.0078 45.2921 24.0078C43.6974 24.0078 42.4204 23.3891 41.2736 22.0628L40.9371 21.6712V23.6902H39.2117V4.26353C39.3586 4.1767 40.5315 3.50558 40.9371 3.2762ZM40.9782 12.4167L40.9371 12.4709V20.1197L40.968 20.1666C41.9217 21.6425 43.4753 22.5249 45.129 22.5249C47.6827 22.5249 48.9772 20.3725 48.9772 16.1283C48.9772 12.3367 47.543 10.165 45.0425 10.165C43.5269 10.165 42.1593 10.9222 40.9782 12.4167Z" fill="#003B70"/>
<path fill-rule="evenodd" clip-rule="evenodd" d="M37.0079 6.27888C34.235 2.35118 29.6299 0.00781393 24.9446 0.00781393C20.2613 0.00781393 15.6553 2.35118 12.887 6.27888L12.745 6.48098H16.2365L16.2752 6.43906C18.6516 3.98633 21.7537 2.68923 24.9446 2.68923C28.1359 2.68923 31.2375 3.98633 33.6185 6.43906L33.6571 6.48098H37.1475L37.0079 6.27888Z" fill="#D9261C"/>
</svg>
