<svg width="67" height="24" viewBox="0 0 67 24" fill="none" xmlns="http://www.w3.org/2000/svg">
<path d="M48.8781 8.58691C49.0226 8.6351 49.1248 8.75075 49.226 8.85869C50.6542 10.3621 52.0921 11.855 53.5175 13.3603C53.5204 11.854 53.5137 10.3477 53.5204 8.84134C53.9069 8.84038 54.2924 8.84712 54.6788 8.8346C54.7154 8.97048 54.7309 9.10926 54.727 9.24997C54.7193 11.5408 54.7299 13.8316 54.7222 16.1224C54.6933 16.1359 54.6364 16.1619 54.6085 16.1754C53.0732 14.6141 51.5871 13.0037 50.0548 11.4405C50.0403 12.9421 50.0721 14.4455 50.0394 15.948C49.65 15.9306 49.2607 15.9393 48.8723 15.9412C48.8733 13.4895 48.8627 11.0377 48.8781 8.58691Z" fill="white"/>
<path d="M18.2707 8.77092C19.1699 8.44324 20.1375 8.6784 21.0135 8.96077C21.0241 9.51878 21.0184 10.0758 21.0184 10.6338C20.4806 10.3062 19.8985 9.97848 19.2538 9.96017C18.928 9.93897 18.5281 10.1385 18.5223 10.5037C18.5001 10.7707 18.7131 10.975 18.9155 11.1118C19.6961 11.6005 20.6039 11.9445 21.2044 12.6731C21.9349 13.6735 21.5474 15.2723 20.443 15.8351C19.4243 16.3758 18.211 16.1551 17.1605 15.8284C17.0998 15.2 17.0603 14.5707 17.0352 13.9404C17.6433 14.3201 18.317 14.6748 19.0533 14.6623C19.3665 14.6411 19.7356 14.5456 19.8898 14.2421C20.0508 13.9693 19.9284 13.6089 19.6884 13.4258C19.0003 12.8755 18.1098 12.6076 17.5046 11.9503C17.1123 11.5407 16.9138 10.9596 16.9687 10.3958C17.0092 9.64888 17.572 9.00029 18.2707 8.77092Z" fill="white"/>
<path d="M43.8686 9.40513C44.0103 9.12468 44.1105 8.82207 44.3004 8.5686C45.4424 11.0146 46.543 13.4798 47.6619 15.9374C47.235 15.9402 46.8071 15.9335 46.3801 15.9441C46.1797 15.5268 45.9946 15.1028 45.8106 14.6787C44.7427 14.6729 43.6749 14.6768 42.6071 14.6768C42.4182 15.0999 42.2332 15.5249 42.0279 15.9412C41.6125 15.9354 41.1981 15.9393 40.7837 15.9374C41.8226 13.7661 42.8365 11.5813 43.8686 9.40513ZM44.1549 11.1832C43.7906 12.0034 43.4446 12.8322 43.0668 13.6456C43.831 13.6803 44.5982 13.6533 45.3634 13.6581C44.9962 12.7907 44.6146 11.9292 44.2483 11.0608C44.2252 11.0917 44.178 11.1524 44.1549 11.1832Z" fill="white"/>
<path d="M3.51001 8.84221C4.17403 8.83835 4.83708 8.84895 5.50013 8.83643C6.01766 9.57658 6.48507 10.3495 6.99586 11.0945C7.52977 10.3379 8.0685 9.58332 8.62072 8.84028C9.20474 8.84606 9.78877 8.83739 10.3728 8.8451C9.48808 10.0864 8.53495 11.2824 7.6724 12.5362C7.65698 13.6686 7.66854 14.8029 7.66758 15.9363C7.11343 15.9401 6.55928 15.9382 6.00513 15.9373C5.99646 14.8126 6.02344 13.685 5.9926 12.5613C5.18113 11.3123 4.31859 10.0951 3.51001 8.84221Z" fill="white"/>
<path d="M11.0995 15.9392C11.1033 13.5733 11.0947 11.2063 11.1043 8.84033C12.5432 8.84419 13.982 8.8413 15.4209 8.84226C15.4247 9.32509 15.4161 9.80889 15.4276 10.2917C14.5285 10.3274 13.6235 10.2599 12.7224 10.3226C12.7244 10.7485 12.7215 11.1745 12.7263 11.5995C13.4973 11.5966 14.2692 11.5899 15.0402 11.6043C15.0306 12.0833 15.0373 12.5633 15.0364 13.0442C14.2644 13.0432 13.4934 13.0442 12.7224 13.0422C12.7253 13.5087 12.7234 13.9761 12.7234 14.4425C13.6332 14.4435 14.5429 14.4348 15.4527 14.4454C15.4546 14.9437 15.4585 15.4419 15.4508 15.9412C14.0003 15.9363 12.5499 15.9383 11.0995 15.9392Z" fill="white"/>
<path d="M35.3896 8.84129C36.2869 8.86153 37.187 8.796 38.0804 8.89141C38.6586 8.95887 39.2879 9.1892 39.5905 9.72215C39.9134 10.311 39.9182 11.1196 39.4739 11.6496C39.2802 11.8896 38.993 12.0178 38.7241 12.1537C39.2407 12.2953 39.7004 12.6702 39.8662 13.1897C40.0618 13.8286 40.0079 14.5861 39.5954 15.1307C39.1366 15.7166 38.355 15.8824 37.6515 15.9277C36.8959 15.9489 36.1413 15.9334 35.3867 15.9392C35.3925 13.5733 35.3848 11.2073 35.3896 8.84129ZM36.5692 9.79058C36.5731 10.4575 36.5712 11.1254 36.5712 11.7932C37.0993 11.7788 37.6833 11.8742 38.1575 11.5822C38.7213 11.2661 38.7878 10.2811 38.1912 9.96598C37.691 9.71444 37.1089 9.80599 36.5692 9.79058ZM36.5702 12.7406C36.5731 13.4769 36.5712 14.2141 36.5721 14.9504C37.1108 14.9312 37.6872 15.0295 38.1941 14.7972C38.8706 14.4878 38.9612 13.4085 38.3647 12.9796C37.8394 12.6163 37.1667 12.7733 36.5702 12.7406Z" fill="white"/>
<path d="M56.96 15.9402C56.9629 13.5732 56.9427 11.2053 56.9697 8.83838C57.3667 8.84416 57.7638 8.84223 58.1609 8.84031C58.1772 9.90042 58.1609 10.9605 58.1666 12.0206C59.166 10.9605 60.1625 9.89849 61.1668 8.8432C61.638 8.84031 62.1103 8.84223 62.5825 8.84127C61.5224 9.98426 60.4478 11.1147 59.379 12.251C60.5625 13.4749 61.7325 14.7124 62.9179 15.9334C62.3907 15.944 61.8645 15.9344 61.3373 15.9411C60.284 14.8319 59.2267 13.7265 58.1686 12.623C58.1628 13.7274 58.1705 14.8319 58.1657 15.9373C57.7638 15.9402 57.3619 15.9363 56.96 15.9402Z" fill="white"/>
<path d="M35.6479 1.36369C35.9929 0.910734 36.31 0.434646 36.68 0C33.0679 6.38381 29.4819 12.784 25.8775 19.1726C24.9793 20.784 24.0589 22.3838 23.1703 24C23.0923 23.9586 23.0219 23.9065 22.9602 23.8439C21.692 22.5515 20.4169 21.2668 19.1467 19.9764C20.0488 19.9668 20.9499 19.9754 21.8519 19.9716C26.4509 13.7699 31.0499 7.56728 35.6479 1.36369Z" fill="#C4261B"/>
<path d="M0.000151523 5.28408C10.7796 5.26866 21.558 5.28504 32.3375 5.27637C28.7523 10.0112 25.1923 14.7653 21.5908 19.4877C14.3965 19.4819 7.20218 19.4838 0.00786145 19.4906C-0.00852212 14.7547 0.0068977 10.0199 0.000151523 5.28408ZM18.2707 8.77089C17.572 9.00026 17.0092 9.64885 16.9687 10.3958C16.9138 10.9595 17.1123 11.5407 17.5045 11.9503C18.1098 12.6075 19.0003 12.8755 19.6884 13.4257C19.9284 13.6089 20.0507 13.9693 19.8898 14.242C19.7356 14.5456 19.3665 14.641 19.0533 14.6622C18.317 14.6748 17.6433 14.3201 17.0352 13.9404C17.0603 14.5707 17.0998 15.2 17.1605 15.8283C18.211 16.1551 19.4243 16.3758 20.443 15.8351C21.5474 15.2723 21.9349 13.6734 21.2043 12.6731C20.6039 11.9445 19.6961 11.6004 18.9155 11.1118C18.7131 10.975 18.5001 10.7706 18.5223 10.5037C18.528 10.1384 18.928 9.93894 19.2537 9.96014C19.8985 9.97845 20.4806 10.3061 21.0183 10.6338C21.0183 10.0758 21.0241 9.51875 21.0135 8.96074C20.1375 8.67837 19.1699 8.44321 18.2707 8.77089ZM3.51009 8.8422C4.31867 10.0951 5.18121 11.3123 5.99268 12.5613C6.02352 13.685 5.99654 14.8126 6.00521 15.9373C6.55936 15.9382 7.11351 15.9401 7.66766 15.9363C7.66862 14.8029 7.65706 13.6686 7.67248 12.5362C8.53503 11.2824 9.48816 10.0864 10.3729 8.84509C9.78885 8.83738 9.20483 8.84606 8.6208 8.84027C8.06858 9.58332 7.52985 10.3379 6.99594 11.0945C6.48515 10.3495 6.01774 9.57657 5.50021 8.83642C4.83716 8.84895 4.17411 8.83835 3.51009 8.8422ZM11.0995 15.9392C12.55 15.9382 14.0004 15.9363 15.4508 15.9411C15.4585 15.4419 15.4547 14.9436 15.4527 14.4454C14.543 14.4348 13.6332 14.4435 12.7234 14.4425C12.7234 13.976 12.7254 13.5086 12.7225 13.0422C13.4935 13.0441 14.2645 13.0431 15.0364 13.0441C15.0374 12.5632 15.0306 12.0833 15.0403 11.6043C14.2693 11.5898 13.4973 11.5966 12.7263 11.5995C12.7215 11.1745 12.7244 10.7485 12.7225 10.3225C13.6236 10.2599 14.5285 10.3273 15.4277 10.2917C15.4161 9.80883 15.4248 9.32504 15.4209 8.8422C13.9821 8.84124 12.5432 8.84413 11.1044 8.84027C11.0947 11.2063 11.1034 13.5732 11.0995 15.9392Z" fill="#005192"/>
<path d="M31.7496 9.40905C32.5274 8.03572 33.2531 6.63155 34.0539 5.27364C44.9384 5.28039 55.8238 5.28521 66.7083 5.27075C66.743 10.0095 66.7179 14.7501 66.7208 19.4898C53.2131 19.4811 39.7063 19.4878 26.1985 19.4869C28.0363 16.1205 29.9031 12.7706 31.7496 9.40905ZM48.8782 8.58698C48.8627 11.0378 48.8733 13.4895 48.8724 15.9413C49.2608 15.9393 49.6501 15.9307 50.0395 15.948C50.0722 14.4456 50.0404 12.9421 50.0549 11.4406C51.5872 13.0038 53.0733 14.6142 54.6086 16.1755C54.6365 16.162 54.6934 16.1359 54.7223 16.1225C54.73 13.8316 54.7194 11.5408 54.7271 9.25003C54.7309 9.10933 54.7155 8.97055 54.6789 8.83466C54.2924 8.84719 53.9069 8.84044 53.5205 8.84141C53.5137 10.3477 53.5205 11.8541 53.5176 13.3604C52.0922 11.855 50.6543 10.3622 49.2261 8.85875C49.1249 8.75081 49.0227 8.63517 48.8782 8.58698ZM43.8686 9.40519C42.8365 11.5813 41.8226 13.7661 40.7837 15.9374C41.1981 15.9393 41.6125 15.9355 42.0279 15.9413C42.2332 15.5249 42.4182 15.0999 42.6071 14.6768C43.6749 14.6768 44.7428 14.673 45.8106 14.6788C45.9947 15.1028 46.1797 15.5269 46.3801 15.9442C46.8071 15.9336 47.235 15.9403 47.6619 15.9374C46.543 13.4799 45.4424 11.0146 44.3004 8.56867C44.1105 8.82213 44.0103 9.12475 43.8686 9.40519ZM35.3897 8.84141C35.3848 11.2074 35.3926 13.5734 35.3868 15.9393C36.1414 15.9336 36.896 15.949 37.6516 15.9278C38.3551 15.8825 39.1367 15.7167 39.5954 15.1308C40.0079 14.5863 40.0619 13.8288 39.8662 13.1898C39.7005 12.6703 39.2408 12.2954 38.7242 12.1538C38.9931 12.0179 39.2803 11.8897 39.474 11.6497C39.9183 11.1197 39.9135 10.3111 39.5906 9.72226C39.288 9.18932 38.6587 8.95898 38.0804 8.89152C37.187 8.79611 36.2869 8.86164 35.3897 8.84141ZM56.9601 15.9403C57.362 15.9365 57.7638 15.9403 58.1657 15.9374C58.1705 14.832 58.1628 13.7276 58.1686 12.6231C59.2268 13.7266 60.284 14.832 61.3374 15.9413C61.8645 15.9345 62.3907 15.9442 62.9179 15.9336C61.7325 14.7125 60.5625 13.4751 59.3791 12.2511C60.4479 11.1149 61.5224 9.9844 62.5825 8.84141C62.1103 8.84237 61.6381 8.84044 61.1668 8.84333C60.1626 9.89863 59.1661 10.9607 58.1667 12.0208C58.1609 10.9607 58.1773 9.90056 58.1609 8.84044C57.7638 8.84237 57.3668 8.8443 56.9697 8.83851C56.9427 11.2055 56.963 13.5734 56.9601 15.9403Z" fill="#005192"/>
<path d="M36.5692 9.7907C37.1089 9.80612 37.691 9.71456 38.1912 9.9661C38.7877 10.2812 38.7212 11.2662 38.1575 11.5823C37.6833 11.8743 37.0993 11.7789 36.5711 11.7933C36.5711 11.1255 36.5731 10.4576 36.5692 9.7907Z" fill="#005192"/>
<path d="M44.1548 11.1832C44.178 11.1523 44.2252 11.0916 44.2483 11.0608C44.6145 11.9291 44.9962 12.7907 45.3634 13.6581C44.5982 13.6532 43.831 13.6802 43.0668 13.6455C43.4446 12.8321 43.7905 12.0033 44.1548 11.1832Z" fill="#005192"/>
<path d="M36.5702 12.7407C37.1667 12.7735 37.8394 12.6164 38.3647 12.9797C38.9612 13.4086 38.8706 14.488 38.1941 14.7973C37.6872 15.0296 37.1108 14.9313 36.5721 14.9506C36.5712 14.2143 36.5731 13.477 36.5702 12.7407Z" fill="#005192"/>
</svg>
