<?xml version="1.0" encoding="UTF-8"?>
<!DOCTYPE svg PUBLIC "-//W3C//DTD SVG 1.1//EN" "http://www.w3.org/Graphics/SVG/1.1/DTD/svg11.dtd">
<svg xmlns="http://www.w3.org/2000/svg" version="1.1" width="1778px" height="1118px" style="shape-rendering:geometricPrecision; text-rendering:geometricPrecision; image-rendering:optimizeQuality; fill-rule:evenodd; clip-rule:evenodd" xmlns:xlink="http://www.w3.org/1999/xlink">
<g><path style="opacity:0.987" fill="#ff0000" d="M 455.5,376.5 C 478.095,376.161 493.929,387.161 503,409.5C 508.402,432.627 501.236,450.794 481.5,464C 456.101,475.277 435.268,469.777 419,447.5C 406.757,421.359 412.257,399.859 435.5,383C 441.893,379.577 448.56,377.411 455.5,376.5 Z"/></g>
<g><path style="opacity:0.986" fill="#ff0000" d="M 1348.5,376.5 C 1374.76,376.3 1391.26,389.3 1398,415.5C 1400.15,443.73 1387.65,461.564 1360.5,469C 1332.62,471.445 1314.79,459.279 1307,432.5C 1304.36,401.341 1318.19,382.675 1348.5,376.5 Z"/></g>
<g><path style="opacity:0.196" fill="#fe1110" d="M 1413.5,382.5 C 1414.83,383.167 1414.83,383.167 1413.5,382.5 Z"/></g>
<g><path style="opacity:0.993" fill="#ff0000" d="M 186.5,450.5 C 207.705,449.599 228.371,452.432 248.5,459C 259.897,463.596 268.731,471.096 275,481.5C 276.712,473.934 278.545,466.434 280.5,459C 310.832,458.5 341.165,458.333 371.5,458.5C 358.02,549.859 344.354,641.192 330.5,732.5C 299.833,732.5 269.167,732.5 238.5,732.5C 240.336,724.504 241.836,716.504 243,708.5C 225.237,726.88 203.571,737.214 178,739.5C 126.749,743.207 90.7489,721.54 70,674.5C 51.5237,619.118 56.8571,566.118 86,515.5C 106.026,483.071 134.526,462.237 171.5,453C 176.661,452.268 181.661,451.434 186.5,450.5 Z M 198.5,539.5 C 230.224,538.931 250.057,553.931 258,584.5C 260.573,617.215 246.073,637.715 214.5,646C 182.19,649.272 161.357,635.439 152,604.5C 148.402,568.991 163.902,547.325 198.5,539.5 Z"/></g>
<g><path style="opacity:0.993" fill="#ff0000" d="M 901.5,708.5 C 902.504,705.895 902.17,705.895 900.5,708.5C 883.082,726.956 861.582,737.29 836,739.5C 782.546,742.763 745.879,719.429 726,669.5C 710.803,618.607 715.47,569.607 740,522.5C 778.98,458.783 834.48,437.617 906.5,459C 917.783,463.215 926.616,470.382 933,480.5C 935.073,473.376 936.906,466.209 938.5,459C 968.832,458.5 999.165,458.333 1029.5,458.5C 1016.21,549.885 1002.54,641.218 988.5,732.5C 958.165,732.667 927.832,732.5 897.5,732C 897.043,731.586 896.709,731.086 896.5,730.5C 898.484,723.233 900.15,715.9 901.5,708.5 Z M 856.5,539.5 C 887.682,538.993 907.516,553.659 916,583.5C 919.082,616.728 904.582,637.561 872.5,646C 834.796,648.463 813.463,630.963 808.5,593.5C 809.44,574.108 817.774,558.941 833.5,548C 840.887,544.042 848.554,541.208 856.5,539.5 Z"/></g>
<g><path style="opacity:0.99" fill="#ff0000" d="M 1147.5,450.5 C 1184.41,449.248 1219.41,456.748 1252.5,473C 1253.99,473.745 1254.99,474.912 1255.5,476.5C 1251.86,501.343 1247.69,526.009 1243,550.5C 1217.6,535.31 1190.1,526.644 1160.5,524.5C 1152.59,524.823 1144.93,526.323 1137.5,529C 1126.01,535.89 1125.68,543.223 1136.5,551C 1151.93,557.589 1167.6,563.589 1183.5,569C 1201.59,575.788 1217.43,585.954 1231,599.5C 1248.17,622.011 1252.84,647.011 1245,674.5C 1238.45,695.387 1225.62,711.221 1206.5,722C 1187.5,731.957 1167.33,737.79 1146,739.5C 1110.89,741.896 1076.72,736.063 1043.5,722C 1034.26,717.464 1025.42,712.297 1017,706.5C 1019.97,678.716 1023.97,651.049 1029,623.5C 1057.71,648.182 1091.05,662.182 1129,665.5C 1137.61,665.579 1145.78,663.745 1153.5,660C 1163.47,650.774 1162.47,642.774 1150.5,636C 1132.32,628.607 1113.99,621.607 1095.5,615C 1047.97,595.437 1031.47,560.937 1046,511.5C 1058.9,483.276 1080.4,465.109 1110.5,457C 1122.79,453.749 1135.12,451.582 1147.5,450.5 Z"/></g>
<g><path style="opacity:0.993" fill="#ff0000" d="M 1526.5,450.5 C 1547.7,449.599 1568.37,452.432 1588.5,459C 1599.9,463.596 1608.73,471.096 1615,481.5C 1616.98,473.914 1618.48,466.247 1619.5,458.5C 1650.17,458.5 1680.83,458.5 1711.5,458.5C 1697.83,549.832 1684.17,641.165 1670.5,732.5C 1639.83,732.5 1609.17,732.5 1578.5,732.5C 1580.2,724.15 1581.7,715.816 1583,707.5C 1565.67,726.666 1544,737.333 1518,739.5C 1465.95,742.788 1429.61,720.455 1409,672.5C 1391.96,619.064 1396.96,567.731 1424,518.5C 1447.31,479.429 1481.48,456.763 1526.5,450.5 Z M 1538.5,539.5 C 1566.3,538.636 1585.46,550.97 1596,576.5C 1602.54,602.544 1595.04,623.377 1573.5,639C 1545.83,652.85 1521.67,648.35 1501,625.5C 1485.13,599.376 1487.63,575.21 1508.5,553C 1517.45,546.02 1527.45,541.52 1538.5,539.5 Z"/></g>
<g><path style="opacity:0.985" fill="#ff0000" d="M 661.5,457.5 C 690.75,454.694 709.25,467.36 717,495.5C 718.836,527.835 703.67,546.168 671.5,550.5C 638.846,546.015 623.68,527.348 626,494.5C 630.917,475.418 642.75,463.085 661.5,457.5 Z"/></g>
<g><path style="opacity:0.992" fill="#ff0000" d="M 540.5,458.5 C 569.174,458.167 597.841,458.5 626.5,459.5C 611.602,475.703 606.102,494.703 610,516.5C 612.492,525.151 615.659,533.485 619.5,541.5C 609.739,605.163 600.072,668.83 590.5,732.5C 560.165,732.667 529.832,732.5 499.5,732C 512.446,640.887 526.113,549.72 540.5,458.5 Z"/></g>
<g><path style="opacity:0.992" fill="#ff0000" d="M 1302.5,461.5 C 1322.65,484.539 1347.32,491.039 1376.5,481C 1381.82,478.673 1386.82,475.84 1391.5,472.5C 1379.35,558.769 1366.51,645.103 1353,731.5C 1322.57,732.496 1292.07,732.829 1261.5,732.5C 1274.63,642.076 1288.29,551.743 1302.5,461.5 Z"/></g>
<g><path style="opacity:0.992" fill="#ff0000" d="M 409.5,463.5 C 430.355,485.04 455.021,490.874 483.5,481C 489.423,478.124 494.923,474.624 500,470.5C 487.352,557.531 474.186,644.531 460.5,731.5C 445.333,731.833 430.167,732.167 415,732.5C 399.351,732.66 383.851,732.16 368.5,731C 382.581,641.933 396.248,552.766 409.5,463.5 Z"/></g>
<g><path style="opacity:0.196" fill="#fe1110" d="M 901.5,708.5 C 901.167,708.5 900.833,708.5 900.5,708.5C 902.17,705.895 902.504,705.895 901.5,708.5 Z"/></g>
</svg>
