<?xml version="1.0" encoding="UTF-8"?>
<!DOCTYPE svg PUBLIC "-//W3C//DTD SVG 1.1//EN" "http://www.w3.org/Graphics/SVG/1.1/DTD/svg11.dtd">
<svg xmlns="http://www.w3.org/2000/svg" version="1.1" width="1200px" height="675px" style="shape-rendering:geometricPrecision; text-rendering:geometricPrecision; image-rendering:optimizeQuality; fill-rule:evenodd; clip-rule:evenodd" xmlns:xlink="http://www.w3.org/1999/xlink">
<g><path style="opacity:0.973" fill="#ebc63e" d="M 1145.5,324.5 C 1145.17,325.167 1144.83,325.833 1144.5,326.5C 1113.2,335.659 1081.87,344.826 1050.5,354C 1070.8,354.468 1090.97,354.301 1111,353.5C 1111.69,354.025 1112.19,354.692 1112.5,355.5C 1097.71,383.903 1078.05,408.403 1053.5,429C 1044.83,434.333 1036.17,439.667 1027.5,445C 1022.16,447.006 1016.82,449.006 1011.5,451C 983.885,454.053 967.719,441.886 963,414.5C 962.056,402.881 962.556,391.381 964.5,380C 974.738,330.529 998.072,288.196 1034.5,253C 1051.29,238.269 1070.63,228.269 1092.5,223C 1104.76,221.434 1114.92,225.267 1123,234.5C 1125.92,239.341 1128.59,244.341 1131,249.5C 1132.64,255.056 1133.47,260.722 1133.5,266.5C 1108.42,276.364 1083.42,286.531 1058.5,297C 1086.08,294.787 1113.58,291.62 1141,287.5C 1142.26,287.85 1142.59,288.517 1142,289.5C 1098.75,304.018 1054.59,318.185 1009.5,332C 1054.55,329.849 1099.89,327.349 1145.5,324.5 Z"/></g>
<g><path style="opacity:0.063" fill="#87816d" d="M 1145.5,324.5 C 1147.79,325.301 1147.46,325.968 1144.5,326.5C 1144.83,325.833 1145.17,325.167 1145.5,324.5 Z"/></g>
<g><path style="opacity:0.945" fill="#364f8a" d="M 423.5,341.5 C 434.838,341.333 446.172,341.5 457.5,342C 458.022,342.561 458.355,343.228 458.5,344C 457.584,355.967 456.918,367.967 456.5,380C 456.558,385.945 457.058,391.778 458,397.5C 450,398.167 442,398.833 434,399.5C 430.868,398.763 427.368,398.43 423.5,398.5C 425.078,389.113 425.744,379.613 425.5,370C 425.333,362.5 425.167,355 425,347.5C 422.96,345.719 422.46,343.719 423.5,341.5 Z"/></g>
<g><path style="opacity:0.953" fill="#354e8a" d="M 559.5,341.5 C 570.833,341.5 582.167,341.5 593.5,341.5C 593.336,344.187 593.503,346.854 594,349.5C 596.882,357.984 600.048,366.317 603.5,374.5C 607.961,363.95 612.128,353.283 616,342.5C 626.667,341.167 637.333,341.167 648,342.5C 652.886,352.94 657.22,363.606 661,374.5C 666.221,364.056 669.721,353.056 671.5,341.5C 677.167,341.5 682.833,341.5 688.5,341.5C 681.687,359.802 674.854,378.135 668,396.5C 667.5,397 667,397.5 666.5,398C 656.589,398.818 646.756,398.651 637,397.5C 632.52,386.384 627.853,375.384 623,364.5C 618.648,375.595 614.148,386.595 609.5,397.5C 599.881,398.641 590.214,398.807 580.5,398C 573.773,383.445 568.106,368.778 563.5,354C 560.465,350.164 559.132,345.997 559.5,341.5 Z"/></g>
<g><path style="opacity:0.946" fill="#354e8a" d="M 710.5,341.5 C 721.838,341.333 733.172,341.5 744.5,342C 755.208,359.917 766.041,377.75 777,395.5C 777.617,396.449 777.451,397.282 776.5,398C 774.833,398.167 773.167,398.333 771.5,398.5C 760.852,397.624 750.185,397.291 739.5,397.5C 740.215,392.1 738.548,387.6 734.5,384C 724.416,383.99 713.749,383.99 702.5,384C 699.116,388.098 697.116,392.764 696.5,398C 690.094,398.56 683.761,398.06 677.5,396.5C 689.255,380.242 700.421,363.575 711,346.5C 710.981,344.893 710.815,343.226 710.5,341.5 Z M 718.5,358.5 C 720.074,358.937 721.241,359.937 722,361.5C 723.579,364.994 725.413,368.327 727.5,371.5C 721.833,372.833 716.167,372.833 710.5,371.5C 713.429,367.306 716.095,362.973 718.5,358.5 Z"/></g>
<g><path style="opacity:0.942" fill="#354e8a" d="M 764.5,341.5 C 776.838,341.333 789.171,341.5 801.5,342C 806.281,349.777 812.115,356.611 819,362.5C 825.313,356.403 830.813,349.57 835.5,342C 840.833,341.333 846.167,341.333 851.5,342C 852.517,343.049 852.684,344.216 852,345.5C 843,355.833 834,366.167 825,376.5C 824.092,383.977 824.592,391.31 826.5,398.5C 814.648,398.768 802.648,398.768 790.5,398.5C 790.504,396.158 791.337,394.158 793,392.5C 793.667,387.167 793.667,381.833 793,376.5C 784.037,365.868 774.703,355.535 765,345.5C 764.51,344.207 764.343,342.873 764.5,341.5 Z"/></g>
<g><path style="opacity:0.938" fill="#344e8a" d="M 868.5,341.5 C 888.836,341.333 909.169,341.5 929.5,342C 931.352,345.239 932.352,348.739 932.5,352.5C 917.805,351.068 903.139,351.234 888.5,353C 887.253,354.458 887.253,355.958 888.5,357.5C 899.819,358.332 911.152,358.832 922.5,359C 929.215,359.383 933.049,362.883 934,369.5C 934.667,375.833 934.667,382.167 934,388.5C 932.895,391.937 930.728,394.437 927.5,396C 915.901,397.135 904.234,397.635 892.5,397.5C 881.833,397.167 871.167,396.833 860.5,396.5C 858.702,393.711 858.202,390.711 859,387.5C 873.709,387.437 888.542,387.437 903.5,387.5C 903.756,385.208 903.423,383.041 902.5,381C 890.167,380.667 877.833,380.333 865.5,380C 862.804,379.31 860.637,377.81 859,375.5C 857.393,366.936 857.06,358.27 858,349.5C 860.263,345.054 863.763,342.388 868.5,341.5 Z"/></g>
<g><path style="opacity:0.947" fill="#354e8a" d="M 86.5,342.5 C 98.1667,342.5 109.833,342.5 121.5,342.5C 120.043,357.457 118.877,372.457 118,387.5C 115.01,394.597 109.51,398.097 101.5,398C 86.1667,398.667 70.8333,398.667 55.5,398C 52.909,394.933 51.5757,391.433 51.5,387.5C 63.747,387.822 75.9136,387.488 88,386.5C 88.6667,373.167 88.6667,359.833 88,346.5C 87.2086,345.255 86.7086,343.922 86.5,342.5 Z"/></g>
<g><path style="opacity:0.937" fill="#354e8a" d="M 129.5,342.5 C 152.169,342.333 174.836,342.5 197.5,343C 200.002,346.169 200.668,349.669 199.5,353.5C 187.217,352.52 174.884,352.187 162.5,352.5C 162.5,356.5 162.5,360.5 162.5,364.5C 174.057,365.075 185.723,364.742 197.5,363.5C 197.5,367.5 197.5,371.5 197.5,375.5C 185.833,375.5 174.167,375.5 162.5,375.5C 162.5,379.833 162.5,384.167 162.5,388.5C 175.85,388.639 189.183,388.306 202.5,387.5C 202.352,391.261 201.352,394.761 199.5,398C 176.502,398.5 153.502,398.667 130.5,398.5C 131.47,383.377 131.803,368.377 131.5,353.5C 131.306,349.73 130.64,346.063 129.5,342.5 Z"/></g>
<g><path style="opacity:0.946" fill="#354e8a" d="M 206.5,342.5 C 231.169,342.333 255.836,342.5 280.5,343C 282.076,345.951 282.743,349.117 282.5,352.5C 274.5,352.5 266.5,352.5 258.5,352.5C 258.333,365.504 258.5,378.504 259,391.5C 259.662,393.813 260.162,396.146 260.5,398.5C 249.167,398.5 237.833,398.5 226.5,398.5C 227.436,383.195 227.769,367.862 227.5,352.5C 219.833,352.5 212.167,352.5 204.5,352.5C 204.54,349.012 205.207,345.679 206.5,342.5 Z"/></g>
<g><path style="opacity:0.947" fill="#364f8a" d="M 357.5,341.5 C 367.554,341.952 377.887,342.452 388.5,343C 399.473,361.47 409.973,379.97 420,398.5C 418.769,399.108 417.436,399.441 416,399.5C 405.19,398.581 394.356,398.248 383.5,398.5C 382.886,385.014 375.886,380.347 362.5,384.5C 348.826,380.315 341.493,384.982 340.5,398.5C 334.235,398.818 327.902,398.818 321.5,398.5C 331.629,382.935 341.796,367.268 352,351.5C 353.908,348.794 354.741,345.794 354.5,342.5C 355.791,342.737 356.791,342.404 357.5,341.5 Z M 362.5,358.5 C 365.637,363.161 368.637,367.994 371.5,373C 365.804,373.83 360.137,373.663 354.5,372.5C 357.19,367.779 359.857,363.112 362.5,358.5 Z"/></g>
<g><path style="opacity:0.959" fill="#354e8a" d="M 467.5,342.5 C 494.564,342.026 521.564,342.526 548.5,344C 550,345.5 551.5,347 553,348.5C 554.823,356.197 554.49,363.864 552,371.5C 549.345,373.053 546.512,374.22 543.5,375C 547.877,381.587 552.377,388.087 557,394.5C 557.667,395.5 557.667,396.5 557,397.5C 546.243,398.653 535.41,398.82 524.5,398C 519.043,390.925 514.21,383.425 510,375.5C 507,374.167 504,374.167 501,375.5C 500.085,382.449 500.585,389.282 502.5,396C 502.355,396.772 502.022,397.439 501.5,398C 490.833,398.667 480.167,398.667 469.5,398C 468.833,397.333 468.167,396.667 467.5,396C 469.186,391.035 470.186,385.869 470.5,380.5C 470.562,369.649 470.395,358.649 470,347.5C 468.628,346.09 467.795,344.423 467.5,342.5 Z M 501.5,351.5 C 508.133,352.214 514.8,352.714 521.5,353C 522.833,356.333 522.833,359.667 521.5,363C 514.708,364.067 508.042,364.233 501.5,363.5C 501.5,359.5 501.5,355.5 501.5,351.5 Z"/></g>
</svg>
