<?xml version="1.0" encoding="UTF-8"?>
<!DOCTYPE svg PUBLIC "-//W3C//DTD SVG 1.1//EN" "http://www.w3.org/Graphics/SVG/1.1/DTD/svg11.dtd">
<svg xmlns="http://www.w3.org/2000/svg" version="1.1" width="1493px" height="536px" style="shape-rendering:geometricPrecision; text-rendering:geometricPrecision; image-rendering:optimizeQuality; fill-rule:evenodd; clip-rule:evenodd" xmlns:xlink="http://www.w3.org/1999/xlink">
<g><path style="opacity:0.988" fill="#253f8f" d="M 1180.5,98.5 C 1227.5,98.3333 1274.5,98.5 1321.5,99C 1381.86,104.691 1413.02,137.858 1415,198.5C 1417.16,208.663 1423,215.83 1432.5,220C 1439.47,221.681 1446.47,223.181 1453.5,224.5C 1452.52,227.096 1451.85,229.762 1451.5,232.5C 1428.58,232.044 1410.41,241.044 1397,259.5C 1366.79,314.344 1320.63,346.51 1258.5,356C 1208.83,356.5 1159.17,356.667 1109.5,356.5C 1109.99,354.194 1110.33,351.861 1110.5,349.5C 1149.17,349.667 1187.83,349.5 1226.5,349C 1240.23,347.225 1249.06,339.725 1253,326.5C 1260.54,300.495 1267.38,274.329 1273.5,248C 1273.1,238.266 1267.93,233.099 1258,232.5C 1243.09,234.617 1233.76,242.95 1230,257.5C 1227,268.5 1224,279.5 1221,290.5C 1217.28,297.881 1211.45,302.715 1203.5,305C 1176.84,305.5 1150.17,305.667 1123.5,305.5C 1123.78,302.882 1124.45,300.382 1125.5,298C 1137.83,297.667 1150.17,297.333 1162.5,297C 1169.77,295.394 1174.94,291.227 1178,284.5C 1182.12,271.148 1185.62,257.648 1188.5,244C 1188.46,237.956 1185.46,234.29 1179.5,233C 1167.49,232.833 1155.49,232.333 1143.5,231.5C 1144.48,228.904 1145.15,226.238 1145.5,223.5C 1158.56,223.922 1171.56,223.422 1184.5,222C 1192.74,219.427 1197.91,213.927 1200,205.5C 1203.47,193.579 1206.64,181.579 1209.5,169.5C 1208.72,162.886 1205.05,159.053 1198.5,158C 1187.17,157.5 1175.84,157.333 1164.5,157.5C 1164.99,155.194 1165.33,152.861 1165.5,150.5C 1192.5,150.333 1219.5,150.5 1246.5,151C 1252.31,153.11 1255.31,157.276 1255.5,163.5C 1251.83,178.176 1248.16,192.842 1244.5,207.5C 1246.22,219.709 1253.22,224.542 1265.5,222C 1277.55,219.084 1285.05,211.584 1288,199.5C 1294.51,175.123 1301.18,150.789 1308,126.5C 1309.97,116.488 1306.13,109.988 1296.5,107C 1257.17,106.5 1217.83,106.333 1178.5,106.5C 1178.86,103.733 1179.52,101.067 1180.5,98.5 Z"/></g>
<g><path style="opacity:0.976" fill="#253f8f" d="M 433.5,186.5 C 445.833,186.5 458.167,186.5 470.5,186.5C 455.645,242.567 440.479,298.567 425,354.5C 418.907,355.811 412.574,356.478 406,356.5C 399.833,356.333 393.667,356.167 387.5,356C 403.534,299.7 418.867,243.2 433.5,186.5 Z"/></g>
<g><path style="opacity:0.977" fill="#253f8f" d="M 84.5,222.5 C 128.501,222.333 172.501,222.5 216.5,223C 238.67,226.857 248.17,240.024 245,262.5C 236.654,293.55 228.154,324.55 219.5,355.5C 207.18,356.666 194.847,356.833 182.5,356C 191.295,325.488 199.629,294.821 207.5,264C 207.296,260.168 205.629,257.168 202.5,255C 195.105,252.463 187.605,251.963 180,253.5C 170.36,287.728 161.193,322.062 152.5,356.5C 140.167,356.5 127.833,356.5 115.5,356.5C 124.422,322.065 133.755,287.732 143.5,253.5C 133.188,252.501 122.855,252.168 112.5,252.5C 103.637,286.951 94.3036,321.285 84.5,355.5C 72.1802,356.666 59.8468,356.833 47.5,356C 59.9126,311.516 72.2459,267.016 84.5,222.5 Z"/></g>
<g><path style="opacity:0.977" fill="#253f8f" d="M 279.5,222.5 C 307.169,222.333 334.835,222.5 362.5,223C 386.098,226.934 396.264,240.768 393,264.5C 384.83,295.181 376.663,325.848 368.5,356.5C 334.165,356.667 299.832,356.5 265.5,356C 245.371,349.579 238.537,336.079 245,315.5C 251.252,293.248 265.752,280.081 288.5,276C 310.174,275.833 331.841,275.333 353.5,274.5C 355.886,268.543 356.053,262.543 354,256.5C 351.806,253.819 348.973,252.319 345.5,252C 320.833,251.667 296.167,251.333 271.5,251C 274.398,241.577 277.065,232.077 279.5,222.5 Z M 295.5,304.5 C 312.18,304.167 328.847,304.501 345.5,305.5C 343.088,313.067 341.088,320.734 339.5,328.5C 323.83,328.667 308.163,328.5 292.5,328C 282.955,326.395 280.455,321.229 285,312.5C 287.539,308.49 291.039,305.824 295.5,304.5 Z"/></g>
<g><path style="opacity:0.976" fill="#253f8f" d="M 485.5,222.5 C 512.835,222.333 540.169,222.5 567.5,223C 590.627,226.124 601.127,239.291 599,262.5C 590.83,293.846 582.664,325.18 574.5,356.5C 540.165,356.667 505.832,356.5 471.5,356C 458.208,353.708 450.708,345.875 449,332.5C 448.756,307.431 459.923,289.597 482.5,279C 486.42,277.687 490.42,276.687 494.5,276C 516.164,275.5 537.831,275.333 559.5,275.5C 561.291,269.963 561.791,264.296 561,258.5C 558.831,254.99 555.664,252.823 551.5,252C 526.827,251.833 502.16,251.333 477.5,250.5C 480.173,241.138 482.84,231.804 485.5,222.5 Z M 500.5,304.5 C 517.503,304.333 534.503,304.5 551.5,305C 549.167,312.667 546.833,320.333 544.5,328C 528.833,328.667 513.167,328.667 497.5,328C 492.499,327.828 489.499,325.328 488.5,320.5C 489.186,312.504 493.186,307.171 500.5,304.5 Z"/></g>
<g><path style="opacity:0.973" fill="#253f8f" d="M 629.5,222.5 C 641.5,222.5 653.5,222.5 665.5,222.5C 657.423,253.307 649.423,284.141 641.5,315C 641.333,319.332 642.999,322.665 646.5,325C 654.093,326.116 661.759,326.616 669.5,326.5C 676.41,326.491 683.244,326.158 690,325.5C 699.333,291.5 708.667,257.5 718,223.5C 730.086,222.512 742.253,222.178 754.5,222.5C 741.645,271.234 728.479,319.901 715,368.5C 709.337,385.346 698.837,398.179 683.5,407C 676.905,410.532 669.905,412.865 662.5,414C 635.169,414.5 607.835,414.667 580.5,414.5C 582.677,404.792 585.01,395.125 587.5,385.5C 612.885,385.962 638.218,385.462 663.5,384C 668.178,382.324 672.011,379.491 675,375.5C 677.777,369.729 679.944,363.729 681.5,357.5C 662.466,356.936 643.466,356.102 624.5,355C 605.705,348.249 598.872,335.082 604,315.5C 612.209,284.381 620.709,253.381 629.5,222.5 Z"/></g>
<g><path style="opacity:0.977" fill="#253f8f" d="M 809.5,222.5 C 839.833,222.5 870.167,222.5 900.5,222.5C 898.009,232.131 895.675,241.798 893.5,251.5C 867.165,251.333 840.831,251.5 814.5,252C 804.515,254.129 800.015,260.296 801,270.5C 801.5,272.333 802.667,273.5 804.5,274C 822.781,275.281 841.115,275.947 859.5,276C 875.003,278.669 883.336,287.835 884.5,303.5C 882.26,331.563 867.593,349.063 840.5,356C 806.168,356.5 771.835,356.667 737.5,356.5C 739.361,347.391 741.694,338.391 744.5,329.5C 772.161,328.667 799.827,328.167 827.5,328C 837.586,327.081 843.252,321.581 844.5,311.5C 844.152,309.303 843.152,307.47 841.5,306C 824.233,304.708 806.899,304.041 789.5,304C 766.159,300.842 756.993,287.676 762,264.5C 768.707,239.948 784.541,225.948 809.5,222.5 Z"/></g>
<g><path style="opacity:0.972" fill="#253f8f" d="M 923.5,222.5 C 935.5,222.5 947.5,222.5 959.5,222.5C 947.984,266.562 936.151,310.562 924,354.5C 917.907,355.811 911.574,356.478 905,356.5C 898.833,356.333 892.667,356.167 886.5,356C 898.913,311.516 911.246,267.016 923.5,222.5 Z"/></g>
<g><path style="opacity:0.977" fill="#253f8f" d="M 983.5,222.5 C 1010.84,222.333 1038.17,222.5 1065.5,223C 1090.64,227.427 1100.81,242.261 1096,267.5C 1088.06,297.095 1079.89,326.595 1071.5,356C 1037.5,356.667 1003.5,356.667 969.5,356C 949.801,350.455 942.635,337.621 948,317.5C 954.175,294.324 969.008,280.49 992.5,276C 1014.16,275.5 1035.83,275.333 1057.5,275.5C 1059.14,270.273 1059.64,264.94 1059,259.5C 1057.32,255.23 1054.15,252.73 1049.5,252C 1024.84,251.5 1000.17,251.333 975.5,251.5C 977.767,241.703 980.433,232.037 983.5,222.5 Z M 998.5,304.5 C 1015.5,304.333 1032.5,304.5 1049.5,305C 1047.17,312.667 1044.83,320.333 1042.5,328C 1026.83,328.667 1011.17,328.667 995.5,328C 988.513,327.692 985.68,324.192 987,317.5C 988.617,311.058 992.45,306.725 998.5,304.5 Z"/></g>
<g><path style="opacity:0.927" fill="#253f8f" d="M 857.5,369.5 C 861.555,369.176 865.555,369.509 869.5,370.5C 862.512,395.45 855.679,420.45 849,445.5C 845.27,446.46 841.437,446.793 837.5,446.5C 844.324,420.87 850.991,395.203 857.5,369.5 Z"/></g>
<g><path style="opacity:0.931" fill="#253f8f" d="M 730.5,385.5 C 744.837,385.333 759.171,385.5 773.5,386C 780.824,388.599 783.657,393.766 782,401.5C 778.06,416.428 773.894,431.262 769.5,446C 755.5,446.667 741.5,446.667 727.5,446C 717.228,442.233 714.061,435.067 718,424.5C 721.112,416.388 726.946,411.555 735.5,410C 746.515,409.832 757.515,409.332 768.5,408.5C 770.825,404.182 770.825,400.016 768.5,396C 755.171,395.5 741.837,395.333 728.5,395.5C 728.547,392.031 729.213,388.698 730.5,385.5 Z M 739.5,418.5 C 748.167,418.5 756.833,418.5 765.5,418.5C 764.109,424.509 762.609,430.509 761,436.5C 752.579,437.649 744.079,437.816 735.5,437C 729.495,436.495 727.328,433.328 729,427.5C 730.884,422.439 734.384,419.439 739.5,418.5 Z"/></g>
<g><path style="opacity:0.921" fill="#253f8f" d="M 795.5,385.5 C 799.167,385.5 802.833,385.5 806.5,385.5C 801.494,405.191 796.327,424.857 791,444.5C 787.506,446.377 783.673,447.044 779.5,446.5C 784.364,426.044 789.697,405.711 795.5,385.5 Z"/></g>
<g><path style="opacity:0.917" fill="#253f8f" d="M 828.5,385.5 C 834.5,385.5 840.5,385.5 846.5,385.5C 845.833,388.833 845.167,392.167 844.5,395.5C 838.238,394.872 832.238,395.705 826.5,398C 825.789,399.255 824.956,400.421 824,401.5C 819.052,416.293 814.885,431.293 811.5,446.5C 807.445,446.824 803.445,446.491 799.5,445.5C 803.302,432.925 806.802,420.258 810,407.5C 811.767,396.249 817.934,388.916 828.5,385.5 Z"/></g>
<g><path style="opacity:0.919" fill="#253f8f" d="M 874.5,385.5 C 878.167,385.5 881.833,385.5 885.5,385.5C 880.167,405.833 874.833,426.167 869.5,446.5C 865.486,446.666 861.486,446.499 857.5,446C 863.09,425.805 868.757,405.638 874.5,385.5 Z"/></g>
<g><path style="opacity:0.921" fill="#253f8f" d="M 894.5,385.5 C 906.838,385.333 919.171,385.5 931.5,386C 941.513,388.174 945.346,394.341 943,404.5C 939.333,418.167 935.667,431.833 932,445.5C 928.27,446.46 924.437,446.793 920.5,446.5C 924.166,431.837 927.832,417.17 931.5,402.5C 931.881,399.675 930.881,397.509 928.5,396C 920.147,395.168 911.813,395.335 903.5,396.5C 898.846,412.784 894.346,429.117 890,445.5C 886.27,446.46 882.437,446.793 878.5,446.5C 883.833,426.167 889.167,405.833 894.5,385.5 Z"/></g>
<g><path style="opacity:0.907" fill="#253f8f" d="M 975.5,385.5 C 985.5,385.5 995.5,385.5 1005.5,385.5C 1005.53,388.836 1004.87,392.003 1003.5,395C 993.427,395.076 983.427,395.742 973.5,397C 967.971,399.695 963.971,403.862 961.5,409.5C 973.482,410.499 985.482,410.832 997.5,410.5C 997.308,413.601 996.642,416.601 995.5,419.5C 982.938,420.176 970.438,420.842 958,421.5C 955.762,430.217 958.929,435.384 967.5,437C 975.833,437.333 984.167,437.667 992.5,438C 991.347,440.616 990.347,443.282 989.5,446C 979.167,446.667 968.833,446.667 958.5,446C 951.667,444.5 947.5,440.333 946,433.5C 943.915,417.507 948.749,404.007 960.5,393C 965.152,389.628 970.152,387.128 975.5,385.5 Z"/></g>
<g><path style="opacity:0.916" fill="#253f8f" d="M 1031.5,385.5 C 1043.19,385.168 1054.85,385.501 1066.5,386.5C 1065.36,389.399 1064.69,392.399 1064.5,395.5C 1052.83,395.333 1041.16,395.5 1029.5,396C 1024.29,397.577 1021.29,401.077 1020.5,406.5C 1020.97,408.134 1021.97,409.3 1023.5,410C 1032.54,410.192 1041.54,410.859 1050.5,412C 1054.33,413.167 1056.83,415.667 1058,419.5C 1060.17,432.659 1055.01,441.492 1042.5,446C 1027.17,446.667 1011.83,446.667 996.5,446C 997.713,443.313 998.38,440.48 998.5,437.5C 1009.84,437.667 1021.17,437.5 1032.5,437C 1043.1,437.085 1047.43,432.085 1045.5,422C 1035.22,420.916 1024.88,419.916 1014.5,419C 1008.06,414.684 1006.23,408.85 1009,401.5C 1013.19,391.335 1020.69,386.002 1031.5,385.5 Z"/></g>
</svg>
