<?xml version="1.0" encoding="UTF-8"?>
<!DOCTYPE svg PUBLIC "-//W3C//DTD SVG 1.1//EN" "http://www.w3.org/Graphics/SVG/1.1/DTD/svg11.dtd">
<svg xmlns="http://www.w3.org/2000/svg" version="1.1" width="4968px" height="3125px" style="shape-rendering:geometricPrecision; text-rendering:geometricPrecision; image-rendering:optimizeQuality; fill-rule:evenodd; clip-rule:evenodd" xmlns:xlink="http://www.w3.org/1999/xlink">
<g><path style="opacity:1" fill="#f89f1b" d="M 4967.5,2028.5 C 4967.5,2033.5 4967.5,2038.5 4967.5,2043.5C 4937.4,2042.02 4908.73,2048.52 4881.5,2063C 4867.09,2071.41 4855.26,2082.57 4846,2096.5C 4780.67,2195.17 4715.33,2293.83 4650,2392.5C 4607.32,2441.5 4553.98,2468.84 4490,2474.5C 4218.59,2474.65 3946.09,2474.48 3672.5,2474C 3672.17,2473.67 3671.83,2473.33 3671.5,2473C 3773.12,2317.59 3874.62,2162.09 3976,2006.5C 3991.1,1980.11 3994.76,1952.11 3987,1922.5C 3983.03,1908.26 3977.7,1894.59 3971,1881.5C 3870,1719.17 3769,1556.83 3668,1394.5C 3656.18,1360.29 3656.85,1326.29 3670,1292.5C 3673.45,1283.59 3677.45,1274.93 3682,1266.5C 3710.67,1222.5 3739.33,1178.5 3768,1134.5C 3768.84,1132.99 3770,1132.49 3771.5,1133C 3898.62,1339.42 4026.12,1545.58 4154,1751.5C 4182.84,1803.65 4183.84,1856.32 4157,1909.5C 4060.36,2060.97 3963.53,2212.3 3866.5,2363.5C 4067.17,2364.17 4267.84,2364.84 4468.5,2365.5C 4496.83,2364 4521.83,2354.16 4543.5,2336C 4556.72,2324.45 4568.55,2311.61 4579,2297.5C 4627.67,2222.83 4676.33,2148.17 4725,2073.5C 4742.45,2037.72 4766.29,2006.88 4796.5,1981C 4808.32,1972.51 4820.66,1964.84 4833.5,1958C 4794.87,1958.25 4756.37,1958.08 4718,1957.5C 4676.82,1965.42 4643.16,1987.42 4617,2023.5C 4568,2099.17 4519,2174.83 4470,2250.5C 4437.31,2292.5 4394.48,2316.66 4341.5,2323C 4266.36,2324 4191.36,2323.66 4116.5,2322C 4202.96,2187.58 4289.79,2053.41 4377,1919.5C 4411.58,1866.11 4432.91,1807.78 4441,1744.5C 4446.23,1692.98 4436.9,1643.98 4413,1597.5C 4273.65,1366.8 4134.32,1136.13 3995,905.5C 3975.07,866.909 3974.73,828.242 3994,789.5C 4025.5,742.5 4057,695.5 4088.5,648.5C 4248.58,905.666 4408.42,1163 4568,1420.5C 4590.66,1460.83 4608.66,1503.16 4622,1547.5C 4636.1,1596.67 4635.44,1645.67 4620,1694.5C 4602.42,1750.66 4578.08,1803.66 4547,1853.5C 4476.33,1963.5 4405.67,2073.5 4335,2183.5C 4331.19,2190.13 4328.19,2197.13 4326,2204.5C 4323.81,2219.65 4330.31,2226.15 4345.5,2224C 4356.82,2218.02 4366.32,2209.85 4374,2199.5C 4434.67,2107.5 4495.33,2015.5 4556,1923.5C 4595.42,1880.52 4642.76,1859.18 4698,1859.5C 4751.56,1859.96 4805.23,1859.96 4859,1859.5C 4862.14,1862.43 4864.8,1865.76 4867,1869.5C 4900.52,1922.56 4934.02,1975.56 4967.5,2028.5 Z"/></g>
<g><path style="opacity:1" fill="#f89f1b" d="M 3937.5,887.5 C 3939.47,889.647 3941.3,891.98 3943,894.5C 4083.83,1125.5 4225.16,1356.17 4367,1586.5C 4414.91,1678.42 4414.24,1771.09 4365,1864.5C 4268.37,2016.93 4170.87,2168.76 4072.5,2320C 4030.17,2320.5 3987.83,2320.67 3945.5,2320.5C 3945.49,2318.69 3945.99,2317.02 3947,2315.5C 4030.67,2183.5 4114.33,2051.5 4198,1919.5C 4211.09,1888.48 4216.09,1856.14 4213,1822.5C 4210.1,1795.23 4202.1,1769.56 4189,1745.5C 4071.25,1549.44 3952.92,1353.44 3834,1157.5C 3816.17,1124.52 3813.84,1090.52 3827,1055.5C 3863.66,999.347 3900.5,943.347 3937.5,887.5 Z"/></g>
<g><path style="opacity:1" fill="#00256b" d="M 2368.5,1365.5 C 2445.88,1365.48 2505.05,1399.15 2546,1466.5C 2577.61,1529.68 2577.27,1592.68 2545,1655.5C 2507.49,1717.94 2452.15,1750.94 2379,1754.5C 2297.32,1752.4 2237.32,1714.4 2199,1640.5C 2169.03,1567.26 2178.37,1498.93 2227,1435.5C 2264.52,1392.82 2311.69,1369.49 2368.5,1365.5 Z M 2363.5,1439.5 C 2415.77,1436.89 2455.6,1458.23 2483,1503.5C 2505.06,1550.47 2500.73,1594.8 2470,1636.5C 2435.55,1675.08 2393.05,1688.25 2342.5,1676C 2292.72,1658.88 2264.05,1624.21 2256.5,1572C 2254.19,1519.61 2275.53,1479.94 2320.5,1453C 2334.51,1446.27 2348.84,1441.77 2363.5,1439.5 Z"/></g>
<g><path style="opacity:1" fill="#00256b" d="M 87.5,1387.5 C 164.737,1387.17 241.904,1387.5 319,1388.5C 319.826,1409.74 319.66,1430.91 318.5,1452C 251.596,1452.17 184.763,1452.67 118,1453.5C 115.58,1452.51 113.247,1452.85 111,1454.5C 90.1472,1457.58 79.6472,1470.24 79.5,1492.5C 78.5143,1514.73 88.5143,1529.23 109.5,1536C 116.647,1537.59 123.813,1538.75 131,1539.5C 170.667,1539.17 210.333,1538.83 250,1538.5C 298.319,1544.49 324.652,1571.82 329,1620.5C 332.367,1649.32 327.033,1676.32 313,1701.5C 298.47,1722.52 278.637,1735.69 253.5,1741C 171.864,1742.48 90.1976,1742.98 8.5,1742.5C 8.5,1721.83 8.5,1701.17 8.5,1680.5C 79.208,1680.17 149.875,1680.5 220.5,1681.5C 235.34,1680.47 245.506,1673.14 251,1659.5C 254.816,1643.61 254.15,1627.95 249,1612.5C 244.885,1603.85 238.051,1598.68 228.5,1597C 176.802,1596.97 125.135,1596.31 73.5,1595C 31.8911,1584.72 8.72448,1558.22 4,1515.5C 1.2273,1491.65 3.56063,1468.31 11,1445.5C 25.5672,1411.79 51.0672,1392.46 87.5,1387.5 Z"/></g>
<g><path style="opacity:1" fill="#00256b" d="M 406.5,1387.5 C 430.741,1387.17 454.908,1387.51 479,1388.5C 479.5,1506.5 479.667,1624.5 479.5,1742.5C 454.833,1742.5 430.167,1742.5 405.5,1742.5C 405.169,1624.1 405.502,1505.76 406.5,1387.5 Z"/></g>
<g><path style="opacity:1" fill="#00256b" d="M 580.5,1387.5 C 605.176,1387.17 629.842,1387.5 654.5,1388.5C 655.319,1405.46 655.819,1422.46 656,1439.5C 670.479,1422.05 685.312,1404.89 700.5,1388C 733.833,1387.33 767.167,1387.33 800.5,1388C 864.353,1394.69 900.687,1429.53 909.5,1492.5C 909.291,1493.09 908.957,1493.59 908.5,1494C 909.305,1498.75 909.805,1503.58 910,1508.5C 910.493,1586.21 910.66,1663.71 910.5,1741C 884.982,1742.49 859.316,1742.99 833.5,1742.5C 833.667,1660.5 833.5,1578.5 833,1496.5C 829.25,1471.75 815.083,1457.25 790.5,1453C 745.501,1452.5 700.501,1452.33 655.5,1452.5C 655.667,1548.83 655.5,1645.17 655,1741.5C 630.239,1742.66 605.406,1742.83 580.5,1742C 579.168,1623.83 579.168,1505.67 580.5,1387.5 Z"/></g>
<g><path style="opacity:1" fill="#00256b" d="M 1136.5,1387.5 C 1199.5,1387.33 1262.5,1387.5 1325.5,1388C 1326,1388.5 1326.5,1389 1327,1389.5C 1327.83,1410.41 1327.66,1431.24 1326.5,1452C 1269.6,1452.17 1212.76,1452.67 1156,1453.5C 1120.81,1455.11 1092.14,1470.45 1070,1499.5C 1053.17,1529.98 1048.5,1562.31 1056,1596.5C 1064.55,1625.72 1082.05,1647.88 1108.5,1663C 1121.61,1670.7 1135.61,1676.04 1150.5,1679C 1184.5,1679.5 1218.5,1679.67 1252.5,1679.5C 1252.33,1625.83 1252.5,1572.17 1253,1518.5C 1276.76,1517.34 1300.59,1517.17 1324.5,1518C 1325.83,1592.67 1325.83,1667.33 1324.5,1742C 1258.83,1742.67 1193.17,1742.67 1127.5,1742C 1075.67,1732.86 1034.17,1707.36 1003,1665.5C 977.749,1623.34 969.749,1578 979,1529.5C 988.679,1479.86 1014.85,1441.69 1057.5,1415C 1081.97,1400.12 1108.3,1390.96 1136.5,1387.5 Z"/></g>
<g><path style="opacity:1" fill="#00256b" d="M 1539.5,1387.5 C 1565.74,1387.17 1591.91,1387.51 1618,1388.5C 1674.15,1506.14 1730.32,1623.8 1786.5,1741.5C 1758.51,1742.67 1730.51,1742.83 1702.5,1742C 1687.55,1708.98 1672.88,1675.81 1658.5,1642.5C 1605.17,1641.5 1551.84,1641.17 1498.5,1641.5C 1484.26,1675.16 1469.59,1708.66 1454.5,1742C 1426.49,1742.83 1398.49,1742.67 1370.5,1741.5C 1426.88,1623.41 1483.21,1505.41 1539.5,1387.5 Z M 1577.5,1446.5 C 1596.72,1492.63 1615.72,1538.96 1634.5,1585.5C 1596.5,1586.67 1558.5,1587.17 1520.5,1587C 1539.92,1540.32 1558.92,1493.49 1577.5,1446.5 Z"/></g>
<g><path style="opacity:1" fill="#00256b" d="M 1831.5,1387.5 C 1899.21,1387.51 1966.71,1387.51 2034,1387.5C 2090.86,1395.36 2125.86,1427.36 2139,1483.5C 2147.23,1531.13 2134.07,1571.63 2099.5,1605C 2080.72,1620.3 2059.22,1629.14 2035,1631.5C 2006.62,1631.63 1978.12,1631.47 1949.5,1631C 1935.67,1611.83 1921.83,1592.67 1908,1573.5C 1907.5,1629.83 1907.33,1686.17 1907.5,1742.5C 1881.83,1742.5 1856.17,1742.5 1830.5,1742.5C 1830.17,1624.1 1830.5,1505.76 1831.5,1387.5 Z M 1907.5,1454.5 C 1946.6,1455.63 1985.77,1455.63 2025,1454.5C 2045.22,1457.69 2058.55,1469.35 2065,1489.5C 2071.28,1509.23 2068.28,1528.56 2056,1547.5C 2049.59,1556.12 2041.09,1561.29 2030.5,1563C 1989.5,1563.5 1948.5,1563.67 1907.5,1563.5C 1907.5,1527.17 1907.5,1490.83 1907.5,1454.5 Z"/></g>
<g><path style="opacity:1" fill="#00256b" d="M 2627.5,1387.5 C 2699.17,1387.33 2770.83,1387.5 2842.5,1388C 2914.5,1399.38 2946.67,1441.54 2939,1514.5C 2931.56,1560.09 2906.73,1592.09 2864.5,1610.5C 2899.88,1653.88 2934.88,1697.54 2969.5,1741.5C 2938.84,1742.67 2908.17,1742.83 2877.5,1742C 2828.62,1681.08 2779.62,1620.24 2730.5,1559.5C 2731.24,1558.71 2732.08,1558.05 2733,1557.5C 2758,1557.83 2783,1558.17 2808,1558.5C 2848.95,1552.31 2866.28,1528.64 2860,1487.5C 2856.77,1470.03 2847.27,1458.2 2831.5,1452C 2822.59,1448.69 2813.59,1447.02 2804.5,1447C 2770.5,1446.5 2736.5,1446.33 2702.5,1446.5C 2702.67,1544.83 2702.5,1643.17 2702,1741.5C 2677.24,1742.66 2652.41,1742.83 2627.5,1742C 2626.17,1623.83 2626.17,1505.67 2627.5,1387.5 Z"/></g>
<g><path style="opacity:1" fill="#00256b" d="M 3030.5,1387.5 C 3123.17,1387.33 3215.83,1387.5 3308.5,1388C 3309.83,1408 3309.83,1428 3308.5,1448C 3240.83,1448.5 3173.17,1448.67 3105.5,1448.5C 3105.33,1476.5 3105.5,1504.5 3106,1532.5C 3163,1532.17 3220,1531.83 3277,1531.5C 3277.41,1531.96 3277.91,1532.29 3278.5,1532.5C 3279.83,1554.4 3279.83,1576.23 3278.5,1598C 3220.83,1598.5 3163.17,1598.67 3105.5,1598.5C 3105.5,1626.5 3105.5,1654.5 3105.5,1682.5C 3171.07,1682.61 3236.57,1682.27 3302,1681.5C 3304.07,1682.26 3306.24,1682.76 3308.5,1683C 3309.83,1702.67 3309.83,1722.33 3308.5,1742C 3215.83,1742.5 3123.17,1742.67 3030.5,1742.5C 3029.86,1623.79 3029.86,1505.45 3030.5,1387.5 Z"/></g>
<g><path style="opacity:1" fill="#00256b" d="M 849.5,1863.5 C 875.502,1863.33 901.502,1863.5 927.5,1864C 984.218,1981.94 1040.55,2100.1 1096.5,2218.5C 1096.17,2218.83 1095.83,2219.17 1095.5,2219.5C 1068.38,2219.58 1041.04,2219.75 1013.5,2220C 998.929,2187.69 984.763,2155.19 971,2122.5C 970.376,2120.25 969.043,2118.58 967,2117.5C 915,2117.5 863,2117.5 811,2117.5C 795.705,2151.26 780.538,2185.09 765.5,2219C 764.584,2219.37 763.75,2219.87 763,2220.5C 737,2219.17 711,2219.17 685,2220.5C 683.601,2219.77 682.101,2219.27 680.5,2219C 737.024,2100.46 793.357,1981.96 849.5,1863.5 Z M 888.5,1922.5 C 907.865,1968.91 926.865,2015.57 945.5,2062.5C 907.504,2063.67 869.504,2063.83 831.5,2063C 850.919,2016.33 869.919,1969.5 888.5,1922.5 Z"/></g>
<g><path style="opacity:1" fill="#00256b" d="M 1149.5,1863.5 C 1173.55,1863.18 1197.55,1863.51 1221.5,1864.5C 1222.83,1982.83 1222.83,2101.17 1221.5,2219.5C 1197.1,2220.7 1172.43,2220.7 1147.5,2219.5C 1147.33,2101.5 1147.5,1983.5 1148,1865.5C 1148.72,1864.96 1149.22,1864.29 1149.5,1863.5 Z"/></g>
<g><path style="opacity:1" fill="#00256b" d="M 1333.5,1863.5 C 1405.21,1863.51 1476.71,1863.51 1548,1863.5C 1575.03,1866.1 1598.53,1876.44 1618.5,1894.5C 1630.82,1907.14 1638.99,1922.14 1643,1939.5C 1652.63,1981.7 1644.3,2019.7 1618,2053.5C 1604.5,2068 1588.67,2079.16 1570.5,2087C 1605.69,2130.69 1640.69,2174.52 1675.5,2218.5C 1675.17,2218.83 1674.83,2219.17 1674.5,2219.5C 1645.11,2219.22 1615.94,2219.55 1587,2220.5C 1585.93,2219.81 1584.77,2219.31 1583.5,2219C 1535.12,2158.41 1486.62,2097.91 1438,2037.5C 1437.3,2035.93 1437.63,2034.59 1439,2033.5C 1464,2033.83 1489,2034.17 1514,2034.5C 1553.24,2028.97 1571.07,2006.81 1567.5,1968C 1563.72,1945.2 1550.38,1930.87 1527.5,1925C 1521.29,1924.14 1515.12,1923.3 1509,1922.5C 1475.67,1923.83 1442.33,1923.83 1409,1922.5C 1408.5,1923 1408,1923.5 1407.5,1924C 1408.34,2016.84 1408.51,2114.67 1408,2217.5C 1407.33,2218.83 1406.33,2219.83 1405,2220.5C 1381.24,2219.97 1357.4,2219.64 1333.5,2219.5C 1332.17,2100.77 1332.17,1982.1 1333.5,1863.5 Z"/></g>
<g><path style="opacity:1" fill="#00256b" d="M 1735.5,1863.5 C 1759.84,1863.33 1784.17,1863.5 1808.5,1864C 1809,1864.5 1809.5,1865 1810,1865.5C 1810.5,1962.17 1810.67,2058.83 1810.5,2155.5C 1869.83,2155.33 1929.17,2155.5 1988.5,2156C 1989.16,2166.59 1989.49,2177.26 1989.5,2188C 1989.66,2198.99 1989.16,2209.82 1988,2220.5C 1903.7,2220.63 1819.2,2220.3 1734.5,2219.5C 1734.17,2100.76 1734.5,1982.1 1735.5,1863.5 Z"/></g>
<g><path style="opacity:1" fill="#00266a" d="M 2044.5,1863.5 C 2069.41,1863.17 2094.24,1863.51 2119,1864.5C 2119.67,1982.83 2119.67,2101.17 2119,2219.5C 2117.67,2220.17 2116.33,2220.83 2115,2221.5C 2092.67,2220.17 2070.33,2220.17 2048,2221.5C 2046.67,2220.83 2045.33,2220.17 2044,2219.5C 2043.17,2100.76 2043.34,1982.1 2044.5,1863.5 Z"/></g>
<g><path style="opacity:1" fill="#00256b" d="M 2213.5,1863.5 C 2238.5,1863.33 2263.5,1863.5 2288.5,1864C 2289.33,1881.09 2289.83,1898.26 2290,1915.5C 2304.5,1898.33 2319,1881.17 2333.5,1864C 2368.87,1863.51 2404.04,1863.35 2439,1863.5C 2501.78,1871.94 2536.44,1907.61 2543,1970.5C 2543.83,2053.74 2543.66,2136.9 2542.5,2220C 2517.83,2220.67 2493.17,2220.67 2468.5,2220C 2468,2219.5 2467.5,2219 2467,2218.5C 2466.67,2135.5 2466.33,2052.5 2466,1969.5C 2460.46,1945.62 2445.8,1931.95 2422,1928.5C 2378.1,1929.64 2334.26,1929.64 2290.5,1928.5C 2289.67,2025.5 2289.17,2122.5 2289,2219.5C 2263.67,2220.83 2238.33,2220.83 2213,2219.5C 2212.17,2100.76 2212.34,1982.1 2213.5,1863.5 Z"/></g>
<g><path style="opacity:1" fill="#00256b" d="M 2640.5,1863.5 C 2733.07,1863.17 2825.57,1863.5 2918,1864.5C 2918.83,1884.41 2918.66,1904.24 2917.5,1924C 2850.6,1924.83 2783.76,1924.66 2717,1923.5C 2716.25,1924.13 2715.42,1924.63 2714.5,1925C 2715.83,1952.67 2715.83,1980.33 2714.5,2008C 2771.83,2008.33 2829.17,2008.67 2886.5,2009C 2887,2009.5 2887.5,2010 2888,2010.5C 2888.83,2031.74 2888.66,2052.91 2887.5,2074C 2829.83,2074.33 2772.17,2074.67 2714.5,2075C 2715.5,2102.76 2715.83,2130.59 2715.5,2158.5C 2782.83,2158.33 2850.17,2158.5 2917.5,2159C 2918.83,2179.1 2918.83,2199.27 2917.5,2219.5C 2824.84,2220.61 2732.17,2220.61 2639.5,2219.5C 2639.17,2100.76 2639.5,1982.1 2640.5,1863.5 Z"/></g>
<g><path style="opacity:1" fill="#00256b" d="M 3076.5,1863.5 C 3153.33,1863.17 3230.33,1863.51 3307.5,1864.5C 3308.83,1885.73 3308.83,1906.9 3307.5,1928C 3240.26,1928.17 3173.1,1928.67 3106,1929.5C 3077.27,1932.95 3064.93,1949.28 3069,1978.5C 3072.34,1997.51 3083.51,2009.01 3102.5,2013C 3108.71,2013.86 3114.88,2014.7 3121,2015.5C 3159.77,2015.63 3199.1,2015.29 3239,2014.5C 3287.3,2020.47 3313.63,2047.8 3318,2096.5C 3321.4,2124.32 3316.73,2150.66 3304,2175.5C 3287.06,2201.06 3263.23,2215.56 3232.5,2219C 3154.26,2219.83 3076.1,2219.66 2998,2218.5C 2997.17,2197.93 2997.34,2177.43 2998.5,2157C 3070.85,2156.37 3143.18,2156.37 3215.5,2157C 3231.17,2154 3240,2144.5 3242,2128.5C 3243.06,2116.72 3242.4,2105.05 3240,2093.5C 3237.32,2084.82 3231.82,2078.65 3223.5,2075C 3171.19,2073.98 3118.86,2072.98 3066.5,2072C 3029.33,2065.21 3005.83,2043.71 2996,2007.5C 2989,1975.79 2991.34,1944.79 3003,1914.5C 3013.01,1894.16 3028.51,1879.66 3049.5,1871C 3058.7,1867.63 3067.7,1865.13 3076.5,1863.5 Z"/></g>
<g><path style="opacity:1" fill="#f89f1b" d="M 0.5,2367.5 C 1148.97,2367 2297.3,2367.5 3445.5,2369C 3422.58,2404.16 3399.92,2439.5 3377.5,2475C 2251.83,2475.5 1126.17,2475.67 0.5,2475.5C 0.5,2439.5 0.5,2403.5 0.5,2367.5 Z"/></g>
</svg>
