<?xml version="1.0" encoding="UTF-8"?>
<!DOCTYPE svg PUBLIC "-//W3C//DTD SVG 1.1//EN" "http://www.w3.org/Graphics/SVG/1.1/DTD/svg11.dtd">
<svg xmlns="http://www.w3.org/2000/svg" version="1.1" width="1500px" height="943px" style="shape-rendering:geometricPrecision; text-rendering:geometricPrecision; image-rendering:optimizeQuality; fill-rule:evenodd; clip-rule:evenodd" xmlns:xlink="http://www.w3.org/1999/xlink">
<g><path style="opacity:1" fill="#c41330" d="M 1499.5,193.5 C 1499.5,374.833 1499.5,556.167 1499.5,737.5C 1000.17,737.5 500.833,737.5 1.5,737.5C 1.5,556.167 1.5,374.833 1.5,193.5C 500.833,193.5 1000.17,193.5 1499.5,193.5 Z"/></g>
<g><path style="opacity:1" fill="#f69419" d="M 273.5,218.5 C 271.076,218.192 268.743,218.526 266.5,219.5C 268.534,222.334 268.034,225.001 265,227.5C 264.667,227.167 264.333,226.833 264,226.5C 262.249,228.49 261.249,230.823 261,233.5C 260.333,228.167 259.667,228.167 259,233.5C 258.667,232.167 258.333,230.833 258,229.5C 257.727,231.101 257.227,232.601 256.5,234C 258.85,236.373 259.017,238.873 257,241.5C 256.333,238.833 255.667,238.833 255,241.5C 254.667,240.833 254.333,240.167 254,239.5C 253.5,240.667 252.667,241.5 251.5,242C 252.667,242.5 253.5,243.333 254,244.5C 254.805,242.099 255.638,242.266 256.5,245C 255.874,245.75 255.374,246.584 255,247.5C 254.174,245.595 253.007,245.261 251.5,246.5C 252.373,248.413 253.373,250.247 254.5,252C 253.373,253.753 252.373,255.587 251.5,257.5C 251.694,259.07 251.694,260.57 251.5,262C 249.47,263.896 247.803,266.063 246.5,268.5C 247.529,268.296 248.529,268.796 249.5,270C 248.809,271.067 248.309,272.234 248,273.5C 247.851,270.721 247.017,270.221 245.5,272C 246.28,273.073 246.113,274.24 245,275.5C 244.667,274.833 244.333,274.167 244,273.5C 243.333,280.167 242.667,280.167 242,273.5C 241.333,280.167 240.667,280.167 240,273.5C 239.667,275.167 239.333,276.833 239,278.5C 237.817,277.269 236.651,277.269 235.5,278.5C 238.596,281.83 239.43,285.497 238,289.5C 237.333,286.833 236.667,286.833 236,289.5C 235.692,288.692 235.192,288.025 234.5,287.5C 234.264,288.247 233.93,289.08 233.5,290C 236.014,292.057 237.347,294.39 237.5,297C 236.874,297.75 236.374,298.584 236,299.5C 234.788,295.655 232.621,294.821 229.5,297C 230.051,298.398 230.384,299.732 230.5,301C 229.833,301.333 229.167,301.667 228.5,302C 229.672,303.868 229.505,305.702 228,307.5C 227.195,305.099 226.362,305.266 225.5,308C 225.132,309.473 225.632,310.973 227,312.5C 227.805,310.099 228.638,310.266 229.5,313C 228.107,314.171 227.273,315.671 227,317.5C 226.333,313.5 225.667,313.5 225,317.5C 224.193,313.551 223.693,313.551 223.5,317.5C 221.403,317.003 219.57,316.67 218,316.5C 216.698,317.085 215.531,317.751 214.5,318.5C 210.002,317.972 205.669,316.805 201.5,315C 200.023,312.852 198.023,311.518 195.5,311C 193.215,308.701 191.215,306.201 189.5,303.5C 190.809,300.814 191.809,297.98 192.5,295C 189.761,290.175 190.261,289.675 194,293.5C 194.5,293 195,292.5 195.5,292C 194.881,290.165 194.714,287.999 195,285.5C 195.333,286.167 195.667,286.833 196,287.5C 196.883,284.898 198.383,282.731 200.5,281C 200.333,279.167 200.167,277.333 200,275.5C 201.981,279.361 203.814,279.361 205.5,275.5C 205.306,273.93 205.306,272.43 205.5,271C 204.833,270.333 204.167,269.667 203.5,269C 205.768,264.532 208.101,260.532 210.5,257C 210.656,255.33 209.99,253.663 208.5,252C 209.256,249.144 210.089,246.311 211,243.5C 212.877,245.791 212.71,247.791 210.5,249.5C 210.808,250.308 211.308,250.975 212,251.5C 213.5,250 215,248.5 216.5,247C 215.643,246.311 214.977,245.478 214.5,244.5C 214.694,242.93 214.694,241.43 214.5,240C 215.5,238.333 216.833,237 218.5,236C 218.736,233.882 218.736,231.716 218.5,229.5C 235.309,217.205 253.642,213.538 273.5,218.5 Z"/></g>
<g><path style="opacity:1" fill="#f89d16" d="M 273.5,218.5 C 289.718,223.4 298.052,234.4 298.5,251.5C 298.149,257.608 297.149,263.608 295.5,269.5C 282.542,296.149 261.542,312.482 232.5,318.5C 226.346,318.859 220.346,318.859 214.5,318.5C 215.531,317.751 216.698,317.085 218,316.5C 219.57,316.67 221.403,317.003 223.5,317.5C 223.693,313.551 224.193,313.551 225,317.5C 225.667,313.5 226.333,313.5 227,317.5C 227.273,315.671 228.107,314.171 229.5,313C 228.638,310.266 227.805,310.099 227,312.5C 225.632,310.973 225.132,309.473 225.5,308C 226.362,305.266 227.195,305.099 228,307.5C 229.505,305.702 229.672,303.868 228.5,302C 229.167,301.667 229.833,301.333 230.5,301C 230.384,299.732 230.051,298.398 229.5,297C 232.621,294.821 234.788,295.655 236,299.5C 236.374,298.584 236.874,297.75 237.5,297C 237.347,294.39 236.014,292.057 233.5,290C 233.93,289.08 234.264,288.247 234.5,287.5C 235.192,288.025 235.692,288.692 236,289.5C 236.667,286.833 237.333,286.833 238,289.5C 239.43,285.497 238.596,281.83 235.5,278.5C 236.651,277.269 237.817,277.269 239,278.5C 239.333,276.833 239.667,275.167 240,273.5C 240.667,280.167 241.333,280.167 242,273.5C 242.667,280.167 243.333,280.167 244,273.5C 244.333,274.167 244.667,274.833 245,275.5C 246.113,274.24 246.28,273.073 245.5,272C 247.017,270.221 247.851,270.721 248,273.5C 248.309,272.234 248.809,271.067 249.5,270C 248.529,268.796 247.529,268.296 246.5,268.5C 247.803,266.063 249.47,263.896 251.5,262C 251.694,260.57 251.694,259.07 251.5,257.5C 252.373,255.587 253.373,253.753 254.5,252C 253.373,250.247 252.373,248.413 251.5,246.5C 253.007,245.261 254.174,245.595 255,247.5C 255.374,246.584 255.874,245.75 256.5,245C 255.638,242.266 254.805,242.099 254,244.5C 253.5,243.333 252.667,242.5 251.5,242C 252.667,241.5 253.5,240.667 254,239.5C 254.333,240.167 254.667,240.833 255,241.5C 255.667,238.833 256.333,238.833 257,241.5C 259.017,238.873 258.85,236.373 256.5,234C 257.227,232.601 257.727,231.101 258,229.5C 258.333,230.833 258.667,232.167 259,233.5C 259.667,228.167 260.333,228.167 261,233.5C 261.249,230.823 262.249,228.49 264,226.5C 264.333,226.833 264.667,227.167 265,227.5C 268.034,225.001 268.534,222.334 266.5,219.5C 268.743,218.526 271.076,218.192 273.5,218.5 Z"/></g>
<g><path style="opacity:1" fill="#f58b1b" d="M 218.5,229.5 C 218.736,231.716 218.736,233.882 218.5,236C 216.833,237 215.5,238.333 214.5,240C 214.694,241.43 214.694,242.93 214.5,244.5C 214.977,245.478 215.643,246.311 216.5,247C 215,248.5 213.5,250 212,251.5C 211.308,250.975 210.808,250.308 210.5,249.5C 212.71,247.791 212.877,245.791 211,243.5C 210.089,246.311 209.256,249.144 208.5,252C 209.99,253.663 210.656,255.33 210.5,257C 208.101,260.532 205.768,264.532 203.5,269C 204.167,269.667 204.833,270.333 205.5,271C 205.306,272.43 205.306,273.93 205.5,275.5C 203.814,279.361 201.981,279.361 200,275.5C 200.167,277.333 200.333,279.167 200.5,281C 198.383,282.731 196.883,284.898 196,287.5C 195.667,286.833 195.333,286.167 195,285.5C 194.714,287.999 194.881,290.165 195.5,292C 195,292.5 194.5,293 194,293.5C 190.261,289.675 189.761,290.175 192.5,295C 191.809,297.98 190.809,300.814 189.5,303.5C 186.085,299.935 184.419,295.602 184.5,290.5C 184.5,285.833 184.5,281.167 184.5,276.5C 188.901,255.773 200.234,240.107 218.5,229.5 Z"/></g>
<g><path style="opacity:1" fill="#de5c20" d="M 184.5,276.5 C 184.5,281.167 184.5,285.833 184.5,290.5C 182.299,285.728 182.299,281.061 184.5,276.5 Z"/></g>
<g><path style="opacity:1" fill="#faac11" d="M 354.5,291.5 C 353.577,290.697 352.577,290.53 351.5,291C 352.128,293.609 353.128,296.275 354.5,299C 354.5,300.333 354.5,301.667 354.5,303C 353.251,304.824 352.085,304.657 351,302.5C 350.667,303.5 350.333,304.5 350,305.5C 349.55,303.481 348.717,301.648 347.5,300C 345.223,299.792 343.057,298.958 341,297.5C 340.211,300.665 338.045,303.165 334.5,305C 334.5,306.333 334.5,307.667 334.5,309C 337.064,311.276 336.73,313.276 333.5,315C 333.833,315.333 334.167,315.667 334.5,316C 332.062,319.974 332.228,324.14 335,328.5C 335.333,327.5 335.667,326.5 336,325.5C 337.353,326.685 338.52,328.019 339.5,329.5C 338.846,331.115 338.346,332.782 338,334.5C 337.667,333.167 337.333,331.833 337,330.5C 336.333,333.167 335.667,335.833 335,338.5C 334.667,337.167 334.333,335.833 334,334.5C 333.697,336.888 332.863,339.055 331.5,341C 332.094,341.464 332.761,341.631 333.5,341.5C 321.616,351.996 307.616,356.163 291.5,354C 282.428,350.831 276.762,344.664 274.5,335.5C 274.467,331.131 274.8,326.798 275.5,322.5C 276.084,319.997 276.751,317.497 277.5,315C 285.637,300.861 296.97,290.195 311.5,283C 323.5,278.333 335.5,278.333 347.5,283C 350.447,285.436 352.78,288.269 354.5,291.5 Z"/></g>
<g><path style="opacity:1" fill="#fab40e" d="M 354.5,291.5 C 357.23,298.339 357.73,305.339 356,312.5C 351.37,324.443 343.87,334.11 333.5,341.5C 332.761,341.631 332.094,341.464 331.5,341C 332.863,339.055 333.697,336.888 334,334.5C 334.333,335.833 334.667,337.167 335,338.5C 335.667,335.833 336.333,333.167 337,330.5C 337.333,331.833 337.667,333.167 338,334.5C 338.346,332.782 338.846,331.115 339.5,329.5C 338.52,328.019 337.353,326.685 336,325.5C 335.667,326.5 335.333,327.5 335,328.5C 332.228,324.14 332.062,319.974 334.5,316C 334.167,315.667 333.833,315.333 333.5,315C 336.73,313.276 337.064,311.276 334.5,309C 334.5,307.667 334.5,306.333 334.5,305C 338.045,303.165 340.211,300.665 341,297.5C 343.057,298.958 345.223,299.792 347.5,300C 348.717,301.648 349.55,303.481 350,305.5C 350.333,304.5 350.667,303.5 351,302.5C 352.085,304.657 353.251,304.824 354.5,303C 354.5,301.667 354.5,300.333 354.5,299C 353.128,296.275 352.128,293.609 351.5,291C 352.577,290.53 353.577,290.697 354.5,291.5 Z"/></g>
<g><path style="opacity:1" fill="#d6472e" d="M 214.5,318.5 C 220.346,318.859 226.346,318.859 232.5,318.5C 229.814,319.991 226.814,320.657 223.5,320.5C 220.186,320.657 217.186,319.991 214.5,318.5 Z"/></g>
<g><path style="opacity:1" fill="#e26420" d="M 275.5,322.5 C 274.8,326.798 274.467,331.131 274.5,335.5C 273.84,334.036 273.507,332.369 273.5,330.5C 273.382,327.514 274.048,324.848 275.5,322.5 Z"/></g>
<g><path style="opacity:1" fill="#fcbf0a" d="M 409.5,341.5 C 409.663,346.547 409.329,351.547 408.5,356.5C 401.772,372.226 390.105,382.226 373.5,386.5C 368.473,386.497 363.473,386.164 358.5,385.5C 355.618,384.303 353.451,382.303 352,379.5C 349.342,370.717 350.342,362.384 355,354.5C 361.386,345.44 369.552,338.607 379.5,334C 387.052,331.132 394.719,330.798 402.5,333C 405.447,335.436 407.78,338.269 409.5,341.5 Z"/></g>
<g><path style="opacity:1" fill="#f1851c" d="M 409.5,341.5 C 410.647,345.646 410.814,349.98 410,354.5C 409.722,355.416 409.222,356.082 408.5,356.5C 409.329,351.547 409.663,346.547 409.5,341.5 Z"/></g>
<g><path style="opacity:1" fill="#dd7688" d="M 835.5,353.5 C 847.655,352.505 859.989,352.171 872.5,352.5C 872.768,354.099 872.434,355.432 871.5,356.5C 871.5,355.5 871.5,354.5 871.5,353.5C 859.5,353.5 847.5,353.5 835.5,353.5 Z"/></g>
<g><path style="opacity:1" fill="#d86174" d="M 1231.5,355.5 C 1226.04,354.171 1220.21,353.504 1214,353.5C 1207.76,353.52 1201.59,353.853 1195.5,354.5C 1207.45,352.52 1219.79,351.854 1232.5,352.5C 1232.74,353.791 1232.4,354.791 1231.5,355.5 Z"/></g>
<g><path style="opacity:1" fill="#dd7788" d="M 1439.5,359.5 C 1440.15,357.565 1440.48,355.565 1440.5,353.5C 1428.42,353.188 1416.42,353.521 1404.5,354.5C 1416.45,352.52 1428.79,351.854 1441.5,352.5C 1441.66,354.527 1441.5,356.527 1441,358.5C 1440.62,359.056 1440.12,359.389 1439.5,359.5 Z"/></g>
<g><path style="opacity:1" fill="#fefafb" d="M 835.5,353.5 C 847.5,353.5 859.5,353.5 871.5,353.5C 871.5,354.5 871.5,355.5 871.5,356.5C 870.629,359.112 869.963,361.779 869.5,364.5C 867.59,367.452 866.59,370.786 866.5,374.5C 865.833,377.167 865.167,379.833 864.5,382.5C 852.5,382.5 840.5,382.5 828.5,382.5C 828.5,381.5 828.5,380.5 828.5,379.5C 830.813,370.92 833.147,362.253 835.5,353.5 Z"/></g>
<g><path style="opacity:1" fill="#fefcfc" d="M 1231.5,355.5 C 1225,379.168 1218.33,402.834 1211.5,426.5C 1210.08,428.515 1209.41,430.848 1209.5,433.5C 1197.9,472.513 1186.57,511.513 1175.5,550.5C 1174.26,552.214 1173.59,554.214 1173.5,556.5C 1162.17,591.141 1138.17,608.475 1101.5,608.5C 1064.56,608.908 1050.22,591.242 1058.5,555.5C 1070.75,554.521 1083.09,554.187 1095.5,554.5C 1092.83,559.823 1092,565.49 1093,571.5C 1094.41,574.409 1096.57,576.409 1099.5,577.5C 1101.84,579.04 1104.5,579.706 1107.5,579.5C 1118.32,579.84 1127.15,575.84 1134,567.5C 1139.89,545.936 1146.39,524.602 1153.5,503.5C 1154.74,501.786 1155.41,499.786 1155.5,497.5C 1158.01,487.789 1160.68,478.123 1163.5,468.5C 1165.07,466.898 1165.74,464.898 1165.5,462.5C 1173.17,435.132 1180.84,407.799 1188.5,380.5C 1190.07,378.898 1190.74,376.898 1190.5,374.5C 1191.76,367.729 1193.42,361.062 1195.5,354.5C 1201.59,353.853 1207.76,353.52 1214,353.5C 1220.21,353.504 1226.04,354.171 1231.5,355.5 Z"/></g>
<g><path style="opacity:1" fill="#fefdfd" d="M 1439.5,359.5 C 1436.16,371.86 1432.66,384.193 1429,396.5C 1428.5,398.473 1428.34,400.473 1428.5,402.5C 1435.83,402.5 1443.17,402.5 1450.5,402.5C 1449.88,406.93 1448.88,411.263 1447.5,415.5C 1446.08,417.515 1445.41,419.848 1445.5,422.5C 1444.83,424.5 1444.17,426.5 1443.5,428.5C 1435.1,427.866 1427.1,428.533 1419.5,430.5C 1413.06,453.224 1406.56,475.891 1400,498.5C 1399.33,501.5 1399.33,504.5 1400,507.5C 1401.15,508.636 1402.31,509.636 1403.5,510.5C 1408.73,512.006 1414.07,513.006 1419.5,513.5C 1417.42,522.044 1415.09,530.544 1412.5,539C 1401.88,540.541 1391.22,540.875 1380.5,540C 1363.25,537.995 1356.41,528.495 1360,511.5C 1368.46,484.338 1376.29,457.005 1383.5,429.5C 1377.26,429.147 1371.26,428.147 1365.5,426.5C 1367.93,418.984 1370.27,411.317 1372.5,403.5C 1379.06,402.816 1385.56,402.149 1392,401.5C 1395.34,390.967 1398.18,380.301 1400.5,369.5C 1402.07,367.898 1402.74,365.898 1402.5,363.5C 1403.58,360.598 1404.24,357.598 1404.5,354.5C 1416.42,353.521 1428.42,353.188 1440.5,353.5C 1440.48,355.565 1440.15,357.565 1439.5,359.5 Z"/></g>
<g><path style="opacity:1" fill="#e694a0" d="M 869.5,364.5 C 869.101,368.116 868.101,371.45 866.5,374.5C 866.59,370.786 867.59,367.452 869.5,364.5 Z"/></g>
<g><path style="opacity:1" fill="#e38997" d="M 1402.5,363.5 C 1402.74,365.898 1402.07,367.898 1400.5,369.5C 1400.26,367.102 1400.93,365.102 1402.5,363.5 Z"/></g>
<g><path style="opacity:1" fill="#fecd05" d="M 420.5,409.5 C 417.794,409.575 415.127,409.908 412.5,410.5C 408.587,409.55 405.92,407.217 404.5,403.5C 404.323,399.766 404.656,396.099 405.5,392.5C 410.443,381.056 418.777,373.223 430.5,369C 445.271,367.098 450.771,373.265 447,387.5C 441.943,399.391 433.11,406.724 420.5,409.5 Z"/></g>
<g><path style="opacity:1" fill="#f69319" d="M 154.5,376.5 C 168.528,374.581 180.695,378.248 191,387.5C 198.159,398.023 199.492,409.356 195,421.5C 189.106,434.392 180.606,445.226 169.5,454C 162.378,457.729 155.378,461.729 148.5,466C 139.307,468.919 129.974,471.086 120.5,472.5C 119.692,470.7 120.192,469.033 122,467.5C 122.805,469.901 123.638,469.734 124.5,467C 122.675,465.534 122.175,463.701 123,461.5C 123.805,463.901 124.638,463.734 125.5,461C 123.819,458.656 122.152,456.323 120.5,454C 120.833,453.5 121.167,453 121.5,452.5C 123.434,452.901 124.934,453.901 126,455.5C 128.134,453.422 127.968,451.588 125.5,450C 127.539,447.615 127.539,445.448 125.5,443.5C 126.333,441.833 127.167,440.167 128,438.5C 128.92,438.07 129.753,437.736 130.5,437.5C 129.376,436.086 128.376,434.586 127.5,433C 129.019,431.649 130.352,430.149 131.5,428.5C 133.134,428.968 134.3,429.968 135,431.5C 136.16,429.203 137.16,429.536 138,432.5C 138.374,431.584 138.874,430.75 139.5,430C 137.879,427.834 137.045,425.334 137,422.5C 136.333,430.5 135.667,430.5 135,422.5C 134.333,423.167 133.667,423.833 133,424.5C 131.833,423.333 130.667,422.167 129.5,421C 133.886,418.628 136.72,415.128 138,410.5C 138.333,412.167 138.667,413.833 139,415.5C 141.11,412.508 142.443,409.175 143,405.5C 143.333,406.833 143.667,408.167 144,409.5C 144.743,407.559 144.576,405.726 143.5,404C 143.833,403.833 144.167,403.667 144.5,403.5C 145.308,405.423 145.808,407.423 146,409.5C 146.241,406.711 146.908,404.044 148,401.5C 149.085,403.657 150.251,403.824 151.5,402C 151.443,399.362 151.443,396.362 151.5,393C 150.36,391.027 149.027,389.193 147.5,387.5C 147.623,385.622 147.623,383.789 147.5,382C 148.623,380.956 149.956,380.29 151.5,380C 150.007,378.844 150.174,378.01 152,377.5C 154.868,380.316 155.701,379.983 154.5,376.5 Z"/></g>
<g><path style="opacity:1" fill="#f4881c" d="M 154.5,376.5 C 155.701,379.983 154.868,380.316 152,377.5C 150.174,378.01 150.007,378.844 151.5,380C 149.956,380.29 148.623,380.956 147.5,382C 147.623,383.789 147.623,385.622 147.5,387.5C 149.027,389.193 150.36,391.027 151.5,393C 151.443,396.362 151.443,399.362 151.5,402C 150.251,403.824 149.085,403.657 148,401.5C 146.908,404.044 146.241,406.711 146,409.5C 145.808,407.423 145.308,405.423 144.5,403.5C 144.167,403.667 143.833,403.833 143.5,404C 144.576,405.726 144.743,407.559 144,409.5C 143.667,408.167 143.333,406.833 143,405.5C 142.443,409.175 141.11,412.508 139,415.5C 138.667,413.833 138.333,412.167 138,410.5C 136.72,415.128 133.886,418.628 129.5,421C 130.667,422.167 131.833,423.333 133,424.5C 133.667,423.833 134.333,423.167 135,422.5C 135.667,430.5 136.333,430.5 137,422.5C 137.045,425.334 137.879,427.834 139.5,430C 138.874,430.75 138.374,431.584 138,432.5C 137.16,429.536 136.16,429.203 135,431.5C 134.3,429.968 133.134,428.968 131.5,428.5C 130.352,430.149 129.019,431.649 127.5,433C 128.376,434.586 129.376,436.086 130.5,437.5C 129.753,437.736 128.92,438.07 128,438.5C 127.167,440.167 126.333,441.833 125.5,443.5C 127.539,445.448 127.539,447.615 125.5,450C 127.968,451.588 128.134,453.422 126,455.5C 124.934,453.901 123.434,452.901 121.5,452.5C 121.167,453 120.833,453.5 120.5,454C 122.152,456.323 123.819,458.656 125.5,461C 124.638,463.734 123.805,463.901 123,461.5C 122.175,463.701 122.675,465.534 124.5,467C 123.638,469.734 122.805,469.901 122,467.5C 120.192,469.033 119.692,470.7 120.5,472.5C 107.542,473.625 96.2091,469.958 86.5,461.5C 78.9627,450.729 77.4627,439.063 82,426.5C 97.2862,397.06 121.453,380.394 154.5,376.5 Z"/></g>
<g><path style="opacity:1" fill="#eba9b3" d="M 1190.5,374.5 C 1190.74,376.898 1190.07,378.898 1188.5,380.5C 1188.26,378.102 1188.93,376.102 1190.5,374.5 Z"/></g>
<g><path style="opacity:1" fill="#da6a7c" d="M 828.5,379.5 C 828.5,380.5 828.5,381.5 828.5,382.5C 840.5,382.5 852.5,382.5 864.5,382.5C 852.345,383.495 840.011,383.829 827.5,383.5C 827.232,381.901 827.566,380.568 828.5,379.5 Z"/></g>
<g><path style="opacity:1" fill="#f28b1b" d="M 358.5,385.5 C 363.473,386.164 368.473,386.497 373.5,386.5C 371.696,387.162 369.696,387.495 367.5,387.5C 364.186,387.657 361.186,386.991 358.5,385.5 Z"/></g>
<g><path style="opacity:1" fill="#fefbfc" d="M 644.5,420.5 C 645.092,423.127 645.425,425.794 645.5,428.5C 638.52,429.625 631.853,431.625 625.5,434.5C 622.848,434.41 620.515,435.076 618.5,436.5C 616.883,437.038 615.216,437.371 613.5,437.5C 613.59,434.848 612.924,432.515 611.5,430.5C 609.717,425.549 606.383,422.049 601.5,420C 592.25,417.612 584.416,419.779 578,426.5C 573.336,434.888 575.17,441.388 583.5,446C 594.948,451.223 605.948,457.223 616.5,464C 621.16,467.813 624.827,472.313 627.5,477.5C 627.676,480.727 628.343,483.727 629.5,486.5C 625.107,514.396 609.107,531.562 581.5,538C 570.845,539.746 560.179,539.913 549.5,538.5C 545.697,536.875 541.697,535.542 537.5,534.5C 529.303,529.47 523.47,522.47 520,513.5C 518.386,508.593 517.219,503.593 516.5,498.5C 526.909,496.286 537.242,493.953 547.5,491.5C 548.5,491.5 549.5,491.5 550.5,491.5C 550.194,494.385 550.527,497.052 551.5,499.5C 554.766,508.813 561.433,513.147 571.5,512.5C 586.37,513.132 593.203,506.132 592,491.5C 591.044,490.421 590.211,489.255 589.5,488C 577.673,480.953 565.673,474.286 553.5,468C 541.756,459.772 537.256,448.605 540,434.5C 544.666,418.49 554.499,406.657 569.5,399C 572.279,398.439 574.946,397.606 577.5,396.5C 580.067,396.279 582.401,395.612 584.5,394.5C 604.674,388.458 622.507,392.458 638,406.5C 641.519,410.537 643.685,415.204 644.5,420.5 Z"/></g>
<g><path style="opacity:1" fill="#f1c0c8" d="M 938.5,394.5 C 947.324,393.343 956.324,393.176 965.5,394C 969.465,394.108 973.132,394.941 976.5,396.5C 963.902,394.81 951.235,394.143 938.5,394.5 Z"/></g>
<g><path style="opacity:1" fill="#fefcfc" d="M 754.5,393.5 C 759.081,394.333 763.747,395.333 768.5,396.5C 774.602,398.934 778.602,403.267 780.5,409.5C 781.437,417.445 781.77,425.445 781.5,433.5C 780.928,438.269 779.928,442.936 778.5,447.5C 777.076,449.515 776.41,451.848 776.5,454.5C 771.892,472.942 766.059,490.942 759,508.5C 746.628,534.398 726.461,544.231 698.5,538C 692.231,533.532 685.897,529.365 679.5,525.5C 679.393,530.177 678.226,534.51 676,538.5C 670.478,560.228 664.645,581.895 658.5,603.5C 646.12,604.146 634.12,603.479 622.5,601.5C 636.814,550.883 651.148,500.216 665.5,449.5C 667.074,447.898 667.741,445.898 667.5,443.5C 668.167,440.5 668.833,437.5 669.5,434.5C 670.931,433.22 671.598,431.553 671.5,429.5C 672.707,424.131 674.04,418.798 675.5,413.5C 677.04,411.162 677.706,408.495 677.5,405.5C 678.367,402.557 679.367,399.557 680.5,396.5C 691.884,395.856 702.884,396.523 713.5,398.5C 713.443,399.609 713.11,400.609 712.5,401.5C 711.076,403.515 710.41,405.848 710.5,408.5C 710.281,409.675 710.614,410.675 711.5,411.5C 720.769,404.02 731.102,398.52 742.5,395C 746.44,393.985 750.44,393.485 754.5,393.5 Z"/></g>
<g><path style="opacity:1" fill="#e9a2ad" d="M 754.5,393.5 C 757.518,393.335 760.518,393.502 763.5,394C 765.653,394.099 767.319,394.933 768.5,396.5C 763.747,395.333 759.081,394.333 754.5,393.5 Z"/></g>
<g><path style="opacity:1" fill="#fefcfc" d="M 938.5,394.5 C 951.235,394.143 963.902,394.81 976.5,396.5C 991.216,401.555 998.549,411.889 998.5,427.5C 998.158,433.214 997.492,438.881 996.5,444.5C 984.12,445.146 972.12,444.479 960.5,442.5C 964.634,428.611 959.3,421.944 944.5,422.5C 933.517,421.739 925.35,426.072 920,435.5C 914.539,454.884 908.872,474.217 903,493.5C 900.238,502.703 903.404,508.536 912.5,511C 932.37,515.025 944.037,507.192 947.5,487.5C 959.42,486.521 971.42,486.188 983.5,486.5C 983.5,487.833 983.5,489.167 983.5,490.5C 976.634,513.204 961.967,528.704 939.5,537C 925.716,540.327 911.716,541.327 897.5,540C 884.769,538.401 875.102,532.234 868.5,521.5C 866.952,509.767 867.286,498.1 869.5,486.5C 869.963,483.779 870.629,481.112 871.5,478.5C 873.074,476.898 873.741,474.898 873.5,472.5C 876.496,453.499 882.996,435.833 893,419.5C 904.753,404.905 919.92,396.571 938.5,394.5 Z"/></g>
<g><path style="opacity:1" fill="#e9a0ab" d="M 1088.5,393.5 C 1081.99,394.669 1075.33,395.669 1068.5,396.5C 1074.81,394.07 1081.48,393.07 1088.5,393.5 Z"/></g>
<g><path style="opacity:1" fill="#fefcfd" d="M 1088.5,393.5 C 1092.9,393.294 1097.23,393.627 1101.5,394.5C 1104.63,395.581 1107.96,396.247 1111.5,396.5C 1130.6,403.026 1138.77,416.359 1136,436.5C 1132.94,449.184 1129.77,461.851 1126.5,474.5C 1099.83,474.167 1073.16,474.5 1046.5,475.5C 1043.47,483.244 1041.47,491.244 1040.5,499.5C 1040.56,510.389 1046.06,515.056 1057,513.5C 1070.06,513.588 1078.9,507.588 1083.5,495.5C 1089.59,494.853 1095.76,494.52 1102,494.5C 1108.21,494.504 1114.04,495.171 1119.5,496.5C 1109.09,521.394 1090.42,535.727 1063.5,539.5C 1056.85,540.139 1050.19,540.473 1043.5,540.5C 1028.5,540.334 1016.5,534.334 1007.5,522.5C 1006.2,519.573 1005.2,516.573 1004.5,513.5C 1004.33,506.465 1004.66,499.465 1005.5,492.5C 1005.96,489.779 1006.63,487.112 1007.5,484.5C 1009.07,482.898 1009.74,480.898 1009.5,478.5C 1013.26,462.963 1017.76,447.63 1023,432.5C 1032.98,414.031 1048.14,402.031 1068.5,396.5C 1075.33,395.669 1081.99,394.669 1088.5,393.5 Z"/></g>
<g><path style="opacity:1" fill="#e79aa5" d="M 1305.5,393.5 C 1299.62,394.493 1293.62,395.493 1287.5,396.5C 1287.61,395.883 1287.94,395.383 1288.5,395C 1294.11,393.869 1299.78,393.369 1305.5,393.5 Z"/></g>
<g><path style="opacity:1" fill="#fefcfd" d="M 1305.5,393.5 C 1310.21,393.353 1314.88,393.686 1319.5,394.5C 1322.27,395.657 1325.27,396.324 1328.5,396.5C 1350.27,404.348 1358.27,419.681 1352.5,442.5C 1350.79,443.635 1350.12,445.302 1350.5,447.5C 1347.62,456.372 1345.29,465.372 1343.5,474.5C 1316.83,474.167 1290.16,474.5 1263.5,475.5C 1259.44,485.078 1257.61,495.078 1258,505.5C 1259.26,509.219 1261.76,511.719 1265.5,513C 1271.68,513.819 1277.68,513.653 1283.5,512.5C 1285.9,512.741 1287.9,512.074 1289.5,510.5C 1294.89,506.711 1298.55,501.711 1300.5,495.5C 1306.59,494.853 1312.76,494.52 1319,494.5C 1325.21,494.504 1331.04,495.171 1336.5,496.5C 1329.21,514.787 1316.55,527.787 1298.5,535.5C 1295.85,535.41 1293.51,536.076 1291.5,537.5C 1275.93,541.297 1260.26,541.463 1244.5,538C 1234,533.998 1226.67,526.831 1222.5,516.5C 1221.25,509.146 1221.25,501.813 1222.5,494.5C 1224.53,486.756 1226.53,479.089 1228.5,471.5C 1229.92,469.485 1230.59,467.152 1230.5,464.5C 1233.57,447.702 1239.91,432.368 1249.5,418.5C 1252.83,415.833 1255.83,412.833 1258.5,409.5C 1265.21,405.144 1272.21,401.311 1279.5,398C 1282.17,397.433 1284.83,396.933 1287.5,396.5C 1293.62,395.493 1299.62,394.493 1305.5,393.5 Z"/></g>
<g><path style="opacity:1" fill="#e38a98" d="M 1319.5,394.5 C 1322.83,394.215 1325.83,394.882 1328.5,396.5C 1325.27,396.324 1322.27,395.657 1319.5,394.5 Z"/></g>
<g><path style="opacity:1" fill="#e79ca8" d="M 584.5,394.5 C 582.401,395.612 580.067,396.279 577.5,396.5C 579.438,394.837 581.772,394.171 584.5,394.5 Z"/></g>
<g><path style="opacity:1" fill="#d65d71" d="M 680.5,396.5 C 691.654,395.505 702.988,395.172 714.5,395.5C 714.737,396.791 714.404,397.791 713.5,398.5C 702.884,396.523 691.884,395.856 680.5,396.5 Z"/></g>
<g><path style="opacity:1" fill="#d65d71" d="M 823.5,396.5 C 835.655,395.505 847.989,395.171 860.5,395.5C 860.737,396.791 860.404,397.791 859.5,398.5C 847.88,396.521 835.88,395.854 823.5,396.5 Z"/></g>
<g><path style="opacity:1" fill="#e694a1" d="M 1101.5,394.5 C 1105.16,394.159 1108.49,394.825 1111.5,396.5C 1107.96,396.247 1104.63,395.581 1101.5,394.5 Z"/></g>
<g><path style="opacity:1" fill="#fed503" d="M 462.5,396.5 C 477.175,395.38 480.675,401.38 473,414.5C 466.226,424.14 457.06,428.14 445.5,426.5C 441.724,421.356 441.557,416.022 445,410.5C 449.675,404.263 455.508,399.596 462.5,396.5 Z"/></g>
<g><path style="opacity:1" fill="#fefcfd" d="M 823.5,396.5 C 835.88,395.854 847.88,396.521 859.5,398.5C 857.045,405.314 855.045,412.314 853.5,419.5C 852.076,421.515 851.41,423.848 851.5,426.5C 848.823,435.847 846.156,445.181 843.5,454.5C 842.076,456.515 841.41,458.848 841.5,461.5C 834.143,486.945 826.81,512.278 819.5,537.5C 807.833,537.5 796.167,537.5 784.5,537.5C 784.5,536.5 784.5,535.5 784.5,534.5C 793.388,505.371 801.722,476.038 809.5,446.5C 810.117,446.389 810.617,446.056 811,445.5C 811.945,441.506 812.778,437.506 813.5,433.5C 817.244,421.27 820.577,408.937 823.5,396.5 Z"/></g>
<g><path style="opacity:1" fill="#f59319" d="M 405.5,392.5 C 404.656,396.099 404.323,399.766 404.5,403.5C 403.359,400.36 403.192,397.027 404,393.5C 404.383,392.944 404.883,392.611 405.5,392.5 Z"/></g>
<g><path style="opacity:1" fill="#f9aa11" d="M 278.5,417.5 C 278.625,423.203 278.292,428.87 277.5,434.5C 270.778,449.39 260.111,460.556 245.5,468C 240.98,470.007 236.313,471.507 231.5,472.5C 226.344,473.127 222.011,473.127 218.5,472.5C 219.128,470.742 220.128,469.242 221.5,468C 219.114,465.293 218.948,462.46 221,459.5C 221.333,460.5 221.667,461.5 222,462.5C 222.561,460.275 223.561,458.275 225,456.5C 226.75,459.994 228.584,460.161 230.5,457C 230.248,454.953 229.248,452.953 227.5,451C 228.166,449.331 228.166,447.831 227.5,446.5C 228.588,442.614 229.421,442.614 230,446.5C 230.36,444.579 231.194,442.912 232.5,441.5C 231.349,440.269 230.183,440.269 229,441.5C 228.333,438.833 228.333,436.167 229,433.5C 229.333,435.5 229.667,437.5 230,439.5C 230.154,435.902 231.154,432.569 233,429.5C 234.044,430.623 234.71,431.956 235,433.5C 235.5,432 236,430.5 236.5,429C 235.385,427.607 234.885,426.107 235,424.5C 235.333,424.833 235.667,425.167 236,425.5C 238.238,423.396 239.238,421.062 239,418.5C 240.299,422.578 242.132,423.078 244.5,420C 243.786,418.657 244.12,417.324 245.5,416C 244.695,414.028 243.361,412.528 241.5,411.5C 241.677,416.723 240.844,416.723 239,411.5C 238.667,412.5 238.333,413.5 238,414.5C 237.035,411.725 235.535,409.392 233.5,407.5C 242.058,403.822 251.058,402.322 260.5,403C 269.076,404.752 275.076,409.585 278.5,417.5 Z"/></g>
<g><path style="opacity:1" fill="#e18291" d="M 712.5,401.5 C 712.59,404.152 711.924,406.485 710.5,408.5C 710.41,405.848 711.076,403.515 712.5,401.5 Z"/></g>
<g><path style="opacity:1" fill="#df7989" d="M 677.5,405.5 C 677.706,408.495 677.04,411.162 675.5,413.5C 675.565,410.572 676.232,407.905 677.5,405.5 Z"/></g>
<g><path style="opacity:1" fill="#e66f1f" d="M 420.5,409.5 C 418.007,411.584 415.34,411.917 412.5,410.5C 415.127,409.908 417.794,409.575 420.5,409.5 Z"/></g>
<g><path style="opacity:1" fill="#f9a115" d="M 233.5,407.5 C 235.535,409.392 237.035,411.725 238,414.5C 238.333,413.5 238.667,412.5 239,411.5C 240.844,416.723 241.677,416.723 241.5,411.5C 243.361,412.528 244.695,414.028 245.5,416C 244.12,417.324 243.786,418.657 244.5,420C 242.132,423.078 240.299,422.578 239,418.5C 239.238,421.062 238.238,423.396 236,425.5C 235.667,425.167 235.333,424.833 235,424.5C 234.885,426.107 235.385,427.607 236.5,429C 236,430.5 235.5,432 235,433.5C 234.71,431.956 234.044,430.623 233,429.5C 231.154,432.569 230.154,435.902 230,439.5C 229.667,437.5 229.333,435.5 229,433.5C 228.333,436.167 228.333,438.833 229,441.5C 230.183,440.269 231.349,440.269 232.5,441.5C 231.194,442.912 230.36,444.579 230,446.5C 229.421,442.614 228.588,442.614 227.5,446.5C 228.166,447.831 228.166,449.331 227.5,451C 229.248,452.953 230.248,454.953 230.5,457C 228.584,460.161 226.75,459.994 225,456.5C 223.561,458.275 222.561,460.275 222,462.5C 221.667,461.5 221.333,460.5 221,459.5C 218.948,462.46 219.114,465.293 221.5,468C 220.128,469.242 219.128,470.742 218.5,472.5C 222.011,473.127 226.344,473.127 231.5,472.5C 217.831,477.523 206.331,474.523 197,463.5C 194.932,455.642 195.099,447.809 197.5,440C 205.179,424.493 217.179,413.66 233.5,407.5 Z"/></g>
<g><path style="opacity:1" fill="#e89ba6" d="M 780.5,409.5 C 781.117,409.611 781.617,409.944 782,410.5C 782.822,418.345 782.656,426.011 781.5,433.5C 781.77,425.445 781.437,417.445 780.5,409.5 Z"/></g>
<g><path style="opacity:1" fill="#e18291" d="M 1447.5,415.5 C 1447.59,418.152 1446.92,420.485 1445.5,422.5C 1445.41,419.848 1446.08,417.515 1447.5,415.5 Z"/></g>
<g><path style="opacity:1" fill="#c41731" d="M 742.5,446.5 C 741.076,448.515 740.41,450.848 740.5,453.5C 739.525,456.067 738.858,458.733 738.5,461.5C 736.72,462.99 736.054,464.99 736.5,467.5C 734.308,476.912 731.475,486.246 728,495.5C 725.391,503.439 720.558,509.605 713.5,514C 702.478,517.936 693.311,515.436 686,506.5C 687.55,500.946 689.05,495.279 690.5,489.5C 691.924,487.485 692.59,485.152 692.5,482.5C 697.073,465.933 701.573,449.267 706,432.5C 706.977,429.381 708.811,426.881 711.5,425C 737.985,410.204 748.318,417.371 742.5,446.5 Z"/></g>
<g><path style="opacity:1" fill="#e9a2ae" d="M 1088.5,420.5 C 1083.47,420.503 1078.47,420.836 1073.5,421.5C 1076.38,420.087 1079.55,419.421 1083,419.5C 1085.03,419.506 1086.87,419.839 1088.5,420.5 Z"/></g>
<g><path style="opacity:1" fill="#e07f8d" d="M 853.5,419.5 C 853.59,422.152 852.924,424.485 851.5,426.5C 851.41,423.848 852.076,421.515 853.5,419.5 Z"/></g>
<g><path style="opacity:1" fill="#c51832" d="M 1313.5,447.5 C 1299.46,448.149 1285.79,447.482 1272.5,445.5C 1277.28,424.431 1290.28,416.598 1311.5,422C 1317.04,425.822 1318.87,430.989 1317,437.5C 1315.83,440.857 1314.66,444.191 1313.5,447.5 Z"/></g>
<g><path style="opacity:1" fill="#c41631" d="M 1088.5,420.5 C 1093.83,421.03 1097.49,423.696 1099.5,428.5C 1099.41,432.857 1099.08,437.19 1098.5,441.5C 1097.83,443.5 1097.17,445.5 1096.5,447.5C 1082.46,448.149 1068.79,447.482 1055.5,445.5C 1056.56,433.773 1062.56,425.773 1073.5,421.5C 1078.47,420.836 1083.47,420.503 1088.5,420.5 Z"/></g>
<g><path style="opacity:1" fill="#ee7d1e" d="M 278.5,417.5 C 279.163,419.641 279.497,421.975 279.5,424.5C 279.685,428.141 279.019,431.474 277.5,434.5C 278.292,428.87 278.625,423.203 278.5,417.5 Z"/></g>
<g><path style="opacity:1" fill="#fbbb0b" d="M 319.5,476.5 C 313.5,476.5 307.5,476.5 301.5,476.5C 297.398,474.734 294.731,471.734 293.5,467.5C 293.586,463.143 293.92,458.81 294.5,454.5C 302.936,436.588 317.103,426.588 337,424.5C 350.763,425.014 356.096,432.014 353,445.5C 346.435,460.902 335.268,471.235 319.5,476.5 Z"/></g>
<g><path style="opacity:1" fill="#e0808f" d="M 644.5,420.5 C 646.026,421.492 646.693,422.992 646.5,425C 646.486,426.385 646.152,427.551 645.5,428.5C 645.425,425.794 645.092,423.127 644.5,420.5 Z"/></g>
<g><path style="opacity:1" fill="#dd7788" d="M 1365.5,426.5 C 1371.26,428.147 1377.26,429.147 1383.5,429.5C 1377.17,429.5 1370.83,429.5 1364.5,429.5C 1364.26,428.209 1364.6,427.209 1365.5,426.5 Z"/></g>
<g><path style="opacity:1" fill="#e08191" d="M 1443.5,428.5 C 1435.6,429.195 1427.6,429.862 1419.5,430.5C 1427.1,428.533 1435.1,427.866 1443.5,428.5 Z"/></g>
<g><path style="opacity:1" fill="#e18291" d="M 1211.5,426.5 C 1211.59,429.152 1210.92,431.485 1209.5,433.5C 1209.41,430.848 1210.08,428.515 1211.5,426.5 Z"/></g>
<g><path style="opacity:1" fill="#e18594" d="M 1099.5,428.5 C 1100.16,429.964 1100.49,431.631 1100.5,433.5C 1100.62,436.486 1099.95,439.152 1098.5,441.5C 1099.08,437.19 1099.41,432.857 1099.5,428.5 Z"/></g>
<g><path style="opacity:1" fill="#e38b99" d="M 671.5,429.5 C 671.598,431.553 670.931,433.22 669.5,434.5C 669.402,432.447 670.069,430.78 671.5,429.5 Z"/></g>
<g><path style="opacity:1" fill="#e07e8d" d="M 625.5,434.5 C 623.485,435.924 621.152,436.59 618.5,436.5C 620.515,435.076 622.848,434.41 625.5,434.5 Z"/></g>
<g><path style="opacity:1" fill="#dc6f7f" d="M 611.5,430.5 C 612.924,432.515 613.59,434.848 613.5,437.5C 612.076,435.485 611.41,433.152 611.5,430.5 Z"/></g>
<g><path style="opacity:1" fill="#ecadb6" d="M 813.5,433.5 C 812.778,437.506 811.945,441.506 811,445.5C 810.617,446.056 810.117,446.389 809.5,446.5C 810.08,441.823 811.413,437.49 813.5,433.5 Z"/></g>
<g><path style="opacity:1" fill="#f1841d" d="M 403.5,441.5 C 398.819,440.238 394.152,440.238 389.5,441.5C 389.611,440.883 389.944,440.383 390.5,440C 392.333,439.833 394.167,439.667 396,439.5C 398.866,439.3 401.366,439.967 403.5,441.5 Z"/></g>
<g><path style="opacity:1" fill="#fdca06" d="M 403.5,441.5 C 404.688,442.364 405.855,443.364 407,444.5C 407.706,448.887 407.54,453.22 406.5,457.5C 404.896,458.287 404.229,459.62 404.5,461.5C 397.467,472.359 387.467,478.692 374.5,480.5C 364.571,479.663 360.738,474.33 363,464.5C 368.335,452.656 377.168,444.99 389.5,441.5C 394.152,440.238 398.819,440.238 403.5,441.5 Z"/></g>
<g><path style="opacity:1" fill="#de798a" d="M 960.5,442.5 C 972.12,444.479 984.12,445.146 996.5,444.5C 984.345,445.495 972.011,445.829 959.5,445.5C 959.263,444.209 959.596,443.209 960.5,442.5 Z"/></g>
<g><path style="opacity:1" fill="#e38997" d="M 1352.5,442.5 C 1352.2,444.403 1351.54,446.07 1350.5,447.5C 1350.12,445.302 1350.79,443.635 1352.5,442.5 Z"/></g>
<g><path style="opacity:1" fill="#cf3c55" d="M 1055.5,445.5 C 1068.79,447.482 1082.46,448.149 1096.5,447.5C 1082.68,448.496 1068.68,448.829 1054.5,448.5C 1054.26,447.209 1054.6,446.209 1055.5,445.5 Z"/></g>
<g><path style="opacity:1" fill="#cf3f57" d="M 1272.5,445.5 C 1285.79,447.482 1299.46,448.149 1313.5,447.5C 1299.68,448.496 1285.68,448.829 1271.5,448.5C 1271.26,447.209 1271.6,446.209 1272.5,445.5 Z"/></g>
<g><path style="opacity:1" fill="#eba9b3" d="M 667.5,443.5 C 667.741,445.898 667.074,447.898 665.5,449.5C 665.259,447.102 665.926,445.102 667.5,443.5 Z"/></g>
<g><path style="opacity:1" fill="#eaa5af" d="M 742.5,446.5 C 742.59,449.152 741.924,451.485 740.5,453.5C 740.41,450.848 741.076,448.515 742.5,446.5 Z"/></g>
<g><path style="opacity:1" fill="#e18291" d="M 778.5,447.5 C 778.59,450.152 777.924,452.485 776.5,454.5C 776.41,451.848 777.076,449.515 778.5,447.5 Z"/></g>
<g><path style="opacity:1" fill="#fed304" d="M 432.5,451.5 C 447.285,449.734 451.118,455.4 444,468.5C 437.317,478.428 428.15,482.761 416.5,481.5C 413.606,478.03 412.773,474.03 414,469.5C 418.077,461.255 424.244,455.255 432.5,451.5 Z"/></g>
<g><path style="opacity:1" fill="#e18291" d="M 843.5,454.5 C 843.59,457.152 842.924,459.485 841.5,461.5C 841.41,458.848 842.076,456.515 843.5,454.5 Z"/></g>
<g><path style="opacity:1" fill="#ee7f1d" d="M 406.5,457.5 C 406.34,459.153 405.674,460.486 404.5,461.5C 404.229,459.62 404.896,458.287 406.5,457.5 Z"/></g>
<g><path style="opacity:1" fill="#ef7e1e" d="M 294.5,454.5 C 293.92,458.81 293.586,463.143 293.5,467.5C 292.139,463.07 292.473,458.737 294.5,454.5 Z"/></g>
<g><path style="opacity:1" fill="#e07d8b" d="M 738.5,461.5 C 738.405,463.786 737.738,465.786 736.5,467.5C 736.054,464.99 736.72,462.99 738.5,461.5 Z"/></g>
<g><path style="opacity:1" fill="#eaa7b1" d="M 1230.5,464.5 C 1230.59,467.152 1229.92,469.485 1228.5,471.5C 1228.41,468.848 1229.08,466.515 1230.5,464.5 Z"/></g>
<g><path style="opacity:1" fill="#eba9b3" d="M 1165.5,462.5 C 1165.74,464.898 1165.07,466.898 1163.5,468.5C 1163.26,466.102 1163.93,464.102 1165.5,462.5 Z"/></g>
<g><path style="opacity:1" fill="#f39319" d="M 301.5,476.5 C 307.5,476.5 313.5,476.5 319.5,476.5C 313.519,478.951 307.519,478.951 301.5,476.5 Z"/></g>
<g><path style="opacity:1" fill="#eba9b3" d="M 873.5,472.5 C 873.741,474.898 873.074,476.898 871.5,478.5C 871.259,476.102 871.926,474.102 873.5,472.5 Z"/></g>
<g><path style="opacity:1" fill="#eaa7b1" d="M 627.5,477.5 C 629.118,480.171 629.785,483.171 629.5,486.5C 628.343,483.727 627.676,480.727 627.5,477.5 Z"/></g>
<g><path style="opacity:1" fill="#eba9b3" d="M 1009.5,478.5 C 1009.74,480.898 1009.07,482.898 1007.5,484.5C 1007.26,482.102 1007.93,480.102 1009.5,478.5 Z"/></g>
<g><path style="opacity:1" fill="#e18291" d="M 692.5,482.5 C 692.59,485.152 691.924,487.485 690.5,489.5C 690.41,486.848 691.076,484.515 692.5,482.5 Z"/></g>
<g><path style="opacity:1" fill="#d76073" d="M 983.5,490.5 C 983.5,489.167 983.5,487.833 983.5,486.5C 971.42,486.188 959.42,486.521 947.5,487.5C 959.455,485.52 971.788,484.854 984.5,485.5C 984.784,487.415 984.451,489.081 983.5,490.5 Z"/></g>
<g><path style="opacity:1" fill="#e28694" d="M 547.5,491.5 C 548.568,490.566 549.901,490.232 551.5,490.5C 551.5,493.5 551.5,496.5 551.5,499.5C 550.527,497.052 550.194,494.385 550.5,491.5C 549.5,491.5 548.5,491.5 547.5,491.5 Z"/></g>
<g><path style="opacity:1" fill="#eba9b3" d="M 869.5,486.5 C 867.286,498.1 866.952,509.767 868.5,521.5C 864.342,509.719 864.675,498.053 869.5,486.5 Z"/></g>
<g><path style="opacity:1" fill="#d65d71" d="M 1119.5,496.5 C 1114.04,495.171 1108.21,494.504 1102,494.5C 1095.76,494.52 1089.59,494.853 1083.5,495.5C 1095.45,493.52 1107.79,492.854 1120.5,493.5C 1120.74,494.791 1120.4,495.791 1119.5,496.5 Z"/></g>
<g><path style="opacity:1" fill="#d75e72" d="M 1336.5,496.5 C 1331.04,495.171 1325.21,494.504 1319,494.5C 1312.76,494.52 1306.59,494.853 1300.5,495.5C 1312.45,493.52 1324.79,492.854 1337.5,493.5C 1337.74,494.791 1337.4,495.791 1336.5,496.5 Z"/></g>
<g><path style="opacity:1" fill="#e48e9b" d="M 1155.5,497.5 C 1155.41,499.786 1154.74,501.786 1153.5,503.5C 1153.26,501.102 1153.93,499.102 1155.5,497.5 Z"/></g>
<g><path style="opacity:1" fill="#dd7282" d="M 1222.5,494.5 C 1221.25,501.813 1221.25,509.146 1222.5,516.5C 1221.78,516.082 1221.28,515.416 1221,514.5C 1220.33,508.167 1220.33,501.833 1221,495.5C 1221.38,494.944 1221.88,494.611 1222.5,494.5 Z"/></g>
<g><path style="opacity:1" fill="#fed503" d="M 418.5,503.5 C 430.716,501.209 434.882,505.876 431,517.5C 425.655,526.326 417.989,531.66 408,533.5C 404.8,533.853 402.133,532.853 400,530.5C 398.772,522.107 401.605,515.274 408.5,510C 412.009,507.97 415.342,505.804 418.5,503.5 Z"/></g>
<g><path style="opacity:1" fill="#e48f9c" d="M 1005.5,492.5 C 1004.66,499.465 1004.33,506.465 1004.5,513.5C 1003.35,507.347 1003.18,501.014 1004,494.5C 1004.28,493.584 1004.78,492.918 1005.5,492.5 Z"/></g>
<g><path style="opacity:1" fill="#fdcb06" d="M 369.5,508.5 C 381.009,506.518 386.176,511.185 385,522.5C 379.288,534.545 370.122,542.712 357.5,547C 343.651,549.487 338.484,543.987 342,530.5C 348.453,519.524 357.62,512.191 369.5,508.5 Z"/></g>
<g><path style="opacity:1" fill="#e48c98" d="M 1289.5,510.5 C 1287.9,512.074 1285.9,512.741 1283.5,512.5C 1285.21,511.262 1287.21,510.595 1289.5,510.5 Z"/></g>
<g><path style="opacity:1" fill="#e28796" d="M 1403.5,510.5 C 1409.18,510.963 1414.85,511.63 1420.5,512.5C 1420.38,513.107 1420.04,513.44 1419.5,513.5C 1414.07,513.006 1408.73,512.006 1403.5,510.5 Z"/></g>
<g><path style="opacity:1" fill="#fbbd0a" d="M 301.5,515.5 C 308.95,514.117 315.283,515.95 320.5,521C 322.218,524.689 322.718,528.522 322,532.5C 314.747,549.421 302.247,560.255 284.5,565C 279.5,565.667 274.5,565.667 269.5,565C 266.283,563.285 263.95,560.785 262.5,557.5C 262.505,553.466 262.838,549.466 263.5,545.5C 270.058,531.94 280.392,522.606 294.5,517.5C 297.152,517.59 299.485,516.924 301.5,515.5 Z"/></g>
<g><path style="opacity:1" fill="#ef801d" d="M 301.5,515.5 C 299.485,516.924 297.152,517.59 294.5,517.5C 296.515,516.076 298.848,515.41 301.5,515.5 Z"/></g>
<g><path style="opacity:1" fill="#f0821d" d="M 224.5,526.5 C 215.423,524.982 206.423,525.315 197.5,527.5C 202.271,525.115 207.437,524.115 213,524.5C 217.133,524.286 220.966,524.952 224.5,526.5 Z"/></g>
<g><path style="opacity:1" fill="#f9aa11" d="M 224.5,526.5 C 235.185,531.142 238.685,539.142 235,550.5C 223.987,572.154 206.487,585.654 182.5,591C 177.316,591.816 172.316,591.65 167.5,590.5C 167.674,587.126 168.174,583.793 169,580.5C 169.333,582.167 169.667,583.833 170,585.5C 170.667,582.167 171.333,578.833 172,575.5C 172.333,576.833 172.667,578.167 173,579.5C 173.36,577.392 174.027,575.392 175,573.5C 176.013,578.479 177.846,579.146 180.5,575.5C 178.665,574.572 178.332,573.406 179.5,572C 177.126,568.496 177.293,564.996 180,561.5C 180.333,561.833 180.667,562.167 181,562.5C 182.62,560.759 184.12,558.925 185.5,557C 183.053,555.771 182.887,554.271 185,552.5C 185.914,553.654 186.747,553.487 187.5,552C 185.203,550.737 184.37,548.903 185,546.5C 186.085,548.657 187.251,548.824 188.5,547C 187.833,546.333 187.167,545.667 186.5,545C 187.667,543.833 188.833,542.667 190,541.5C 190.419,542.672 191.085,543.672 192,544.5C 196.515,543.95 197.015,542.116 193.5,539C 195.781,537.149 195.781,535.482 193.5,534C 196.167,532.667 196.167,531.333 193.5,530C 194.056,529.617 194.389,529.117 194.5,528.5C 195.209,527.596 196.209,527.263 197.5,527.5C 206.423,525.315 215.423,524.982 224.5,526.5 Z"/></g>
<g><path style="opacity:1" fill="#f69319" d="M 102.5,533.5 C 108.176,533.334 113.843,533.501 119.5,534C 122.379,534.546 125.046,535.379 127.5,536.5C 126.127,536.343 124.793,536.51 123.5,537C 125.635,537.542 127.968,538.542 130.5,540C 128.833,541.667 127.167,543.333 125.5,545C 125.833,545.333 126.167,545.667 126.5,546C 125.5,547.667 124.5,549.333 123.5,551C 126.356,552.429 126.856,554.263 125,556.5C 123.417,554.007 121.917,554.174 120.5,557C 119.911,558.873 120.578,560.54 122.5,562C 121.167,562.667 119.833,563.333 118.5,564C 118.5,565.333 118.5,566.667 118.5,568C 120.415,570.185 120.582,572.685 119,575.5C 118.333,574.167 117.667,572.833 117,571.5C 116.993,573.619 115.826,575.453 113.5,577C 113.833,577.333 114.167,577.667 114.5,578C 111.012,580.714 109.679,584.047 110.5,588C 111.167,589 111.833,590 112.5,591C 111.736,593.069 111.236,595.236 111,597.5C 110.667,596.167 110.333,594.833 110,593.5C 108.274,597.214 106.941,600.88 106,604.5C 103.913,605.794 101.746,606.961 99.5,608C 100.793,608.49 102.127,608.657 103.5,608.5C 92.8572,614.271 81.5239,618.271 69.5,620.5C 66.6035,620.875 63.9368,620.375 61.5,619C 62.1667,618.333 62.8333,617.667 63.5,617C 62.8807,615.165 62.714,612.999 63,610.5C 64.0847,612.657 65.2513,612.824 66.5,611C 66.5795,609.093 66.2461,607.093 65.5,605C 66.7155,602.904 67.5488,603.071 68,605.5C 68.3742,604.584 68.8742,603.75 69.5,603C 68.6956,600.684 68.3623,598.184 68.5,595.5C 68.6667,595.167 68.8333,594.833 69,594.5C 69.9147,595.328 70.5814,596.328 71,597.5C 71.4541,595.229 72.1207,592.896 73,590.5C 73.9138,591.654 74.7471,591.487 75.5,590C 74.5399,588.581 73.7065,587.081 73,585.5C 72.3333,588.167 71.6667,588.167 71,585.5C 70.6667,586.167 70.3333,586.833 70,587.5C 69.5348,586.069 68.7014,584.903 67.5,584C 68.7839,583.316 69.9505,583.483 71,584.5C 71.6667,580.5 72.3333,580.5 73,584.5C 73.6667,573.833 74.3333,573.833 75,584.5C 75.1802,581.044 75.8468,577.711 77,574.5C 78.016,573.366 78.6827,573.699 79,575.5C 79.4652,574.069 80.2986,572.903 81.5,572C 80.086,567.304 80.586,566.804 83,570.5C 84.5292,569.271 85.6959,567.771 86.5,566C 85.306,561.551 85.306,556.717 86.5,551.5C 86.6667,551.167 86.8333,550.833 87,550.5C 87.9147,551.328 88.5814,552.328 89,553.5C 89.0408,551.112 89.8742,548.779 91.5,546.5C 90.6744,545.549 90.5078,544.549 91,543.5C 92.073,544.28 93.2396,544.113 94.5,543C 92.0958,542.492 91.4291,541.325 92.5,539.5C 92.0233,538.522 91.3567,537.689 90.5,537C 94.147,536.226 97.8136,535.559 101.5,535C 102.056,534.617 102.389,534.117 102.5,533.5 Z"/></g>
<g><path style="opacity:1" fill="#e48c99" d="M 537.5,534.5 C 541.697,535.542 545.697,536.875 549.5,538.5C 546.784,538.322 544.117,537.822 541.5,537C 539.68,536.8 538.347,535.966 537.5,534.5 Z"/></g>
<g><path style="opacity:1" fill="#e07e8d" d="M 1298.5,535.5 C 1296.49,536.924 1294.15,537.59 1291.5,537.5C 1293.51,536.076 1295.85,535.41 1298.5,535.5 Z"/></g>
<g><path style="opacity:1" fill="#eeb7c0" d="M 784.5,534.5 C 784.5,535.5 784.5,536.5 784.5,537.5C 796.167,537.5 807.833,537.5 819.5,537.5C 807.678,538.495 795.678,538.828 783.5,538.5C 783.232,536.901 783.566,535.568 784.5,534.5 Z"/></g>
<g><path style="opacity:1" fill="#da6778" d="M 1063.5,539.5 C 1059.97,541.048 1056.13,541.714 1052,541.5C 1048.98,541.498 1046.15,541.164 1043.5,540.5C 1050.19,540.473 1056.85,540.139 1063.5,539.5 Z"/></g>
<g><path style="opacity:1" fill="#f4891c" d="M 102.5,533.5 C 102.389,534.117 102.056,534.617 101.5,535C 97.8136,535.559 94.147,536.226 90.5,537C 91.3567,537.689 92.0233,538.522 92.5,539.5C 91.4291,541.325 92.0958,542.492 94.5,543C 93.2396,544.113 92.073,544.28 91,543.5C 90.5078,544.549 90.6744,545.549 91.5,546.5C 89.8742,548.779 89.0408,551.112 89,553.5C 88.5814,552.328 87.9147,551.328 87,550.5C 86.8333,550.833 86.6667,551.167 86.5,551.5C 85.306,556.717 85.306,561.551 86.5,566C 85.6959,567.771 84.5292,569.271 83,570.5C 80.586,566.804 80.086,567.304 81.5,572C 80.2986,572.903 79.4652,574.069 79,575.5C 78.6827,573.699 78.016,573.366 77,574.5C 75.8468,577.711 75.1802,581.044 75,584.5C 74.3333,573.833 73.6667,573.833 73,584.5C 72.3333,580.5 71.6667,580.5 71,584.5C 69.9505,583.483 68.7839,583.316 67.5,584C 68.7014,584.903 69.5348,586.069 70,587.5C 70.3333,586.833 70.6667,586.167 71,585.5C 71.6667,588.167 72.3333,588.167 73,585.5C 73.7065,587.081 74.5399,588.581 75.5,590C 74.7471,591.487 73.9138,591.654 73,590.5C 72.1207,592.896 71.4541,595.229 71,597.5C 70.5814,596.328 69.9147,595.328 69,594.5C 68.8333,594.833 68.6667,595.167 68.5,595.5C 68.3623,598.184 68.6956,600.684 69.5,603C 68.8742,603.75 68.3742,604.584 68,605.5C 67.5488,603.071 66.7155,602.904 65.5,605C 66.2461,607.093 66.5795,609.093 66.5,611C 65.2513,612.824 64.0847,612.657 63,610.5C 62.714,612.999 62.8807,615.165 63.5,617C 62.8333,617.667 62.1667,618.333 61.5,619C 63.9368,620.375 66.6035,620.875 69.5,620.5C 59.4247,622.273 49.4247,621.439 39.5,618C 26.5212,609.396 23.0212,597.896 29,583.5C 45.1603,554.818 69.6603,538.152 102.5,533.5 Z"/></g>
<g><path style="opacity:1" fill="#f8a115" d="M 194.5,528.5 C 194.389,529.117 194.056,529.617 193.5,530C 196.167,531.333 196.167,532.667 193.5,534C 195.781,535.482 195.781,537.149 193.5,539C 197.015,542.116 196.515,543.95 192,544.5C 191.085,543.672 190.419,542.672 190,541.5C 188.833,542.667 187.667,543.833 186.5,545C 187.167,545.667 187.833,546.333 188.5,547C 187.251,548.824 186.085,548.657 185,546.5C 184.37,548.903 185.203,550.737 187.5,552C 186.747,553.487 185.914,553.654 185,552.5C 182.887,554.271 183.053,555.771 185.5,557C 184.12,558.925 182.62,560.759 181,562.5C 180.667,562.167 180.333,561.833 180,561.5C 177.293,564.996 177.126,568.496 179.5,572C 178.332,573.406 178.665,574.572 180.5,575.5C 177.846,579.146 176.013,578.479 175,573.5C 174.027,575.392 173.36,577.392 173,579.5C 172.667,578.167 172.333,576.833 172,575.5C 171.333,578.833 170.667,582.167 170,585.5C 169.667,583.833 169.333,582.167 169,580.5C 168.174,583.793 167.674,587.126 167.5,590.5C 155.251,587.645 150.417,579.978 153,567.5C 154.697,561.104 157.697,555.438 162,550.5C 171.013,540.602 181.847,533.268 194.5,528.5 Z"/></g>
<g><path style="opacity:1" fill="#ef7f1d" d="M 263.5,545.5 C 262.838,549.466 262.505,553.466 262.5,557.5C 261.842,556.207 261.508,554.707 261.5,553C 261.408,550.179 262.074,547.679 263.5,545.5 Z"/></g>
<g><path style="opacity:1" fill="#d45367" d="M 1095.5,554.5 C 1083.09,554.187 1070.75,554.521 1058.5,555.5C 1064.3,554.17 1070.46,553.504 1077,553.5C 1083.34,553.5 1089.51,553.834 1095.5,554.5 Z"/></g>
<g><path style="opacity:1" fill="#e1808e" d="M 1175.5,550.5 C 1175.95,553.01 1175.28,555.01 1173.5,556.5C 1173.59,554.214 1174.26,552.214 1175.5,550.5 Z"/></g>
<g><path style="opacity:1" fill="#dc6d7d" d="M 1099.5,577.5 C 1102.43,577.565 1105.09,578.232 1107.5,579.5C 1104.5,579.706 1101.84,579.04 1099.5,577.5 Z"/></g>
<g><path style="opacity:1" fill="#f79917" d="M 127.5,536.5 C 129.942,538.226 132.609,539.726 135.5,541C 141.773,548.907 143.606,557.741 141,567.5C 132.829,585.169 120.329,598.836 103.5,608.5C 102.127,608.657 100.793,608.49 99.5,608C 101.746,606.961 103.913,605.794 106,604.5C 106.941,600.88 108.274,597.214 110,593.5C 110.333,594.833 110.667,596.167 111,597.5C 111.236,595.236 111.736,593.069 112.5,591C 111.833,590 111.167,589 110.5,588C 109.679,584.047 111.012,580.714 114.5,578C 114.167,577.667 113.833,577.333 113.5,577C 115.826,575.453 116.993,573.619 117,571.5C 117.667,572.833 118.333,574.167 119,575.5C 120.582,572.685 120.415,570.185 118.5,568C 118.5,566.667 118.5,565.333 118.5,564C 119.833,563.333 121.167,562.667 122.5,562C 120.578,560.54 119.911,558.873 120.5,557C 121.917,554.174 123.417,554.007 125,556.5C 126.856,554.263 126.356,552.429 123.5,551C 124.5,549.333 125.5,547.667 126.5,546C 126.167,545.667 125.833,545.333 125.5,545C 127.167,543.333 128.833,541.667 130.5,540C 127.968,538.542 125.635,537.542 123.5,537C 124.793,536.51 126.127,536.343 127.5,536.5 Z"/></g>
<g><path style="opacity:1" fill="#e69ba8" d="M 622.5,601.5 C 634.12,603.479 646.12,604.146 658.5,603.5C 646.345,604.495 634.011,604.829 621.5,604.5C 621.263,603.209 621.596,602.209 622.5,601.5 Z"/></g>
<g><path style="opacity:1" fill="#ebabb5" d="M 884.5,642.5 C 879.786,642.353 875.119,642.686 870.5,643.5C 872.807,641.953 875.473,641.287 878.5,641.5C 880.696,641.505 882.696,641.838 884.5,642.5 Z"/></g>
<g><path style="opacity:1" fill="#fdf5f6" d="M 884.5,642.5 C 886.176,643.183 886.843,644.517 886.5,646.5C 882.818,646.335 879.152,646.501 875.5,647C 872.814,649.546 871.814,652.713 872.5,656.5C 875.625,657.479 878.958,657.813 882.5,657.5C 882.5,658.5 882.5,659.5 882.5,660.5C 878.958,660.187 875.625,660.521 872.5,661.5C 871.507,669.984 871.174,678.651 871.5,687.5C 869.833,687.5 868.167,687.5 866.5,687.5C 866.826,678.651 866.493,669.984 865.5,661.5C 863.5,661.5 861.5,661.5 859.5,661.5C 859.5,659.833 859.5,658.167 859.5,656.5C 861.5,656.5 863.5,656.5 865.5,656.5C 864.376,650.959 866.042,646.626 870.5,643.5C 875.119,642.686 879.786,642.353 884.5,642.5 Z"/></g>
<g><path style="opacity:1" fill="#cf3e56" d="M 896.5,642.5 C 897.661,657.661 897.828,672.994 897,688.5C 895.769,689.108 894.436,689.441 893,689.5C 891.319,689.392 890.152,688.725 889.5,687.5C 889.833,687.5 890.167,687.5 890.5,687.5C 892.167,688.833 893.833,688.833 895.5,687.5C 896.496,672.676 896.829,657.676 896.5,642.5 Z"/></g>
<g><path style="opacity:1" fill="#fbeaed" d="M 1079.5,642.5 C 1079.5,643.833 1079.5,645.167 1079.5,646.5C 1075.63,646.185 1071.96,646.518 1068.5,647.5C 1066.73,650.162 1066.07,653.162 1066.5,656.5C 1069.83,656.5 1073.17,656.5 1076.5,656.5C 1076.5,658.167 1076.5,659.833 1076.5,661.5C 1073.17,661.5 1069.83,661.5 1066.5,661.5C 1066.67,670.173 1066.5,678.84 1066,687.5C 1063.96,688.423 1061.79,688.756 1059.5,688.5C 1059.5,679.167 1059.5,669.833 1059.5,660.5C 1057.5,660.5 1055.5,660.5 1053.5,660.5C 1053.5,659.5 1053.5,658.5 1053.5,657.5C 1055.26,656.539 1057.26,656.205 1059.5,656.5C 1059.89,643.022 1066.56,638.356 1079.5,642.5 Z"/></g>
<g><path style="opacity:1" fill="#efbec6" d="M 891.5,642.5 C 890.517,657.422 890.184,672.422 890.5,687.5C 890.167,687.5 889.833,687.5 889.5,687.5C 888.85,672.129 889.516,657.129 891.5,642.5 Z"/></g>
<g><path style="opacity:1" fill="#fefdfd" d="M 891.5,642.5 C 892.5,642.5 893.5,642.5 894.5,642.5C 895.483,657.422 895.816,672.422 895.5,687.5C 893.833,688.833 892.167,688.833 890.5,687.5C 890.184,672.422 890.517,657.422 891.5,642.5 Z"/></g>
<g><path style="opacity:1" fill="#efbec6" d="M 894.5,642.5 C 895.167,642.5 895.833,642.5 896.5,642.5C 896.829,657.676 896.496,672.676 895.5,687.5C 895.816,672.422 895.483,657.422 894.5,642.5 Z"/></g>
<g><path style="opacity:1" fill="#eeb7c0" d="M 942.5,642.5 C 941.659,644.379 941.325,646.379 941.5,648.5C 943.833,648.5 946.167,648.5 948.5,648.5C 946.052,649.473 943.385,649.806 940.5,649.5C 939.99,646.612 940.656,644.279 942.5,642.5 Z"/></g>
<g><path style="opacity:1" fill="#fdf7f8" d="M 942.5,642.5 C 944.5,642.5 946.5,642.5 948.5,642.5C 948.5,644.5 948.5,646.5 948.5,648.5C 946.167,648.5 943.833,648.5 941.5,648.5C 941.325,646.379 941.659,644.379 942.5,642.5 Z"/></g>
<g><path style="opacity:1" fill="#d75b6e" d="M 1079.5,642.5 C 1080.45,643.919 1080.78,645.585 1080.5,647.5C 1076.5,647.5 1072.5,647.5 1068.5,647.5C 1071.96,646.518 1075.63,646.185 1079.5,646.5C 1079.5,645.167 1079.5,643.833 1079.5,642.5 Z"/></g>
<g><path style="opacity:1" fill="#e695a2" d="M 1246.5,656.5 C 1242.34,656.332 1238.34,656.998 1234.5,658.5C 1235.35,657.034 1236.68,656.2 1238.5,656C 1241.37,655.199 1244.03,655.366 1246.5,656.5 Z"/></g>
<g><path style="opacity:1" fill="#fcf1f3" d="M 960.5,688.5 C 960.5,678.167 960.5,667.833 960.5,657.5C 962.5,657.5 964.5,657.5 966.5,657.5C 966.238,658.978 966.571,660.311 967.5,661.5C 973.34,654.228 979.506,653.894 986,660.5C 987.58,669.424 987.913,678.424 987,687.5C 984.959,688.423 982.792,688.756 980.5,688.5C 980.666,680.493 980.5,672.493 980,664.5C 976.021,660.356 972.355,660.69 969,665.5C 968.138,667.087 967.471,668.754 967,670.5C 966.501,676.491 966.334,682.491 966.5,688.5C 964.5,688.5 962.5,688.5 960.5,688.5 Z"/></g>
<g><path style="opacity:1" fill="#fcf2f4" d="M 1017.5,657.5 C 1019.5,657.5 1021.5,657.5 1023.5,657.5C 1023.79,670.216 1023.46,682.883 1022.5,695.5C 1020.96,699.537 1017.96,701.703 1013.5,702C 1008.11,702.733 1002.78,702.567 997.5,701.5C 997.077,699.219 997.744,697.552 999.5,696.5C 1000.17,696.5 1000.83,696.5 1001.5,696.5C 1001.61,697.117 1001.94,697.617 1002.5,698C 1006.03,698.808 1009.36,698.641 1012.5,697.5C 1017.12,694.411 1018.62,690.077 1017,684.5C 1015.35,685.399 1013.85,686.399 1012.5,687.5C 1008.77,687.677 1005.1,687.344 1001.5,686.5C 998.444,684.737 996.611,682.07 996,678.5C 995.107,672.328 995.773,666.328 998,660.5C 1004.41,653.911 1010.74,653.911 1017,660.5C 1017.48,659.552 1017.65,658.552 1017.5,657.5 Z"/></g>
<g><path style="opacity:1" fill="#fcf2f3" d="M 1108.5,662.5 C 1109.9,667.387 1110.57,672.387 1110.5,677.5C 1105.53,689.992 1097.19,692.825 1085.5,686C 1083.11,684.048 1081.61,681.548 1081,678.5C 1078.31,661.19 1085.48,654.023 1102.5,657C 1105,658.331 1107,660.164 1108.5,662.5 Z"/></g>
<g><path style="opacity:1" fill="#df7d8d" d="M 1133.5,656.5 C 1134.57,655.566 1135.9,655.232 1137.5,655.5C 1137.79,657.735 1137.46,659.735 1136.5,661.5C 1136.5,659.833 1136.5,658.167 1136.5,656.5C 1135.5,656.5 1134.5,656.5 1133.5,656.5 Z"/></g>
<g><path style="opacity:1" fill="#fcf1f3" d="M 1189.5,663.5 C 1189.5,665.5 1189.5,667.5 1189.5,669.5C 1182.98,669.177 1176.64,669.51 1170.5,670.5C 1169.99,676.989 1172.66,681.489 1178.5,684C 1181.89,684.752 1185.23,684.585 1188.5,683.5C 1190.25,686.833 1189.25,688.499 1185.5,688.5C 1180.39,688.569 1175.39,687.903 1170.5,686.5C 1165.07,682.804 1162.74,677.638 1163.5,671C 1163.06,664.849 1165.39,660.183 1170.5,657C 1174.83,656.333 1179.17,656.333 1183.5,657C 1186.44,658.436 1188.44,660.603 1189.5,663.5 Z"/></g>
<g><path style="opacity:1" fill="#e89ea9" d="M 1217.5,657.5 C 1219.95,656.527 1222.61,656.194 1225.5,656.5C 1225.88,658.698 1225.21,660.365 1223.5,661.5C 1223.54,660.417 1223.87,659.417 1224.5,658.5C 1222.26,657.526 1219.92,657.192 1217.5,657.5 Z"/></g>
<g><path style="opacity:1" fill="#fdf6f7" d="M 1246.5,656.5 C 1252.39,658.26 1255.39,662.26 1255.5,668.5C 1248.73,669.132 1242.07,669.799 1235.5,670.5C 1235.8,675.446 1237.8,679.446 1241.5,682.5C 1241.61,683.117 1241.94,683.617 1242.5,684C 1246.49,684.499 1250.49,684.666 1254.5,684.5C 1254.5,685.5 1254.5,686.5 1254.5,687.5C 1253.43,688.434 1252.1,688.768 1250.5,688.5C 1246.14,688.414 1241.81,688.08 1237.5,687.5C 1233.03,685.692 1230.37,682.359 1229.5,677.5C 1229.41,672.463 1229.75,667.463 1230.5,662.5C 1231.5,660.833 1232.83,659.5 1234.5,658.5C 1238.34,656.998 1242.34,656.332 1246.5,656.5 Z"/></g>
<g><path style="opacity:1" fill="#ecaeb8" d="M 1263.5,657.5 C 1265.61,656.532 1267.94,656.198 1270.5,656.5C 1270.16,658.483 1270.82,659.817 1272.5,660.5C 1272.19,661.478 1271.52,662.145 1270.5,662.5C 1269.55,660.955 1269.21,659.288 1269.5,657.5C 1267.5,657.5 1265.5,657.5 1263.5,657.5 Z"/></g>
<g><path style="opacity:1" fill="#fefcfd" d="M 1280.5,662.5 C 1277,662.294 1274.34,663.628 1272.5,666.5C 1270.79,667.635 1270.12,669.302 1270.5,671.5C 1269.51,676.64 1269.18,681.974 1269.5,687.5C 1267.83,687.5 1266.17,687.5 1264.5,687.5C 1264.83,677.652 1264.49,667.986 1263.5,658.5C 1263.5,658.167 1263.5,657.833 1263.5,657.5C 1265.5,657.5 1267.5,657.5 1269.5,657.5C 1269.21,659.288 1269.55,660.955 1270.5,662.5C 1271.52,662.145 1272.19,661.478 1272.5,660.5C 1273.31,659.272 1274.31,658.272 1275.5,657.5C 1276.93,657.579 1278.26,657.246 1279.5,656.5C 1280.47,658.396 1280.8,660.396 1280.5,662.5 Z"/></g>
<g><path style="opacity:1" fill="#fcf1f2" d="M 1341.5,687.5 C 1336.52,688.648 1331.52,688.648 1326.5,687.5C 1319.02,682.49 1316.52,675.49 1319,666.5C 1319.87,662.133 1322.37,659.133 1326.5,657.5C 1346.03,654.204 1353.2,662.204 1348,681.5C 1346.62,684.386 1344.45,686.386 1341.5,687.5 Z"/></g>
<g><path style="opacity:1" fill="#fdf5f6" d="M 1364.5,687.5 C 1362.5,687.5 1360.5,687.5 1358.5,687.5C 1358.5,677.5 1358.5,667.5 1358.5,657.5C 1360.5,657.5 1362.5,657.5 1364.5,657.5C 1364.24,658.978 1364.57,660.311 1365.5,661.5C 1371.34,654.228 1377.51,653.894 1384,660.5C 1384.5,669.827 1384.67,679.161 1384.5,688.5C 1382.5,688.5 1380.5,688.5 1378.5,688.5C 1378.67,680.493 1378.5,672.493 1378,664.5C 1376.14,661.793 1373.64,660.959 1370.5,662C 1368.3,664.234 1366.47,666.734 1365,669.5C 1364.5,675.491 1364.33,681.491 1364.5,687.5 Z"/></g>
<g><path style="opacity:1" fill="#fbebee" d="M 1409.5,683.5 C 1412.62,684.479 1415.96,684.813 1419.5,684.5C 1419.5,685.833 1419.5,687.167 1419.5,688.5C 1403.78,692.824 1395.12,686.991 1393.5,671C 1394.89,659.225 1401.39,654.392 1413,656.5C 1418.38,659.6 1420.88,664.267 1420.5,670.5C 1413.83,670.5 1407.17,670.5 1400.5,670.5C 1400.64,675.547 1402.64,679.714 1406.5,683C 1407.45,683.483 1408.45,683.649 1409.5,683.5 Z"/></g>
<g><path style="opacity:1" fill="#fceff1" d="M 917.5,701.5 C 915.712,701.785 914.045,701.452 912.5,700.5C 913.246,699.264 913.579,697.93 913.5,696.5C 915.087,692.977 915.587,689.31 915,685.5C 911.264,676.126 907.431,666.793 903.5,657.5C 905.743,656.526 908.076,656.192 910.5,656.5C 913.193,663.914 916.193,671.247 919.5,678.5C 923.064,671.93 925.564,664.93 927,657.5C 929.381,656.565 931.881,656.232 934.5,656.5C 934.66,658.199 934.494,659.866 934,661.5C 931.089,667.414 928.422,673.414 926,679.5C 923.407,686.366 921.074,693.366 919,700.5C 918.617,701.056 918.117,701.389 917.5,701.5 Z"/></g>
<g><path style="opacity:1" fill="#fbeaed" d="M 941.5,656.5 C 943.833,656.5 946.167,656.5 948.5,656.5C 948.666,666.839 948.5,677.172 948,687.5C 945.959,688.423 943.792,688.756 941.5,688.5C 941.5,677.833 941.5,667.167 941.5,656.5 Z"/></g>
<g><path style="opacity:1" fill="#e79daa" d="M 1017.5,657.5 C 1019.61,656.532 1021.94,656.198 1024.5,656.5C 1024.67,669.171 1024.5,681.838 1024,694.5C 1023.62,695.056 1023.12,695.389 1022.5,695.5C 1023.46,682.883 1023.79,670.216 1023.5,657.5C 1021.5,657.5 1019.5,657.5 1017.5,657.5 Z"/></g>
<g><path style="opacity:1" fill="#f4d0d6" d="M 1127.5,660.5 C 1126.52,664.473 1125.52,664.473 1124.5,660.5C 1124.61,659.558 1124.94,658.725 1125.5,658C 1123.87,657.506 1122.2,657.34 1120.5,657.5C 1120.5,667.5 1120.5,677.5 1120.5,687.5C 1122.17,687.5 1123.83,687.5 1125.5,687.5C 1123.74,688.461 1121.74,688.795 1119.5,688.5C 1119.5,677.833 1119.5,667.167 1119.5,656.5C 1121.83,656.5 1124.17,656.5 1126.5,656.5C 1126.23,658.099 1126.57,659.432 1127.5,660.5 Z"/></g>
<g><path style="opacity:1" fill="#fcf2f3" d="M 1133.5,656.5 C 1134.5,656.5 1135.5,656.5 1136.5,656.5C 1136.5,658.167 1136.5,659.833 1136.5,661.5C 1132.15,661.988 1128.99,664.321 1127,668.5C 1126.83,675.013 1126.33,681.347 1125.5,687.5C 1123.83,687.5 1122.17,687.5 1120.5,687.5C 1120.5,677.5 1120.5,667.5 1120.5,657.5C 1122.2,657.34 1123.87,657.506 1125.5,658C 1124.94,658.725 1124.61,659.558 1124.5,660.5C 1125.52,664.473 1126.52,664.473 1127.5,660.5C 1128.71,657.956 1130.71,656.622 1133.5,656.5 Z"/></g>
<g><path style="opacity:1" fill="#fcf1f3" d="M 1217.5,657.5 C 1219.92,657.192 1222.26,657.526 1224.5,658.5C 1223.87,659.417 1223.54,660.417 1223.5,661.5C 1220.02,670.403 1216.69,679.403 1213.5,688.5C 1211.08,688.808 1208.74,688.474 1206.5,687.5C 1202.31,677.394 1197.98,667.394 1193.5,657.5C 1196.03,656.223 1198.53,656.223 1201,657.5C 1203.81,664.465 1206.65,671.465 1209.5,678.5C 1212.17,671.476 1214.84,664.476 1217.5,657.5 Z"/></g>
<g><path style="opacity:1" fill="#e9a2ad" d="M 1280.5,662.5 C 1280.8,660.396 1280.47,658.396 1279.5,656.5C 1278.26,657.246 1276.93,657.579 1275.5,657.5C 1277.1,655.926 1279.1,655.259 1281.5,655.5C 1281.8,658.059 1281.47,660.393 1280.5,662.5 Z"/></g>
<g><path style="opacity:1" fill="#fceff1" d="M 1298.5,701.5 C 1296.5,701.5 1294.5,701.5 1292.5,701.5C 1292.5,700.5 1292.5,699.5 1292.5,698.5C 1294.69,694.422 1295.53,690.089 1295,685.5C 1290.89,676.281 1287.06,666.947 1283.5,657.5C 1286.03,656.223 1288.53,656.223 1291,657.5C 1293.17,664.521 1296,671.188 1299.5,677.5C 1302.57,670.621 1305.24,663.621 1307.5,656.5C 1310.25,656.187 1312.91,656.52 1315.5,657.5C 1309.43,672.034 1303.77,686.701 1298.5,701.5 Z"/></g>
<g><path style="opacity:1" fill="#e8a0ad" d="M 966.5,657.5 C 964.5,657.5 962.5,657.5 960.5,657.5C 960.5,667.833 960.5,678.167 960.5,688.5C 959.506,678.013 959.172,667.346 959.5,656.5C 962.059,656.198 964.393,656.532 966.5,657.5 Z"/></g>
<g><path style="opacity:1" fill="#efbdc5" d="M 1263.5,658.5 C 1264.49,667.986 1264.83,677.652 1264.5,687.5C 1266.17,687.5 1267.83,687.5 1269.5,687.5C 1269.18,681.974 1269.51,676.64 1270.5,671.5C 1270.5,677.167 1270.5,682.833 1270.5,688.5C 1268.17,688.5 1265.83,688.5 1263.5,688.5C 1263.5,678.5 1263.5,668.5 1263.5,658.5 Z"/></g>
<g><path style="opacity:1" fill="#e9a4b0" d="M 1364.5,657.5 C 1362.5,657.5 1360.5,657.5 1358.5,657.5C 1358.5,667.5 1358.5,677.5 1358.5,687.5C 1360.5,687.5 1362.5,687.5 1364.5,687.5C 1362.39,688.468 1360.06,688.802 1357.5,688.5C 1357.5,677.833 1357.5,667.167 1357.5,656.5C 1360.06,656.198 1362.39,656.532 1364.5,657.5 Z"/></g>
<g><path style="opacity:1" fill="#e9a4af" d="M 872.5,656.5 C 876.167,656.5 879.833,656.5 883.5,656.5C 883.5,658.167 883.5,659.833 883.5,661.5C 879.833,661.5 876.167,661.5 872.5,661.5C 875.625,660.521 878.958,660.187 882.5,660.5C 882.5,659.5 882.5,658.5 882.5,657.5C 878.958,657.813 875.625,657.479 872.5,656.5 Z"/></g>
<g><path style="opacity:1" fill="#efbdc5" d="M 865.5,661.5 C 866.493,669.984 866.826,678.651 866.5,687.5C 868.167,687.5 869.833,687.5 871.5,687.5C 871.174,678.651 871.507,669.984 872.5,661.5C 872.5,670.5 872.5,679.5 872.5,688.5C 870.167,688.5 867.833,688.5 865.5,688.5C 865.5,679.5 865.5,670.5 865.5,661.5 Z"/></g>
<g><path style="opacity:1" fill="#c51c34" d="M 1005.5,681.5 C 1003.85,676.676 1003.18,671.676 1003.5,666.5C 1008.34,658.287 1012.84,658.621 1017,667.5C 1018.36,673.584 1016.86,678.75 1012.5,683C 1010.5,683.667 1008.5,683.667 1006.5,683C 1005.94,682.617 1005.61,682.117 1005.5,681.5 Z"/></g>
<g><path style="opacity:1" fill="#c61f35" d="M 1092.5,660.5 C 1097.28,659.641 1100.78,661.308 1103,665.5C 1103.93,670.989 1103.43,676.323 1101.5,681.5C 1095.63,686.261 1091.13,685.261 1088,678.5C 1087.33,674.5 1087.33,670.5 1088,666.5C 1088.97,664.039 1090.47,662.039 1092.5,660.5 Z"/></g>
<g><path style="opacity:1" fill="#c72237" d="M 1182.5,663.5 C 1181.13,664.787 1179.3,665.453 1177,665.5C 1174.7,665.453 1172.87,664.787 1171.5,663.5C 1175.17,659.5 1178.83,659.5 1182.5,663.5 Z"/></g>
<g><path style="opacity:1" fill="#c8293a" d="M 1248.5,665.5 C 1244.03,666.089 1240.03,665.423 1236.5,663.5C 1239.95,659.959 1243.78,659.625 1248,662.5C 1248.48,663.448 1248.65,664.448 1248.5,665.5 Z"/></g>
<g><path style="opacity:1" fill="#c62035" d="M 1339.5,682.5 C 1336.57,683.299 1333.57,683.632 1330.5,683.5C 1328.39,682.64 1327.22,680.973 1327,678.5C 1326.33,673.833 1326.33,669.167 1327,664.5C 1330.46,660.007 1334.63,659.34 1339.5,662.5C 1343.38,669.105 1343.38,675.772 1339.5,682.5 Z"/></g>
<g><path style="opacity:1" fill="#c72538" d="M 1412.5,663.5 C 1411.13,664.787 1409.3,665.453 1407,665.5C 1404.7,665.453 1402.87,664.787 1401.5,663.5C 1403.86,660.764 1406.86,659.93 1410.5,661C 1411.38,661.708 1412.05,662.542 1412.5,663.5 Z"/></g>
<g><path style="opacity:1" fill="#db6b7d" d="M 1053.5,657.5 C 1053.5,658.5 1053.5,659.5 1053.5,660.5C 1055.5,660.5 1057.5,660.5 1059.5,660.5C 1059.5,669.833 1059.5,679.167 1059.5,688.5C 1058.51,679.682 1058.17,670.682 1058.5,661.5C 1056.5,661.5 1054.5,661.5 1052.5,661.5C 1052.23,659.901 1052.57,658.568 1053.5,657.5 Z"/></g>
<g><path style="opacity:1" fill="#d75d71" d="M 1171.5,663.5 C 1172.87,664.787 1174.7,665.453 1177,665.5C 1179.3,665.453 1181.13,664.787 1182.5,663.5C 1183.4,664.209 1183.74,665.209 1183.5,666.5C 1179.17,666.5 1174.83,666.5 1170.5,666.5C 1170.26,665.209 1170.6,664.209 1171.5,663.5 Z"/></g>
<g><path style="opacity:1" fill="#d96678" d="M 1236.5,663.5 C 1240.03,665.423 1244.03,666.089 1248.5,665.5C 1244.37,666.485 1240.03,666.818 1235.5,666.5C 1235.26,665.209 1235.6,664.209 1236.5,663.5 Z"/></g>
<g><path style="opacity:1" fill="#d86174" d="M 1401.5,663.5 C 1402.87,664.787 1404.7,665.453 1407,665.5C 1409.3,665.453 1411.13,664.787 1412.5,663.5C 1413.4,664.209 1413.74,665.209 1413.5,666.5C 1409.17,666.5 1404.83,666.5 1400.5,666.5C 1400.26,665.209 1400.6,664.209 1401.5,663.5 Z"/></g>
<g><path style="opacity:1" fill="#ecadb7" d="M 1230.5,662.5 C 1229.75,667.463 1229.41,672.463 1229.5,677.5C 1228.84,675.696 1228.5,673.696 1228.5,671.5C 1228.34,668.186 1229.01,665.186 1230.5,662.5 Z"/></g>
<g><path style="opacity:1" fill="#e5919e" d="M 1003.5,666.5 C 1003.18,671.676 1003.85,676.676 1005.5,681.5C 1003.95,680.77 1003.12,679.437 1003,677.5C 1002.19,673.642 1002.36,669.976 1003.5,666.5 Z"/></g>
<g><path style="opacity:1" fill="#e8a0ab" d="M 1108.5,662.5 C 1110.13,664.026 1110.96,666.026 1111,668.5C 1111.8,671.696 1111.64,674.696 1110.5,677.5C 1110.57,672.387 1109.9,667.387 1108.5,662.5 Z"/></g>
<g><path style="opacity:1" fill="#edb2bb" d="M 1189.5,663.5 C 1190.47,665.607 1190.8,667.941 1190.5,670.5C 1183.83,670.5 1177.17,670.5 1170.5,670.5C 1176.64,669.51 1182.98,669.177 1189.5,669.5C 1189.5,667.5 1189.5,665.5 1189.5,663.5 Z"/></g>
<g><path style="opacity:1" fill="#efbdc5" d="M 1255.5,668.5 C 1249.25,670.459 1242.58,671.126 1235.5,670.5C 1242.07,669.799 1248.73,669.132 1255.5,668.5 Z"/></g>
<g><path style="opacity:1" fill="#d55265" d="M 1272.5,666.5 C 1271.9,673.965 1271.23,681.298 1270.5,688.5C 1270.5,682.833 1270.5,677.167 1270.5,671.5C 1270.12,669.302 1270.79,667.635 1272.5,666.5 Z"/></g>
<g><path style="opacity:1" fill="#d96374" d="M 1241.5,682.5 C 1246.1,683.383 1250.77,683.717 1255.5,683.5C 1255.77,685.099 1255.43,686.432 1254.5,687.5C 1254.5,686.5 1254.5,685.5 1254.5,684.5C 1250.49,684.666 1246.49,684.499 1242.5,684C 1241.94,683.617 1241.61,683.117 1241.5,682.5 Z"/></g>
<g><path style="opacity:1" fill="#dc6f7f" d="M 1339.5,682.5 C 1339.39,683.117 1339.06,683.617 1338.5,684C 1335.63,684.801 1332.97,684.634 1330.5,683.5C 1333.57,683.632 1336.57,683.299 1339.5,682.5 Z"/></g>
<g><path style="opacity:1" fill="#d75b6d" d="M 1409.5,683.5 C 1413.17,683.5 1416.83,683.5 1420.5,683.5C 1420.78,685.415 1420.45,687.081 1419.5,688.5C 1419.5,687.167 1419.5,685.833 1419.5,684.5C 1415.96,684.813 1412.62,684.479 1409.5,683.5 Z"/></g>
<g><path style="opacity:1" fill="#e594a1" d="M 1001.5,686.5 C 1005.1,687.344 1008.77,687.677 1012.5,687.5C 1009.36,688.641 1006.03,688.808 1002.5,688C 1001.94,687.617 1001.61,687.117 1001.5,686.5 Z"/></g>
<g><path style="opacity:1" fill="#e9a2ad" d="M 1170.5,686.5 C 1175.39,687.903 1180.39,688.569 1185.5,688.5C 1182.7,689.638 1179.7,689.805 1176.5,689C 1174.03,688.963 1172.03,688.13 1170.5,686.5 Z"/></g>
<g><path style="opacity:1" fill="#e9a3af" d="M 1237.5,687.5 C 1241.81,688.08 1246.14,688.414 1250.5,688.5C 1246.07,689.861 1241.74,689.527 1237.5,687.5 Z"/></g>
<g><path style="opacity:1" fill="#e89da9" d="M 1326.5,687.5 C 1331.52,688.648 1336.52,688.648 1341.5,687.5C 1339.71,688.997 1337.54,689.664 1335,689.5C 1331.88,689.511 1329.05,688.845 1326.5,687.5 Z"/></g>
<g><path style="opacity:1" fill="#df7d8d" d="M 999.5,696.5 C 997.744,697.552 997.077,699.219 997.5,701.5C 996.539,699.735 996.205,697.735 996.5,695.5C 997.791,695.263 998.791,695.596 999.5,696.5 Z"/></g>
<g><path style="opacity:1" fill="#e79da9" d="M 1001.5,696.5 C 1005.1,697.344 1008.77,697.677 1012.5,697.5C 1009.36,698.641 1006.03,698.808 1002.5,698C 1001.94,697.617 1001.61,697.117 1001.5,696.5 Z"/></g>
<g><path style="opacity:1" fill="#e28998" d="M 913.5,696.5 C 913.579,697.93 913.246,699.264 912.5,700.5C 914.045,701.452 915.712,701.785 917.5,701.5C 915.735,702.461 913.735,702.795 911.5,702.5C 911.259,700.102 911.926,698.102 913.5,696.5 Z"/></g>
<g><path style="opacity:1" fill="#de7788" d="M 1292.5,698.5 C 1292.5,699.5 1292.5,700.5 1292.5,701.5C 1294.5,701.5 1296.5,701.5 1298.5,701.5C 1296.39,702.468 1294.06,702.802 1291.5,702.5C 1291.23,700.901 1291.57,699.568 1292.5,698.5 Z"/></g>
</svg>
