<?xml version="1.0" encoding="UTF-8"?>
<!DOCTYPE svg PUBLIC "-//W3C//DTD SVG 1.1//EN" "http://www.w3.org/Graphics/SVG/1.1/DTD/svg11.dtd">
<svg xmlns="http://www.w3.org/2000/svg" version="1.1" width="1200px" height="755px" style="shape-rendering:geometricPrecision; text-rendering:geometricPrecision; image-rendering:optimizeQuality; fill-rule:evenodd; clip-rule:evenodd" xmlns:xlink="http://www.w3.org/1999/xlink">
<g><path style="opacity:0.992" fill="#e60005" d="M -0.5,516.5 C -0.5,515.833 -0.5,515.167 -0.5,514.5C 73.8258,422.833 147.826,330.833 221.5,238.5C 271.829,237.5 322.162,237.167 372.5,237.5C 349.991,330.537 327.324,423.537 304.5,516.5C 202.833,516.5 101.167,516.5 -0.5,516.5 Z"/></g>
<g><path style="opacity:0.981" fill="#e60005" d="M 968.5,282.5 C 987.036,282.234 1004.04,287.067 1019.5,297C 1031.29,307.078 1037.29,319.912 1037.5,335.5C 1022.5,335.5 1007.5,335.5 992.5,335.5C 990.933,321.275 982.933,314.608 968.5,315.5C 958.97,314.847 951.804,318.513 947,326.5C 945.158,337.328 949.325,344.828 959.5,349C 977.601,354.145 995.268,360.478 1012.5,368C 1034.59,380.349 1043.76,399.182 1040,424.5C 1036.58,441.91 1027.08,454.744 1011.5,463C 993.623,470.887 974.956,473.554 955.5,471C 936.945,469.636 921.112,462.469 908,449.5C 900.474,439.089 896.641,427.423 896.5,414.5C 911.515,414.167 926.515,414.501 941.5,415.5C 942.96,427.126 949.293,434.626 960.5,438C 967.567,438.839 974.567,438.506 981.5,437C 991.075,432.016 994.908,424.183 993,413.5C 991.939,410.438 990.106,407.938 987.5,406C 981.779,402.473 975.779,399.473 969.5,397C 952.212,393.017 935.878,386.684 920.5,378C 902.746,363.405 896.579,344.905 902,322.5C 907.977,303.858 920.477,292.025 939.5,287C 949.18,284.607 958.847,283.107 968.5,282.5 Z"/></g>
<g><path style="opacity:0.982" fill="#e60005" d="M 459.5,283.5 C 480.943,280.962 501.277,284.462 520.5,294C 535.306,303.776 542.64,317.609 542.5,335.5C 527.83,335.667 513.163,335.5 498.5,335C 497.032,324.867 491.365,318.534 481.5,316C 470.235,313.353 460.735,316.186 453,324.5C 449.968,332.612 451.801,339.445 458.5,345C 474.777,352.315 491.444,358.649 508.5,364C 541.179,378.201 552.012,402.368 541,436.5C 530.012,457.597 512.512,469.097 488.5,471C 470.355,473.009 452.688,471.009 435.5,465C 413.085,455.68 402.085,438.846 402.5,414.5C 417.17,414.333 431.837,414.5 446.5,415C 447.856,427.352 454.522,435.019 466.5,438C 474.857,439.375 482.857,438.375 490.5,435C 501.871,425.22 502.205,415.22 491.5,405C 476.143,397.434 460.143,391.434 443.5,387C 410.059,373.278 398.892,349.111 410,314.5C 418.654,299.567 431.488,290.067 448.5,286C 452.347,285.367 456.014,284.533 459.5,283.5 Z"/></g>
<g><path style="opacity:0.981" fill="#e60005" d="M 1199.5,404.5 C 1199.5,411.167 1199.5,417.833 1199.5,424.5C 1194.24,447.266 1180.24,461.766 1157.5,468C 1131.8,474.198 1106.8,472.198 1082.5,462C 1064.07,451.652 1055.07,435.819 1055.5,414.5C 1070.5,414.5 1085.5,414.5 1100.5,414.5C 1102.76,430.76 1112.09,438.76 1128.5,438.5C 1148.28,437.915 1155.44,428.248 1150,409.5C 1143.7,403.931 1136.54,399.765 1128.5,397C 1112.58,392.856 1097.25,387.189 1082.5,380C 1063.5,366.7 1056,348.534 1060,325.5C 1064.04,308.456 1074.21,296.623 1090.5,290C 1097.57,287.065 1104.9,285.065 1112.5,284C 1129.11,282.394 1145.44,283.728 1161.5,288C 1184.01,295.845 1195.67,311.678 1196.5,335.5C 1181.5,335.5 1166.5,335.5 1151.5,335.5C 1151.09,324.928 1145.76,318.428 1135.5,316C 1126.63,314.473 1118.3,315.807 1110.5,320C 1101.76,332.718 1104.42,342.385 1118.5,349C 1135,354.208 1151.34,359.875 1167.5,366C 1184.99,373.313 1195.66,386.146 1199.5,404.5 Z"/></g>
<g><path style="opacity:0.983" fill="#e60005" d="M 548.5,287.5 C 563.833,287.5 579.167,287.5 594.5,287.5C 603.854,326.248 613.52,364.915 623.5,403.5C 635.438,365.018 646.771,326.351 657.5,287.5C 672.848,287.167 688.181,287.501 703.5,288.5C 714.897,327.191 726.397,365.858 738,404.5C 747.66,365.526 757.16,326.526 766.5,287.5C 782.17,287.333 797.837,287.5 813.5,288C 796.928,347.116 780.428,406.283 764,465.5C 755.909,466.159 747.742,466.493 739.5,466.5C 731.1,466.484 722.934,465.817 715,464.5C 703.667,425.167 692.333,385.833 681,346.5C 668.932,386.037 657.266,425.704 646,465.5C 629.897,466.824 613.731,466.824 597.5,465.5C 580.54,406.323 564.206,346.99 548.5,287.5 Z"/></g>
<g><path style="opacity:0.985" fill="#e60005" d="M 830.5,287.5 C 846.167,287.5 861.833,287.5 877.5,287.5C 877.5,347.167 877.5,406.833 877.5,466.5C 861.833,466.5 846.167,466.5 830.5,466.5C 830.5,406.833 830.5,347.167 830.5,287.5 Z"/></g>
<g><path style="opacity:1" fill="#fffefe" d="M 205.5,291.5 C 222.833,291.5 240.167,291.5 257.5,291.5C 257.5,311.5 257.5,331.5 257.5,351.5C 277.5,351.5 297.5,351.5 317.5,351.5C 317.5,368.5 317.5,385.5 317.5,402.5C 297.5,402.5 277.5,402.5 257.5,402.5C 257.5,422.5 257.5,442.5 257.5,462.5C 240.167,462.5 222.833,462.5 205.5,462.5C 205.5,442.5 205.5,422.5 205.5,402.5C 185.5,402.5 165.5,402.5 145.5,402.5C 145.5,385.5 145.5,368.5 145.5,351.5C 165.5,351.5 185.5,351.5 205.5,351.5C 205.5,331.5 205.5,311.5 205.5,291.5 Z"/></g>
</svg>
