<?xml version="1.0" encoding="UTF-8"?>
<!DOCTYPE svg PUBLIC "-//W3C//DTD SVG 1.1//EN" "http://www.w3.org/Graphics/SVG/1.1/DTD/svg11.dtd">
<svg xmlns="http://www.w3.org/2000/svg" version="1.1" width="3840px" height="2160px" style="shape-rendering:geometricPrecision; text-rendering:geometricPrecision; image-rendering:optimizeQuality; fill-rule:evenodd; clip-rule:evenodd" xmlns:xlink="http://www.w3.org/1999/xlink">
<g><path style="opacity:0.977" fill="#b89452" d="M 552.5,590.5 C 575.593,607.41 597.093,626.41 617,647.5C 644.032,676.76 668.532,707.927 690.5,741C 734.992,733.001 779.825,728.168 825,726.5C 836.172,726.905 849.006,727.405 863.5,728C 875.233,728.794 886.9,730.127 898.5,732C 907.654,802.229 904.321,871.895 888.5,941C 947.425,978.409 998.758,1024.58 1042.5,1079.5C 1022.8,1104.7 1001.13,1128.2 977.5,1150C 949.58,1174.61 920.247,1197.28 889.5,1218C 904.861,1286.62 908.194,1355.79 899.5,1425.5C 892.059,1427.35 884.559,1428.68 877,1429.5C 876.667,1429.17 876.333,1428.83 876,1428.5C 853.175,1431.44 830.175,1431.77 807,1429.5C 789.979,1429.37 772.812,1428.21 755.5,1426C 733.756,1422.78 712.089,1419.45 690.5,1416C 659.366,1463.16 623.033,1506.16 581.5,1545C 572.6,1553.07 563.267,1560.57 553.5,1567.5C 514.508,1537.34 480.008,1502.67 450,1463.5C 438.155,1447.13 426.321,1430.8 414.5,1414.5C 379.861,1422.41 344.694,1427.07 309,1428.5C 276.002,1430.96 241.836,1430.13 206.5,1426C 204.746,1419.64 203.579,1413.14 203,1406.5C 197.882,1342.88 202.382,1279.72 216.5,1217C 168.744,1185.49 125.244,1148.66 86,1106.5C 78.056,1097.9 70.8893,1088.73 64.5,1079C 70.719,1069.4 77.5524,1060.24 85,1051.5C 124.032,1008.62 167.865,971.789 216.5,941C 203.398,882.614 198.565,823.781 202,764.5C 202.349,753.708 203.682,743.041 206,732.5C 276.033,723.465 345.533,726.799 414.5,742.5C 452.338,684.651 498.338,633.984 552.5,590.5 Z M 551.5,620.5 C 553.932,621.75 556.266,623.25 558.5,625C 599.09,661.087 634.424,701.587 664.5,746.5C 655.261,749.642 645.928,752.142 636.5,754C 612.668,718.823 584.501,687.323 552,659.5C 519.775,687.223 491.608,718.556 467.5,753.5C 467,753.833 466.5,754.167 466,754.5C 456.943,751.611 447.776,749.111 438.5,747C 470.984,700.342 508.65,658.175 551.5,620.5 Z M 550.5,692.5 C 551.552,692.351 552.552,692.517 553.5,693C 575.746,714.567 595.746,737.9 613.5,763C 592.594,770.205 572.094,778.372 552,787.5C 531.681,778.925 511.181,770.759 490.5,763C 508.46,737.864 528.46,714.364 550.5,692.5 Z M 252.5,750.5 C 385.091,746.98 507.091,781.147 618.5,853C 625.68,858.091 632.68,863.424 639.5,869C 661.123,866.399 682.956,864.566 705,863.5C 716.833,863.732 729.499,864.399 743,865.5C 743.333,865.167 743.667,864.833 744,864.5C 749.821,865.389 755.654,866.389 761.5,867.5C 767.055,908.287 766.388,948.787 759.5,989C 768.244,1000.48 776.244,1012.48 783.5,1025C 779.939,1034.95 775.439,1044.45 770,1053.5C 757.781,1033.95 744.781,1014.95 731,996.5C 734.634,976.35 737.301,956.017 739,935.5C 739.667,923.167 739.667,910.833 739,898.5C 738.879,896.273 738.046,894.44 736.5,893C 702.196,890.029 668.696,892.863 636,901.5C 523.748,814.033 396.248,774.033 253.5,781.5C 247.652,864.47 260.652,944.637 292.5,1022C 286.289,1031.59 280.456,1041.42 275,1051.5C 233.756,955.97 217.59,856.303 226.5,752.5C 235.347,752.241 244.014,751.574 252.5,750.5 Z M 810.5,750.5 C 832.438,750.236 854.771,750.902 877.5,752.5C 886.855,882.397 859.355,1003.73 795,1116.5C 784.743,1133.35 773.743,1149.68 762,1165.5C 763.44,1181.45 764.774,1197.45 766,1213.5C 767.131,1238.92 766.298,1264.25 763.5,1289.5C 722.854,1294.15 682.354,1293.15 642,1286.5C 630.608,1294.89 618.941,1302.89 607,1310.5C 597.536,1307.02 588.369,1302.85 579.5,1298C 578.167,1297.33 578.167,1296.67 579.5,1296C 598.659,1284.5 616.993,1271.84 634.5,1258C 653.324,1261.41 672.324,1264.08 691.5,1266C 707.585,1267.65 723.252,1267.49 738.5,1265.5C 739.585,1250.19 739.751,1234.85 739,1219.5C 737.191,1199.99 734.524,1180.66 731,1161.5C 818.086,1050.06 857.919,923.392 850.5,781.5C 841.645,780.301 832.812,779.301 824,778.5C 750.766,778.274 679.433,791.94 610,819.5C 600.1,813.799 590.267,807.966 580.5,802C 654.323,770.535 730.99,753.369 810.5,750.5 Z M 280.5,801.5 C 339.733,801.158 399.733,810.992 460.5,831C 463.618,832.147 466.618,833.48 469.5,835C 465.89,836.944 462.557,839.277 459.5,842C 457.966,842.923 456.299,843.423 454.5,843.5C 416.581,838.115 378.915,837.615 341.5,842C 334.007,842.969 326.674,844.469 319.5,846.5C 311.011,891.354 310.344,936.354 317.5,981.5C 315.299,986.538 312.466,991.204 309,995.5C 286.311,933.18 275.478,868.847 276.5,802.5C 278.099,802.768 279.432,802.434 280.5,801.5 Z M 793.5,803.5 C 804.833,803.5 816.167,803.5 827.5,803.5C 829.101,869.985 818.268,934.319 795,996.5C 791.454,991.906 788.288,987.073 785.5,982C 790.528,948.313 791.695,914.48 789,880.5C 788.293,868.954 786.459,857.621 783.5,846.5C 760.579,841.952 737.412,839.952 714,840.5C 692.738,840.36 671.571,841.693 650.5,844.5C 648.833,844.333 647.167,844.167 645.5,844C 642.113,840.947 638.447,838.28 634.5,836C 686.045,817.392 739.045,806.558 793.5,803.5 Z M 495.5,845.5 C 498.647,845.737 501.647,846.57 504.5,848C 511.956,851.481 519.289,855.148 526.5,859C 505.845,871.327 486.012,884.827 467,899.5C 433.311,891.182 399.144,888.515 364.5,891.5C 362.026,910.126 361.86,928.793 364,947.5C 366.019,963.938 368.352,980.271 371,996.5C 302.981,1083.62 263.315,1182.62 252,1293.5C 248.888,1320.85 248.888,1348.18 252,1375.5C 255,1376.17 258,1376.83 261,1377.5C 340.042,1380.65 417.375,1367.32 493,1337.5C 502.237,1343.05 511.737,1348.22 521.5,1353C 464.698,1379.43 405.031,1395.77 342.5,1402C 303.861,1405.93 265.194,1406.43 226.5,1403.5C 216.826,1269.87 245.992,1145.54 314,1030.5C 323.11,1016.39 332.61,1002.56 342.5,989C 335.662,949.006 334.829,908.839 340,868.5C 340.772,867.151 341.939,866.318 343.5,866C 373.986,862.907 404.153,862.741 434,865.5C 434.333,865.167 434.667,864.833 435,864.5C 443.616,865.911 452.283,867.245 461,868.5C 472.635,860.94 484.135,853.273 495.5,845.5 Z M 551.5,872.5 C 579.295,887.239 605.295,904.739 629.5,925C 644.769,922.348 660.102,919.681 675.5,917C 688.768,915.106 702.102,914.273 715.5,914.5C 715.851,943.363 712.184,971.696 704.5,999.5C 724.647,1024.15 742.647,1050.32 758.5,1078C 742.647,1105.68 724.647,1131.85 704.5,1156.5C 712.14,1184.65 716.14,1213.32 716.5,1242.5C 687.785,1242.33 659.619,1238.33 632,1230.5C 607.369,1250.12 581.369,1267.79 554,1283.5C 526.866,1268.35 501.366,1250.85 477.5,1231C 461.567,1233.65 445.567,1236.32 429.5,1239C 416.524,1240.25 403.524,1241.09 390.5,1241.5C 389.931,1212.28 393.598,1183.62 401.5,1155.5C 391.064,1144.65 381.564,1132.98 373,1120.5C 363.574,1106.9 354.74,1092.9 346.5,1078.5C 362.072,1051.17 379.739,1025.34 399.5,1001C 391.862,973.008 388.196,944.508 388.5,915.5C 417.535,915.387 446.035,919.053 474,926.5C 498.748,906.882 524.581,888.882 551.5,872.5 Z M 218.5,966.5 C 219.496,966.414 220.329,966.748 221,967.5C 223.58,976.218 225.913,984.885 228,993.5C 197.645,1014.5 169.645,1038.5 144,1065.5C 140.31,1069.69 136.81,1074.02 133.5,1078.5C 161.142,1111.32 192.642,1139.65 228,1163.5C 226.753,1173.15 224.253,1182.49 220.5,1191.5C 181.251,1164.77 145.085,1134.11 112,1099.5C 105.602,1092.94 99.7683,1085.94 94.5,1078.5C 120.424,1047.08 149.424,1018.91 181.5,994C 194.016,984.97 206.35,975.803 218.5,966.5 Z M 882.5,966.5 C 930.339,997.656 973.006,1034.99 1010.5,1078.5C 973.042,1121.64 930.709,1158.97 883.5,1190.5C 882.914,1190.29 882.414,1189.96 882,1189.5C 879.801,1181.07 877.301,1172.74 874.5,1164.5C 901.936,1145.24 927.769,1123.91 952,1100.5C 958.731,1093.61 964.897,1086.27 970.5,1078.5C 950.909,1054.74 928.909,1033.57 904.5,1015C 894.5,1007.67 884.5,1000.33 874.5,993C 877.401,984.229 880.067,975.396 882.5,966.5 Z M 236.5,1017.5 C 244.083,1038.18 252.416,1058.68 261.5,1079C 252.083,1098.67 243.916,1118.83 237,1139.5C 211.219,1121.83 187.385,1101.66 165.5,1079C 187.29,1056.14 210.957,1035.64 236.5,1017.5 Z M 866.5,1017.5 C 892.732,1034.89 916.732,1055.06 938.5,1078C 916.576,1101.46 892.243,1121.62 865.5,1138.5C 863.506,1130.69 861.006,1123.02 858,1115.5C 852.688,1103.04 847.521,1090.54 842.5,1078C 851.475,1058.22 859.475,1038.05 866.5,1017.5 Z M 331.5,1102.5 C 339.804,1114.32 347.97,1126.32 356,1138.5C 361.333,1145.17 366.667,1151.83 372,1158.5C 368.242,1180.88 365.408,1203.38 363.5,1226C 363.413,1232.63 363.579,1239.46 364,1246.5C 364.177,1252.14 365.01,1257.64 366.5,1263C 387.949,1265.82 410.282,1265.49 433.5,1262C 445.565,1259.98 457.565,1257.98 469.5,1256C 569.09,1332.36 681.423,1372.86 806.5,1377.5C 815.904,1377.27 826.571,1376.77 838.5,1376C 842.186,1375.44 845.853,1374.77 849.5,1374C 852.857,1351.95 853.357,1329.79 851,1307.5C 846.66,1247.47 833.493,1189.47 811.5,1133.5C 816.311,1123.88 821.645,1114.55 827.5,1105.5C 853.665,1166.16 869.832,1229.49 876,1295.5C 879.339,1332.22 879.839,1368.22 877.5,1403.5C 736.338,1413.88 606.338,1381.04 487.5,1305C 479.655,1299.58 471.989,1293.91 464.5,1288C 449.885,1289.47 435.219,1290.81 420.5,1292C 398.48,1292.82 376.48,1292.49 354.5,1291C 349.708,1290.78 345.041,1289.95 340.5,1288.5C 334.808,1247.87 335.475,1207.37 342.5,1167C 334.109,1155.61 326.109,1143.94 318.5,1132C 322.974,1122.22 327.308,1112.39 331.5,1102.5 Z M 308.5,1160.5 C 312.126,1164.91 315.126,1169.75 317.5,1175C 312.096,1210.72 311.262,1246.56 315,1282.5C 315.924,1292.21 317.757,1301.71 320.5,1311C 365.75,1318.97 411.084,1319.47 456.5,1312.5C 461.3,1315.41 465.967,1318.57 470.5,1322C 407.447,1344.51 342.447,1355.34 275.5,1354.5C 275.349,1287.88 286.349,1223.22 308.5,1160.5 Z M 794.5,1160.5 C 800.384,1173.98 805.217,1187.98 809,1202.5C 822.565,1252.45 829.065,1303.12 828.5,1354.5C 761.941,1354.95 697.274,1344.12 634.5,1322C 638.929,1318.7 643.429,1315.54 648,1312.5C 689.599,1318.91 731.432,1319.07 773.5,1313C 776.98,1312.7 780.313,1311.87 783.5,1310.5C 792.073,1265.48 792.74,1220.31 785.5,1175C 788.39,1170.04 791.39,1165.21 794.5,1160.5 Z M 549.5,1368.5 C 570.359,1377.09 591.359,1385.43 612.5,1393.5C 595.154,1419.5 574.987,1443.16 552,1464.5C 529.327,1442.5 508.827,1418.66 490.5,1393C 510.923,1386.45 530.59,1378.28 549.5,1368.5 Z M 464.5,1401.5 C 466.903,1401.39 468.736,1402.39 470,1404.5C 493.474,1439.3 521.141,1470.3 553,1497.5C 568.301,1484.53 582.634,1470.53 596,1455.5C 610.598,1438.24 624.431,1420.41 637.5,1402C 646.827,1404 656.161,1406.33 665.5,1409C 633.448,1456.23 595.782,1498.73 552.5,1536.5C 508.533,1499.38 470.866,1456.88 439.5,1409C 448.031,1406.76 456.365,1404.26 464.5,1401.5 Z"/></g>
<g><path style="opacity:0.953" fill="#521e4b" d="M 3312.5,747.5 C 3326.78,746.477 3338.11,751.643 3346.5,763C 3342.39,766.141 3337.89,768.641 3333,770.5C 3324.89,762.437 3315.39,760.604 3304.5,765C 3301.64,768.681 3300.81,772.848 3302,777.5C 3302.83,778.333 3303.67,779.167 3304.5,780C 3313.92,781.203 3323.26,782.87 3332.5,785C 3345.7,790.896 3350.87,801.062 3348,815.5C 3345.09,826.743 3337.92,833.576 3326.5,836C 3317.33,837.136 3308.33,836.469 3299.5,834C 3292.88,831.043 3287.88,826.376 3284.5,820C 3288.41,817.128 3292.57,814.628 3297,812.5C 3305.12,821.708 3314.95,824.208 3326.5,820C 3332.65,814.112 3332.99,807.945 3327.5,801.5C 3317.04,799.349 3306.37,796.849 3295.5,794C 3286.34,787.552 3282.84,778.718 3285,767.5C 3286.92,759.913 3291.42,754.413 3298.5,751C 3303.22,749.506 3307.89,748.339 3312.5,747.5 Z"/></g>
<g><path style="opacity:0.959" fill="#511d4b" d="M 2957.5,834.5 C 2951.83,834.5 2946.17,834.5 2940.5,834.5C 2937.97,827.567 2935.63,820.567 2933.5,813.5C 2924.16,813.334 2914.83,813.5 2905.5,814C 2902.73,820.806 2900.07,827.639 2897.5,834.5C 2891.73,835.113 2886.4,834.446 2881.5,832.5C 2891.17,805.144 2900.84,777.811 2910.5,750.5C 2916.5,750.5 2922.5,750.5 2928.5,750.5C 2937.8,778.581 2947.8,806.414 2958.5,834C 2958.27,834.399 2957.94,834.565 2957.5,834.5 Z M 2928.5,799.5 C 2922.31,799.823 2916.31,799.49 2910.5,798.5C 2913.23,789.809 2916.06,781.142 2919,772.5C 2921.88,781.642 2925.05,790.642 2928.5,799.5 Z"/></g>
<g><path style="opacity:0.94" fill="#501d4b" d="M 3019.5,834.5 C 3014.17,834.5 3008.83,834.5 3003.5,834.5C 3003.83,810.994 3003.5,787.661 3002.5,764.5C 2994.83,765.822 2986.83,765.822 2978.5,764.5C 2978.5,759.833 2978.5,755.167 2978.5,750.5C 3000.08,750.173 3021.58,750.506 3043,751.5C 3043.67,755.5 3043.67,759.5 3043,763.5C 3042,764.167 3041,764.833 3040,765.5C 3033.57,765.357 3027.07,765.023 3020.5,764.5C 3019.5,787.824 3019.17,811.157 3019.5,834.5 Z"/></g>
<g><path style="opacity:0.959" fill="#511d4b" d="M 3116.5,834.5 C 3110.83,834.5 3105.17,834.5 3099.5,834.5C 3096.89,828.033 3094.22,821.2 3091.5,814C 3082.17,813.5 3072.84,813.334 3063.5,813.5C 3061.37,820.567 3059.03,827.567 3056.5,834.5C 3050.83,834.5 3045.17,834.5 3039.5,834.5C 3049.03,807.087 3058.86,779.754 3069,752.5C 3071.72,751.224 3074.72,750.558 3078,750.5C 3081.09,750.522 3084.09,750.855 3087,751.5C 3097.33,779.001 3107.17,806.668 3116.5,834.5 Z M 3086.5,798.5 C 3080.69,799.49 3074.69,799.823 3068.5,799.5C 3072.15,790.37 3075.32,781.036 3078,771.5C 3081.15,780.437 3083.98,789.437 3086.5,798.5 Z"/></g>
<g><path style="opacity:0.942" fill="#53204b" d="M 3113.5,750.5 C 3135.17,750.5 3156.83,750.5 3178.5,750.5C 3178.83,755.214 3178.49,759.88 3177.5,764.5C 3176.91,764.709 3176.41,765.043 3176,765.5C 3169.1,765.368 3161.94,765.035 3154.5,764.5C 3154.67,787.836 3154.5,811.169 3154,834.5C 3148.59,835.473 3143.09,835.807 3137.5,835.5C 3137.67,811.831 3137.5,788.164 3137,764.5C 3130,764.833 3123,765.167 3116,765.5C 3115.59,765.043 3115.09,764.709 3114.5,764.5C 3113.51,759.88 3113.17,755.214 3113.5,750.5 Z"/></g>
<g><path style="opacity:0.959" fill="#511d4b" d="M 3251.5,834.5 C 3245.83,834.5 3240.17,834.5 3234.5,834.5C 3232.08,827.904 3229.75,820.904 3227.5,813.5C 3218.16,813.334 3208.83,813.5 3199.5,814C 3196.74,820.795 3194.07,827.628 3191.5,834.5C 3185.73,835.113 3180.4,834.446 3175.5,832.5C 3185.18,805.146 3194.85,777.813 3204.5,750.5C 3210.5,750.5 3216.5,750.5 3222.5,750.5C 3232.2,778.44 3242.2,806.273 3252.5,834C 3252.27,834.399 3251.94,834.565 3251.5,834.5 Z M 3212.5,772.5 C 3213.59,772.62 3214.25,773.287 3214.5,774.5C 3216.68,782.861 3219.34,791.027 3222.5,799C 3216.17,799.667 3209.83,799.667 3203.5,799C 3207.51,790.493 3210.51,781.66 3212.5,772.5 Z"/></g>
<g><path style="opacity:0.953" fill="#521f4b" d="M 3360.5,750.5 C 3365.83,750.5 3371.17,750.5 3376.5,750.5C 3376.67,778.502 3376.5,806.502 3376,834.5C 3370.67,835.833 3365.33,835.833 3360,834.5C 3359.18,806.428 3359.34,778.428 3360.5,750.5 Z"/></g>
<g><path style="opacity:0.958" fill="#511d4b" d="M 3468.5,834.5 C 3462.83,834.5 3457.17,834.5 3451.5,834.5C 3448.93,827.639 3446.27,820.806 3443.5,814C 3434.17,813.5 3424.84,813.334 3415.5,813.5C 3413.76,820.715 3411.43,827.715 3408.5,834.5C 3402.83,834.5 3397.17,834.5 3391.5,834.5C 3401.43,807.217 3411.26,779.884 3421,752.5C 3423.72,751.224 3426.72,750.558 3430,750.5C 3432.83,750.667 3435.67,750.833 3438.5,751C 3449.3,778.926 3459.3,806.76 3468.5,834.5 Z M 3429.5,772.5 C 3432.46,781.047 3435.46,789.714 3438.5,798.5C 3432.5,799.833 3426.5,799.833 3420.5,798.5C 3423.51,789.794 3426.51,781.127 3429.5,772.5 Z"/></g>
<g><path style="opacity:0.948" fill="#511d4b" d="M 3606.5,834.5 C 3601.5,834.5 3596.5,834.5 3591.5,834.5C 3589.88,832.879 3588.72,830.879 3588,828.5C 3578.42,802.234 3569.25,776.234 3560.5,750.5C 3566.43,750.192 3572.26,750.525 3578,751.5C 3584.7,771.91 3591.7,792.243 3599,812.5C 3605.94,791.857 3612.77,771.19 3619.5,750.5C 3625.51,750.334 3631.51,750.501 3637.5,751C 3627.08,778.911 3616.74,806.745 3606.5,834.5 Z"/></g>
<g><path style="opacity:0.954" fill="#521e4b" d="M 3530.5,750.5 C 3535.15,750.793 3539.81,751.126 3544.5,751.5C 3545.92,774.525 3545.76,797.525 3544,820.5C 3540.93,830.886 3533.93,836.553 3523,837.5C 3515.76,837.314 3508.92,835.48 3502.5,832C 3501.64,831.311 3500.98,830.478 3500.5,829.5C 3502.35,825.779 3504.69,822.446 3507.5,819.5C 3513.03,823.608 3519.03,824.441 3525.5,822C 3526.13,821.25 3526.63,820.416 3527,819.5C 3527.81,796.335 3528.98,773.335 3530.5,750.5 Z"/></g>
<g><path style="opacity:0.2" fill="#865d4f" d="M 3002.5,764.5 C 3003.5,787.661 3003.83,810.994 3003.5,834.5C 3008.83,834.5 3014.17,834.5 3019.5,834.5C 3014.02,835.489 3008.36,835.822 3002.5,835.5C 3002.5,811.833 3002.5,788.167 3002.5,764.5 Z"/></g>
<g><path style="opacity:0.094" fill="#83594f" d="M 2910.5,798.5 C 2916.31,799.49 2922.31,799.823 2928.5,799.5C 2922.32,800.817 2915.99,800.817 2909.5,799.5C 2909.62,798.893 2909.96,798.56 2910.5,798.5 Z"/></g>
<g><path style="opacity:0.2" fill="#855b4f" d="M 3086.5,798.5 C 3087.04,798.56 3087.38,798.893 3087.5,799.5C 3081.01,800.817 3074.68,800.817 3068.5,799.5C 3074.69,799.823 3080.69,799.49 3086.5,798.5 Z"/></g>
<g><path style="opacity:0.094" fill="#794d4e" d="M 2881.5,832.5 C 2886.4,834.446 2891.73,835.113 2897.5,834.5C 2897.22,835.289 2896.72,835.956 2896,836.5C 2890.98,835.534 2885.81,835.201 2880.5,835.5C 2880.26,834.209 2880.6,833.209 2881.5,832.5 Z"/></g>
<g><path style="opacity:0.094" fill="#794e4e" d="M 2940.5,834.5 C 2946.17,834.5 2951.83,834.5 2957.5,834.5C 2956.12,835.234 2954.62,835.901 2953,836.5C 2950,835.167 2947,835.167 2944,836.5C 2942.7,835.915 2941.53,835.249 2940.5,834.5 Z"/></g>
<g><path style="opacity:0.094" fill="#794e4e" d="M 3039.5,834.5 C 3045.17,834.5 3050.83,834.5 3056.5,834.5C 3055.47,835.249 3054.3,835.915 3053,836.5C 3050,835.167 3047,835.167 3044,836.5C 3042.38,835.901 3040.88,835.234 3039.5,834.5 Z"/></g>
<g><path style="opacity:0.094" fill="#794e4e" d="M 3099.5,834.5 C 3105.17,834.5 3110.83,834.5 3116.5,834.5C 3115.47,835.249 3114.3,835.915 3113,836.5C 3110,835.167 3107,835.167 3104,836.5C 3102.38,835.901 3100.88,835.234 3099.5,834.5 Z"/></g>
<g><path style="opacity:0.094" fill="#784d4e" d="M 3175.5,832.5 C 3180.4,834.446 3185.73,835.113 3191.5,834.5C 3190.47,835.249 3189.3,835.915 3188,836.5C 3183.73,836.288 3179.23,835.955 3174.5,835.5C 3174.26,834.209 3174.6,833.209 3175.5,832.5 Z"/></g>
<g><path style="opacity:0.094" fill="#794e4e" d="M 3234.5,834.5 C 3240.17,834.5 3245.83,834.5 3251.5,834.5C 3250.47,835.249 3249.3,835.915 3248,836.5C 3245,835.167 3242,835.167 3239,836.5C 3237.38,835.901 3235.88,835.234 3234.5,834.5 Z"/></g>
<g><path style="opacity:0.094" fill="#784d4e" d="M 3391.5,834.5 C 3397.17,834.5 3402.83,834.5 3408.5,834.5C 3407.83,835.267 3406.99,835.934 3406,836.5C 3403,835.167 3400,835.167 3397,836.5C 3395.05,835.891 3393.22,835.224 3391.5,834.5 Z"/></g>
<g><path style="opacity:0.094" fill="#794e4e" d="M 3451.5,834.5 C 3457.17,834.5 3462.83,834.5 3468.5,834.5C 3467.47,835.249 3466.3,835.915 3465,836.5C 3462,835.167 3459,835.167 3456,836.5C 3454.38,835.901 3452.88,835.234 3451.5,834.5 Z"/></g>
<g><path style="opacity:0.094" fill="#794d4e" d="M 3591.5,834.5 C 3596.5,834.5 3601.5,834.5 3606.5,834.5C 3605.83,835.267 3604.99,835.934 3604,836.5C 3601,835.167 3598,835.167 3595,836.5C 3593.7,835.915 3592.53,835.249 3591.5,834.5 Z"/></g>
<g><path style="opacity:0.985" fill="#501d4b" d="M 2238.5,846.5 C 2242.66,846.338 2245.82,848.338 2248,852.5C 2248.5,877.831 2248.67,903.164 2248.5,928.5C 2295.17,928.333 2341.83,928.5 2388.5,929C 2391.2,929.69 2393.36,931.19 2395,933.5C 2397.28,941.978 2396.95,950.311 2394,958.5C 2392.07,960.102 2389.9,961.269 2387.5,962C 2341.17,962.5 2294.83,962.667 2248.5,962.5C 2248.33,1024.17 2248.5,1085.83 2249,1147.5C 2252.03,1174.86 2266.86,1192.03 2293.5,1199C 2318.4,1204.32 2343.07,1203.32 2367.5,1196C 2375.26,1193.62 2382.93,1190.95 2390.5,1188C 2394.51,1186.9 2398.01,1187.74 2401,1190.5C 2403.7,1198.27 2406.2,1206.11 2408.5,1214C 2407.48,1218.71 2404.48,1221.37 2399.5,1222C 2357.19,1235.05 2314.52,1238.05 2271.5,1231C 2215.63,1219.47 2185.79,1185.3 2182,1128.5C 2181.33,1043.17 2181.33,957.833 2182,872.5C 2183.06,867.102 2186.23,863.602 2191.5,862C 2207.45,857.339 2223.12,852.173 2238.5,846.5 Z"/></g>
<g><path style="opacity:0.984" fill="#501c4b" d="M 1919.5,912.5 C 1971.15,909.464 2021.82,916.631 2071.5,934C 2081.84,937.921 2091.67,942.754 2101,948.5C 2101.99,950.447 2102.32,952.447 2102,954.5C 2098.29,962.199 2093.79,969.366 2088.5,976C 2086.97,976.923 2085.3,977.423 2083.5,977.5C 2067.42,970.127 2051.08,963.294 2034.5,957C 1993.36,943.886 1951.36,939.886 1908.5,945C 1892.32,946.946 1877.65,952.612 1864.5,962C 1847.15,977.914 1842.98,996.748 1852,1018.5C 1856.69,1024.53 1862.53,1029.03 1869.5,1032C 1878.24,1035.35 1887.24,1037.68 1896.5,1039C 1932.85,1041.72 1969.19,1044.72 2005.5,1048C 2035.31,1050.19 2062.31,1059.86 2086.5,1077C 2112.62,1100.62 2120.78,1129.45 2111,1163.5C 2102.81,1183.36 2089.31,1198.53 2070.5,1209C 2045.31,1221.84 2018.65,1229.84 1990.5,1233C 1916.31,1242.68 1845.31,1231.35 1777.5,1199C 1770.5,1195.72 1768.67,1190.56 1772,1183.5C 1775.4,1178.42 1778.4,1173.09 1781,1167.5C 1782.74,1165.26 1784.91,1163.59 1787.5,1162.5C 1826.33,1184.72 1867.99,1198.89 1912.5,1205C 1939.57,1208.11 1966.24,1206.11 1992.5,1199C 2011.54,1193.41 2026.71,1182.58 2038,1166.5C 2049.66,1135.65 2039.82,1115.48 2008.5,1106C 2000.64,1103.7 1992.64,1102.03 1984.5,1101C 1961.18,1098.51 1938.02,1097.01 1915,1096.5C 1883.12,1095.06 1852.62,1088.56 1823.5,1077C 1786.8,1057.13 1772.96,1027.29 1782,987.5C 1789.64,965.19 1803.81,948.357 1824.5,937C 1854.55,922.163 1886.21,913.996 1919.5,912.5 Z"/></g>
<g><path style="opacity:0.983" fill="#501c4b" d="M 2615.5,916.5 C 2653.21,914.517 2689.87,919.684 2725.5,932C 2771.33,949.442 2797.16,982.608 2803,1031.5C 2803.67,1094.17 2803.67,1156.83 2803,1219.5C 2802.33,1223.5 2800.17,1226.33 2796.5,1228C 2778.83,1228.67 2761.17,1228.67 2743.5,1228C 2740.67,1226.5 2738.5,1224.33 2737,1221.5C 2736.67,1211.83 2736.33,1202.17 2736,1192.5C 2713.16,1209.7 2688,1221.37 2660.5,1227.5C 2617.43,1237.74 2574.27,1238.74 2531,1230.5C 2505,1226.33 2482.67,1214.66 2464,1195.5C 2445.28,1169.35 2441.28,1141.02 2452,1110.5C 2462.62,1088.55 2479.12,1072.72 2501.5,1063C 2527.48,1052.26 2554.31,1046.43 2582,1045.5C 2610.95,1043.1 2640.78,1043.93 2671.5,1048C 2693.35,1051.31 2715.01,1055.47 2736.5,1060.5C 2746.53,1005.99 2725.53,970.491 2673.5,954C 2636.33,945.925 2599.67,946.925 2563.5,957C 2535.38,965.649 2508.54,977.149 2483,991.5C 2481.02,991.01 2479.35,990.01 2478,988.5C 2474.14,980.755 2470.97,972.755 2468.5,964.5C 2468.49,962.407 2469.15,960.574 2470.5,959C 2515.73,933.977 2564.06,919.811 2615.5,916.5 Z M 2626.5,1072.5 C 2630.43,1073.97 2634.43,1074.3 2638.5,1073.5C 2671.68,1074.72 2704.35,1079.38 2736.5,1087.5C 2736.83,1112.74 2736.49,1137.91 2735.5,1163C 2679.68,1200.83 2619.02,1211.83 2553.5,1196C 2525.65,1182.25 2513.82,1159.75 2518,1128.5C 2520.27,1114.89 2526.77,1103.72 2537.5,1095C 2554.4,1083.71 2572.73,1077.04 2592.5,1075C 2603.84,1074.06 2615.18,1073.22 2626.5,1072.5 Z"/></g>
<g><path style="opacity:0.982" fill="#501c4b" d="M 3448.5,916.5 C 3485.11,914.759 3520.77,919.592 3555.5,931C 3606.14,950.329 3632.97,987.162 3636,1041.5C 3636.99,1102.25 3636.66,1162.92 3635,1223.5C 3633.46,1225.38 3631.62,1226.88 3629.5,1228C 3611.83,1228.67 3594.17,1228.67 3576.5,1228C 3573.67,1226.5 3571.5,1224.33 3570,1221.5C 3569.67,1211.83 3569.33,1202.17 3569,1192.5C 3536.04,1216.16 3499.2,1229.99 3458.5,1234C 3422.52,1238.09 3386.85,1236.09 3351.5,1228C 3330.96,1222.44 3313.13,1212.27 3298,1197.5C 3279.97,1174.36 3274.3,1148.36 3281,1119.5C 3288.99,1095.17 3304.49,1077.34 3327.5,1066C 3351.34,1055.12 3376.34,1048.46 3402.5,1046C 3435.65,1042.77 3469.32,1043.43 3503.5,1048C 3525.35,1051.31 3547.01,1055.47 3568.5,1060.5C 3568.67,1046.16 3568.5,1031.83 3568,1017.5C 3563.69,990.853 3549.19,972.019 3524.5,961C 3496.88,949.963 3468.22,945.963 3438.5,949C 3396.86,953.888 3357.53,967.555 3320.5,990C 3316.91,992.247 3313.74,991.747 3311,988.5C 3307.12,980.92 3303.96,973.087 3301.5,965C 3301.4,961.196 3303.07,958.529 3306.5,957C 3351.04,933.203 3398.37,919.703 3448.5,916.5 Z M 3458.5,1072.5 C 3462.43,1073.97 3466.43,1074.3 3470.5,1073.5C 3503.4,1074.68 3536.07,1079.34 3568.5,1087.5C 3568.83,1112.74 3568.49,1137.91 3567.5,1163C 3511.68,1200.83 3451.01,1211.83 3385.5,1196C 3361.36,1184.74 3349.36,1165.74 3349.5,1139C 3349.26,1121.7 3355.59,1107.37 3368.5,1096C 3385.65,1084.27 3404.65,1077.27 3425.5,1075C 3436.51,1074.02 3447.51,1073.19 3458.5,1072.5 Z"/></g>
<g><path style="opacity:0.901" fill="#53204b" d="M 3728.5,917.5 C 3759.41,919.911 3773.58,936.578 3771,967.5C 3762.69,991.906 3745.85,1001.74 3720.5,997C 3702.44,990.086 3692.44,976.92 3690.5,957.5C 3693.39,934.614 3706.06,921.281 3728.5,917.5 Z M 3728.5,925.5 C 3755.92,927.751 3767.42,942.418 3763,969.5C 3753.79,988.688 3738.95,995.188 3718.5,989C 3703.11,980.712 3696.94,967.879 3700,950.5C 3704.11,935.883 3713.61,927.55 3728.5,925.5 Z M 3720.5,943.5 C 3725.18,943.334 3729.85,943.501 3734.5,944C 3739.83,947.667 3739.83,951.333 3734.5,955C 3729.85,955.499 3725.18,955.666 3720.5,955.5C 3720.5,951.5 3720.5,947.5 3720.5,943.5 Z"/></g>
<g><path style="opacity:0.986" fill="#501c4b" d="M 1163.5,922.5 C 1185.17,922.333 1206.84,922.5 1228.5,923C 1232.07,923.7 1234.9,925.533 1237,928.5C 1283.48,1013.46 1330.48,1098.12 1378,1182.5C 1426.77,1097.95 1474.77,1012.95 1522,927.5C 1523.54,925.622 1525.38,924.122 1527.5,923C 1540.17,922.333 1552.83,922.333 1565.5,923C 1567.45,924.393 1568.78,926.226 1569.5,928.5C 1568.28,931.947 1566.78,935.28 1565,938.5C 1510.75,1032.67 1456.75,1127 1403,1221.5C 1401.04,1224.14 1398.54,1225.97 1395.5,1227C 1374.5,1227.67 1353.5,1227.67 1332.5,1227C 1328.93,1226.3 1326.1,1224.47 1324,1221.5C 1268.8,1125.03 1213.8,1029.03 1159,933.5C 1157.39,928.301 1158.89,924.634 1163.5,922.5 Z"/></g>
<g><path style="opacity:0.995" fill="#511d4b" d="M 1636.5,922.5 C 1654.5,922.333 1672.5,922.5 1690.5,923C 1694.77,924.27 1697.27,927.104 1698,931.5C 1698.67,1027.17 1698.67,1122.83 1698,1218.5C 1696.9,1223.26 1694.07,1226.43 1689.5,1228C 1672.17,1228.67 1654.83,1228.67 1637.5,1228C 1632.45,1226.28 1629.62,1222.78 1629,1217.5C 1628.33,1122.5 1628.33,1027.5 1629,932.5C 1629.47,927.542 1631.97,924.209 1636.5,922.5 Z"/></g>
<g><path style="opacity:0.988" fill="#501d4b" d="M 2887.5,922.5 C 2967.83,922.333 3048.17,922.5 3128.5,923C 3153.57,926.039 3175.9,935.373 3195.5,951C 3220.97,976.025 3230.14,1006.19 3223,1041.5C 3216.88,1065.94 3203.38,1085.11 3182.5,1099C 3158.56,1113 3133.56,1120.67 3107.5,1122C 3147.22,1152.72 3187.22,1183.05 3227.5,1213C 3232.13,1217.13 3232.47,1221.47 3228.5,1226C 3202.12,1226.96 3175.78,1226.63 3149.5,1225C 3145.67,1223.25 3142.01,1221.25 3138.5,1219C 3100.12,1186.96 3061.46,1155.29 3022.5,1124C 2997.97,1124.43 2973.3,1124.27 2948.5,1123.5C 2948.67,1156.17 2948.5,1188.84 2948,1221.5C 2946.75,1224.38 2944.58,1226.21 2941.5,1227C 2924.93,1227.17 2908.43,1227.67 2892,1228.5C 2886.64,1227.14 2883.31,1223.81 2882,1218.5C 2881.33,1122.83 2881.33,1027.17 2882,931.5C 2882.79,927.871 2884.63,924.871 2887.5,922.5 Z M 2949.5,954.5 C 2999.5,954.333 3049.5,954.5 3099.5,955C 3127.25,959.748 3144.42,975.914 3151,1003.5C 3155.27,1024.96 3152.27,1045.29 3142,1064.5C 3130.48,1081.02 3114.65,1090.52 3094.5,1093C 3046.17,1093.5 2997.83,1093.67 2949.5,1093.5C 2949.5,1047.17 2949.5,1000.83 2949.5,954.5 Z"/></g>
<g><path style="opacity:0.897" fill="#531f4b" d="M 3713.5,936.5 C 3721.87,936.316 3730.21,936.816 3738.5,938C 3747.45,942.198 3749.62,948.698 3745,957.5C 3742.75,959.377 3740.25,960.877 3737.5,962C 3743.16,967.128 3747.49,973.294 3750.5,980.5C 3747.22,981.657 3743.88,981.824 3740.5,981C 3738.04,975.238 3734.71,970.071 3730.5,965.5C 3727.34,963.973 3724.01,963.307 3720.5,963.5C 3720.5,969.833 3720.5,976.167 3720.5,982.5C 3718.17,982.5 3715.83,982.5 3713.5,982.5C 3713.5,967.167 3713.5,951.833 3713.5,936.5 Z M 3720.5,943.5 C 3720.5,947.5 3720.5,951.5 3720.5,955.5C 3725.18,955.666 3729.85,955.499 3734.5,955C 3739.83,951.333 3739.83,947.667 3734.5,944C 3729.85,943.501 3725.18,943.334 3720.5,943.5 Z"/></g>
<g><path style="opacity:0.094" fill="#7c504e" d="M 2626.5,1072.5 C 2630.7,1072.18 2634.7,1072.52 2638.5,1073.5C 2634.43,1074.3 2630.43,1073.97 2626.5,1072.5 Z"/></g>
<g><path style="opacity:0.094" fill="#7c504e" d="M 3458.5,1072.5 C 3462.7,1072.18 3466.7,1072.52 3470.5,1073.5C 3466.43,1074.3 3462.43,1073.97 3458.5,1072.5 Z"/></g>
<g><path style="opacity:0.925" fill="#501c4b" d="M 1337.5,1357.5 C 1342.83,1357.5 1348.17,1357.5 1353.5,1357.5C 1353.33,1401.83 1353.5,1446.17 1354,1490.5C 1354.51,1493 1356.01,1494.5 1358.5,1495C 1362.15,1495.5 1365.82,1495.67 1369.5,1495.5C 1369.5,1500.5 1369.5,1505.5 1369.5,1510.5C 1361.93,1510.64 1354.6,1509.47 1347.5,1507C 1342.5,1503.86 1339.34,1499.36 1338,1493.5C 1337.5,1448.17 1337.33,1402.83 1337.5,1357.5 Z"/></g>
<g><path style="opacity:0.939" fill="#501c4b" d="M 1616.5,1357.5 C 1621.83,1357.5 1627.17,1357.5 1632.5,1357.5C 1632.17,1376.84 1632.5,1396.18 1633.5,1415.5C 1639.66,1410.58 1646.33,1406.42 1653.5,1403C 1669.05,1397.85 1682.88,1400.68 1695,1411.5C 1699.31,1417.46 1701.98,1424.13 1703,1431.5C 1703.5,1456.83 1703.67,1482.16 1703.5,1507.5C 1697.65,1507.95 1691.98,1507.45 1686.5,1506C 1687.39,1484.84 1687.72,1463.51 1687.5,1442C 1687.15,1418.65 1675.82,1410.31 1653.5,1417C 1646.24,1420.88 1639.41,1425.38 1633,1430.5C 1632.5,1456.5 1632.33,1482.5 1632.5,1508.5C 1627.17,1508.5 1621.83,1508.5 1616.5,1508.5C 1616.5,1458.17 1616.5,1407.83 1616.5,1357.5 Z"/></g>
<g><path style="opacity:0.958" fill="#511e4b" d="M 2337.5,1357.5 C 2348.91,1357.16 2360.24,1357.82 2371.5,1359.5C 2370.37,1364.47 2369.37,1369.47 2368.5,1374.5C 2361.75,1373.01 2354.92,1372.01 2348,1371.5C 2338.2,1371.07 2331.53,1375.4 2328,1384.5C 2326.74,1390.77 2326.24,1397.1 2326.5,1403.5C 2338.17,1403.5 2349.83,1403.5 2361.5,1403.5C 2361.15,1408.22 2360.49,1412.88 2359.5,1417.5C 2348.5,1417.5 2337.5,1417.5 2326.5,1417.5C 2326.5,1447.5 2326.5,1477.5 2326.5,1507.5C 2321.17,1507.5 2315.83,1507.5 2310.5,1507.5C 2310.33,1480.16 2310.5,1452.83 2311,1425.5C 2311.29,1423.11 2311.79,1420.78 2312.5,1418.5C 2306.86,1417.67 2301.2,1417.17 2295.5,1417C 2294.37,1412.92 2294.2,1408.75 2295,1404.5C 2300.42,1403.69 2305.92,1403.19 2311.5,1403C 2308.46,1387.8 2312.46,1374.8 2323.5,1364C 2328.02,1361.34 2332.69,1359.17 2337.5,1357.5 Z"/></g>
<g><path style="opacity:0.93" fill="#501c4b" d="M 2594.5,1357.5 C 2599.83,1357.5 2605.17,1357.5 2610.5,1357.5C 2610.33,1401.83 2610.5,1446.17 2611,1490.5C 2611.83,1492.67 2613.33,1494.17 2615.5,1495C 2619.15,1495.5 2622.82,1495.67 2626.5,1495.5C 2626.5,1500.5 2626.5,1505.5 2626.5,1510.5C 2613.28,1512.27 2602.95,1507.77 2595.5,1497C 2595.83,1496.67 2596.17,1496.33 2596.5,1496C 2595.75,1494.27 2595.25,1492.43 2595,1490.5C 2594.5,1446.17 2594.33,1401.83 2594.5,1357.5 Z"/></g>
<g><path style="opacity:0.961" fill="#521f4b" d="M 2641.5,1357.5 C 2647.43,1357.19 2653.26,1357.53 2659,1358.5C 2659.67,1364.17 2659.67,1369.83 2659,1375.5C 2658.33,1376.17 2657.67,1376.83 2657,1377.5C 2653,1377.5 2649,1377.5 2645,1377.5C 2643.67,1376.83 2642.33,1376.17 2641,1375.5C 2640.25,1369.45 2640.42,1363.45 2641.5,1357.5 Z"/></g>
<g><path style="opacity:0.958" fill="#511d4b" d="M 1557.5,1364.5 C 1558.5,1377.66 1558.83,1390.99 1558.5,1404.5C 1570.83,1404.5 1583.17,1404.5 1595.5,1404.5C 1594.87,1409.21 1593.54,1413.71 1591.5,1418C 1580.51,1418.5 1569.51,1418.67 1558.5,1418.5C 1558.33,1440.17 1558.5,1461.84 1559,1483.5C 1559.29,1493.62 1564.46,1498.29 1574.5,1497.5C 1580.77,1497.86 1586.44,1496.19 1591.5,1492.5C 1595.17,1495.5 1598.5,1498.83 1601.5,1502.5C 1597.88,1505.89 1593.55,1508.05 1588.5,1509C 1577.01,1512.39 1565.68,1512.05 1554.5,1508C 1549.12,1504.96 1545.62,1500.46 1544,1494.5C 1542.19,1469.18 1542.02,1443.84 1543.5,1418.5C 1537.5,1418.5 1531.5,1418.5 1525.5,1418.5C 1525.5,1413.83 1525.5,1409.17 1525.5,1404.5C 1531.5,1404.5 1537.5,1404.5 1543.5,1404.5C 1543.5,1392.5 1543.5,1380.5 1543.5,1368.5C 1548.43,1367.74 1553.1,1366.41 1557.5,1364.5 Z"/></g>
<g><path style="opacity:0.948" fill="#511d4b" d="M 1312.5,1382.5 C 1292.66,1382.17 1272.99,1382.5 1253.5,1383.5C 1253.5,1398.5 1253.5,1413.5 1253.5,1428.5C 1270.5,1428.5 1287.5,1428.5 1304.5,1428.5C 1304.5,1433.5 1304.5,1438.5 1304.5,1443.5C 1287.17,1443.5 1269.83,1443.5 1252.5,1443.5C 1253.46,1465.14 1253.79,1486.81 1253.5,1508.5C 1248.17,1508.5 1242.83,1508.5 1237.5,1508.5C 1237.5,1461.83 1237.5,1415.17 1237.5,1368.5C 1263.83,1368.5 1290.17,1368.5 1316.5,1368.5C 1316.08,1373.54 1314.74,1378.21 1312.5,1382.5 Z"/></g>
<g><path style="opacity:0.094" fill="#774c4d" d="M 1253.5,1383.5 C 1272.99,1382.5 1292.66,1382.17 1312.5,1382.5C 1310.44,1383.22 1308.28,1383.88 1306,1384.5C 1288.61,1383.54 1271.11,1383.21 1253.5,1383.5 Z"/></g>
<g><path style="opacity:0.948" fill="#511e4b" d="M 2829.5,1400.5 C 2842.45,1399.03 2854.78,1401.03 2866.5,1406.5C 2871.13,1404.57 2875.79,1402.74 2880.5,1401C 2884.87,1400.17 2889.2,1400.34 2893.5,1401.5C 2891.7,1406.38 2890.36,1411.38 2889.5,1416.5C 2884.49,1416.33 2879.49,1416.5 2874.5,1417C 2884.07,1433.35 2883.07,1449.02 2871.5,1464C 2860.02,1471.69 2847.35,1474.69 2833.5,1473C 2828.42,1472.57 2823.42,1471.74 2818.5,1470.5C 2812.35,1471.81 2810.18,1475.48 2812,1481.5C 2813.17,1482.89 2814.67,1483.73 2816.5,1484C 2833.17,1487 2849.83,1490 2866.5,1493C 2883.83,1498.03 2891,1509.53 2888,1527.5C 2886.19,1535.3 2882.02,1541.47 2875.5,1546C 2864,1551.69 2851.5,1554.19 2838,1553.5C 2826.78,1553.9 2815.95,1552.06 2805.5,1548C 2791.58,1540.25 2786.08,1528.42 2789,1512.5C 2791.02,1503.8 2795.52,1496.64 2802.5,1491C 2796.93,1484.08 2796.1,1476.58 2800,1468.5C 2802.04,1466.29 2804.21,1464.29 2806.5,1462.5C 2795.77,1449.59 2793.61,1435.26 2800,1419.5C 2807.1,1408.89 2816.94,1402.56 2829.5,1400.5 Z M 2827.5,1414.5 C 2834.01,1414.6 2840.35,1414.6 2846.5,1414.5C 2862.4,1420.58 2867.56,1431.91 2862,1448.5C 2858.77,1454.7 2853.61,1458.2 2846.5,1459C 2837.67,1460.08 2829.01,1459.41 2820.5,1457C 2813.49,1452.49 2810.15,1445.99 2810.5,1437.5C 2810.53,1425.49 2816.2,1417.83 2827.5,1414.5 Z M 2812.5,1498.5 C 2821.54,1499.21 2830.38,1500.88 2839,1503.5C 2839.33,1503.17 2839.67,1502.83 2840,1502.5C 2848.66,1504.03 2857.16,1506.2 2865.5,1509C 2871.95,1516.19 2872.78,1524.02 2868,1532.5C 2861.38,1538.45 2853.55,1541.29 2844.5,1541C 2833.85,1541.93 2823.52,1540.6 2813.5,1537C 2807.07,1532.81 2804.07,1526.81 2804.5,1519C 2804.27,1510.97 2806.94,1504.14 2812.5,1498.5 Z"/></g>
<g><path style="opacity:0.953" fill="#511e4b" d="M 1769.5,1400.5 C 1777.51,1400.74 1785.84,1402.24 1794.5,1405C 1804.09,1409.67 1810.25,1417.17 1813,1427.5C 1815.94,1438.85 1816.61,1450.18 1815,1461.5C 1790.19,1461.56 1765.52,1461.22 1741,1460.5C 1739.57,1490.72 1753.74,1502.56 1783.5,1496C 1791.07,1493.94 1796.73,1489.44 1800.5,1482.5C 1804.64,1484.27 1808.81,1485.94 1813,1487.5C 1813.16,1490.52 1812.16,1493.19 1810,1495.5C 1799.93,1506.65 1787.26,1511.98 1772,1511.5C 1762.85,1511.11 1754.02,1509.28 1745.5,1506C 1735.48,1499.79 1728.98,1490.96 1726,1479.5C 1722.23,1461.33 1722.9,1443.33 1728,1425.5C 1732.17,1416 1739,1409.17 1748.5,1405C 1755.46,1402.64 1762.46,1401.14 1769.5,1400.5 Z M 1765.5,1414.5 C 1771.41,1414.06 1777.41,1414.56 1783.5,1416C 1791.67,1418.49 1796.51,1423.99 1798,1432.5C 1798.91,1437.46 1799.41,1442.46 1799.5,1447.5C 1779.83,1447.5 1760.17,1447.5 1740.5,1447.5C 1740.53,1436.22 1744.53,1426.72 1752.5,1419C 1756.71,1416.76 1761.05,1415.26 1765.5,1414.5 Z"/></g>
<g><path style="opacity:0.94" fill="#511d4b" d="M 1934.5,1400.5 C 1954.65,1400.81 1966.81,1410.81 1971,1430.5C 1971.5,1456.5 1971.67,1482.5 1971.5,1508.5C 1966.17,1508.5 1960.83,1508.5 1955.5,1508.5C 1955.67,1483.16 1955.5,1457.83 1955,1432.5C 1953.64,1421.81 1947.64,1415.81 1937,1414.5C 1932.17,1414.23 1927.34,1415.07 1922.5,1417C 1915.67,1420.92 1909,1425.08 1902.5,1429.5C 1901.5,1455.82 1901.17,1482.16 1901.5,1508.5C 1896.17,1508.5 1890.83,1508.5 1885.5,1508.5C 1885.5,1473.83 1885.5,1439.17 1885.5,1404.5C 1889.83,1404.5 1894.17,1404.5 1898.5,1404.5C 1898.87,1408.35 1899.87,1412.02 1901.5,1415.5C 1911.5,1408 1922.5,1403 1934.5,1400.5 Z"/></g>
<g><path style="opacity:0.955" fill="#521e4b" d="M 2038.5,1400.5 C 2048.97,1400.18 2059.3,1402.68 2069.5,1408C 2077.54,1414.24 2082.37,1422.41 2084,1432.5C 2085.42,1441.46 2086.09,1450.46 2086,1459.5C 2085,1460.17 2084,1460.83 2083,1461.5C 2058.67,1461.17 2034.33,1460.83 2010,1460.5C 2009.4,1490.55 2023.9,1502.39 2053.5,1496C 2057.11,1494.86 2060.45,1493.19 2063.5,1491C 2065.72,1488.03 2068.06,1485.2 2070.5,1482.5C 2074.98,1484.24 2079.32,1486.24 2083.5,1488.5C 2075.44,1503.13 2062.94,1510.79 2046,1511.5C 2008.77,1512.26 1990.94,1493.76 1992.5,1456C 1991.95,1441.38 1995.45,1427.88 2003,1415.5C 2008.48,1409.17 2015.31,1405.01 2023.5,1403C 2028.66,1402.27 2033.66,1401.43 2038.5,1400.5 Z M 2034.5,1414.5 C 2058.06,1412.39 2069.4,1423.39 2068.5,1447.5C 2048.83,1447.5 2029.17,1447.5 2009.5,1447.5C 2008.6,1429.11 2016.93,1418.11 2034.5,1414.5 Z"/></g>
<g><path style="opacity:0.953" fill="#511e4b" d="M 2415.5,1400.5 C 2422.73,1400.88 2430.39,1402.04 2438.5,1404C 2451.21,1409.38 2458.71,1418.88 2461,1432.5C 2462.28,1441.79 2462.78,1451.12 2462.5,1460.5C 2437.3,1461.43 2412.3,1461.43 2387.5,1460.5C 2385.75,1488.24 2398.75,1500.41 2426.5,1497C 2435.9,1495.63 2442.9,1490.8 2447.5,1482.5C 2451.39,1484.28 2455.39,1485.78 2459.5,1487C 2460.52,1488.05 2460.68,1489.22 2460,1490.5C 2450.4,1505.06 2436.73,1512.06 2419,1511.5C 2388.76,1511.56 2372.42,1496.56 2370,1466.5C 2368.62,1452.88 2369.95,1439.54 2374,1426.5C 2378.74,1414.1 2387.57,1406.27 2400.5,1403C 2405.64,1402.16 2410.64,1401.33 2415.5,1400.5 Z M 2411.5,1414.5 C 2435.4,1411.71 2447.06,1422.71 2446.5,1447.5C 2426.83,1447.5 2407.17,1447.5 2387.5,1447.5C 2387.68,1438.43 2390.18,1430.1 2395,1422.5C 2399.87,1418.31 2405.37,1415.65 2411.5,1414.5 Z"/></g>
<g><path style="opacity:0.952" fill="#511e4b" d="M 2525.5,1400.5 C 2534.96,1400.55 2544.29,1402.38 2553.5,1406C 2561.49,1410.79 2566.99,1417.62 2570,1426.5C 2573.37,1438.14 2574.04,1449.81 2572,1461.5C 2547.57,1460.97 2523.07,1460.64 2498.5,1460.5C 2497.4,1490.54 2511.73,1502.38 2541.5,1496C 2549.11,1493.87 2554.78,1489.37 2558.5,1482.5C 2562.98,1484.24 2567.32,1486.24 2571.5,1488.5C 2567.24,1497.93 2560.24,1504.43 2550.5,1508C 2537.24,1512.09 2523.91,1512.42 2510.5,1509C 2492.39,1502.66 2482.56,1489.83 2481,1470.5C 2480.33,1460.83 2480.33,1451.17 2481,1441.5C 2484.58,1415.41 2499.42,1401.74 2525.5,1400.5 Z M 2521.5,1414.5 C 2545.66,1411.98 2557.32,1422.98 2556.5,1447.5C 2536.83,1447.5 2517.17,1447.5 2497.5,1447.5C 2497.48,1438.39 2499.98,1430.05 2505,1422.5C 2509.87,1418.31 2515.37,1415.65 2521.5,1414.5 Z"/></g>
<g><path style="opacity:0.949" fill="#511d4b" d="M 2733.5,1400.5 C 2754.56,1401.06 2766.72,1411.72 2770,1432.5C 2770.5,1457.83 2770.67,1483.16 2770.5,1508.5C 2765.17,1508.5 2759.83,1508.5 2754.5,1508.5C 2754.94,1481.8 2754.44,1455.13 2753,1428.5C 2750.09,1418.91 2743.59,1414.24 2733.5,1414.5C 2728.27,1414.71 2723.27,1415.88 2718.5,1418C 2712.7,1421.64 2707.03,1425.47 2701.5,1429.5C 2700.67,1455.49 2700.17,1481.49 2700,1507.5C 2694.93,1508.47 2689.76,1508.8 2684.5,1508.5C 2684.5,1473.83 2684.5,1439.17 2684.5,1404.5C 2688.83,1404.5 2693.17,1404.5 2697.5,1404.5C 2698.01,1408.55 2698.85,1412.55 2700,1416.5C 2709.64,1407.76 2720.81,1402.43 2733.5,1400.5 Z"/></g>
<g><path style="opacity:0.951" fill="#521e4b" d="M 1374.5,1403.5 C 1379.87,1403.17 1385.21,1403.51 1390.5,1404.5C 1401.23,1432.36 1411.56,1460.36 1421.5,1488.5C 1432.04,1460.21 1442.37,1431.88 1452.5,1403.5C 1458.21,1403.17 1463.87,1403.5 1469.5,1404.5C 1452.49,1450.69 1434.99,1496.69 1417,1542.5C 1408.74,1552.04 1398.24,1556.04 1385.5,1554.5C 1382.17,1554.17 1378.83,1553.83 1375.5,1553.5C 1374.39,1549.22 1374.23,1544.89 1375,1540.5C 1381.75,1539.69 1388.59,1539.19 1395.5,1539C 1401.02,1538.17 1404.52,1535 1406,1529.5C 1408.31,1522.9 1410.81,1516.4 1413.5,1510C 1399.59,1474.04 1386.59,1438.54 1374.5,1403.5 Z"/></g>
<g><path style="opacity:0.947" fill="#511e4b" d="M 2093.5,1404.5 C 2099.3,1403.91 2104.8,1404.58 2110,1406.5C 2118.61,1434 2126.61,1461.67 2134,1489.5C 2141,1461 2149.17,1432.84 2158.5,1405C 2163.75,1404.2 2168.92,1404.36 2174,1405.5C 2183.22,1433.16 2191.22,1461.16 2198,1489.5C 2204.98,1461.55 2212.98,1433.88 2222,1406.5C 2224.55,1405.23 2227.39,1404.56 2230.5,1404.5C 2233.17,1404.83 2235.83,1405.17 2238.5,1405.5C 2227.77,1439.53 2216.94,1473.53 2206,1507.5C 2200.59,1508.47 2195.09,1508.81 2189.5,1508.5C 2183.18,1485.7 2176.35,1463.04 2169,1440.5C 2167.84,1435.53 2166.84,1430.53 2166,1425.5C 2159.09,1452.8 2151.09,1479.8 2142,1506.5C 2136.8,1508.42 2131.3,1509.09 2125.5,1508.5C 2115.04,1473.77 2104.37,1439.11 2093.5,1404.5 Z"/></g>
<g><path style="opacity:0.968" fill="#54214b" d="M 2641.5,1404.5 C 2647.17,1404.5 2652.83,1404.5 2658.5,1404.5C 2658.5,1439.17 2658.5,1473.83 2658.5,1508.5C 2652.91,1508.81 2647.41,1508.47 2642,1507.5C 2641.5,1473.17 2641.33,1438.83 2641.5,1404.5 Z"/></g>
</svg>
