<svg version="1.2" xmlns="http://www.w3.org/2000/svg" viewBox="0 0 2500 2500" width="2500" height="2500"><style>.a{fill:#2f489a}</style><path fill-rule="evenodd" class="a" d="m1468.4 1017.7c0 27.2-7.2 58.8-28.3 86.6h59.6v-435.5h-190.8v177.9c103.1 30.3 159.5 92.8 159.5 171z"/><path fill-rule="evenodd" class="a" d="m879.2 1046.4c0 145.3 155.1 246.5 354.8 246.5 390.2 0 575.8-213.7 575.8-378 0-314.8-358.1-358.3-557.3-358.3-281.7 0-598.3 136.7-616.3 379.5 0 114.6 61.5 198 129.6 251.5l-6.5 4.1c-86.1-67.1-154.3-163.4-154.3-278.2 0-221.9 254.7-429.5 600.5-429.5 301.8 0 686.3 191.5 686.3 460.1 0 221.7-266.2 379.7-612.1 379.7-227.8 0-489.3-109.5-489.3-286.4 0-114.9 120.9-184.4 244.5-207.8v-160.8h190.8v159c109.4 12.8 216.4 75.9 216.4 183.7 0 91.5-76.8 172.8-258.3 159.2v-8.7c63 9.3 136-16 175-57.7h-41.4v-206.5q-10.5-6.6-21.5-12.1-11.1-5.6-22.6-10-11.6-4.4-23.5-7.7-11.9-3.2-24.1-5.3v241.6h-190.8v-212.3c51.9-38.8 152.6-54.4 217.5-43.6-30.6-7.7-70.7-17.2-113.7-17.2-155.3 0-259.5 89.4-259.5 215.2zm-479.5 909.3v-24.8h66.9v-214.4h-178.7v214.4h68.6v24.8h-246.3v-24.8h62.6v-436.8h-62.6v-24.8h246.3v24.8h-68.6v193.6h178.7v-193.6h-66.9v-24.8h243.8v24.8h-62.6v436.8h62.6v24.8zm338.4-486.4h111.7v57.6h-111.7zm-55 486.5v-24.8h60.1v-299.3h-60.1v-24.7h171v324h55.9v24.8zm251 0v-24.9h61.8v-500.8h-61.8v-24.7h173.5v525.5h58.5v24.9zm405.9 0c-61 0-94-29.6-94-75.2v-248.9h-60.1v-24.7h60.1v-138.5c33.9 0 69.4 0.8 104.2 0v138.5h86.3v24.7h-86.3v299.3h88v24.8zm517.2-104.8c-12.6 32.7-65.2 113.5-193 113.5-142.2 0-215-92-215-185.5 0-129.7 121.8-183.2 212.5-183.2 80.4 0 197.2 45.5 206.5 177.5 1.7 25.7-0.9 53.7-11 77.7zm-121-188.1c-14.4-30.3-40.8-44.1-75.4-44.1-87.2 0-88.9 85-88.9 158.6 0 99.1 9.3 116.8 16 128.8 11.1 20 34.8 38.4 73.8 38.4 87.2 0 87.2-88.9 86.3-170.4-0.9-88.9-6.7-100.1-11.8-111.3zm430.4 268.1h49.1v-205.7c0-46.3 0-91.9-54.2-91.9-30.5 0-80.4 28.8-92.3 75.9-4.2 14.4-3.4 29.6-3.4 68.1v153.5h55.9v24.8h-226.9v-24.8h60.1v-299.2h-60.1v-24.7h171v52.7c18.6-22.4 34-38.4 70.3-52q7.9-3.1 16.2-5.5 8.2-2.4 16.6-4.1 8.4-1.6 16.9-2.4 8.5-0.8 17.1-0.8c6.8 0 27.2 0 50.8 6.5 71.2 19.9 74.5 71.1 74.5 107.9v221.6h58.5v24.8h-220.1zm-371.9-687.3h-18.1v-6.3h44.8v6.3h-18.2v61.8h-8.5zm77.6 49.3h0.3l22.2-55.7h11.5v68.1h-8.7v-51.2h-0.4l-21.1 51.2h-8l-21.7-51.2h-0.4v51.2h-8.7v-68.1h12.1z"/></svg>