<svg version="1.2" xmlns="http://www.w3.org/2000/svg" viewBox="0 0 2500 2500" width="2500" height="2500"><style>.a{fill:#9a1239}</style><path fill-rule="evenodd" class="a" d="m1248.4 1649.3c358.8 0 706.8-16.3 1037.8-46.4v13.3c-331 52.1-679 91.4-1037.8 91.4-358.7 0-706.8-39.3-1037.8-91.4v-13.3c331.1 30.1 679 46.4 1037.8 46.4zm-425.8-183.5c-10.9 0-20.3-1.2-26.4-10.2l-31.9-46.2h-7.9v56.4h-36.4v-141h54.9c41.7 0 53 20.9 53 40.6 0 13.5-5.5 30.7-27.2 37.7l39.8 56.4c1.3 2.1 3.9 4.3 6.3 6v0.3zm-55.9-117.5h-10.3v37.8h11.1c16.5 0 24.3-6.8 24.3-18.9 0-14.2-7.7-18.9-25.1-18.9zm120 117.5v-141h99v23.5h-62.7v34.3h51.9v21.1h-51.9v39h63.7v23.1zm193.8 3.1c-17.3 0-30.2-2.6-44.1-6.5l12.3-22.4c8.6 2.7 19.3 5.3 28.6 5.3 14.3 0.2 21.7-5.5 21.7-15.4 0-10.6-5.9-13.5-26.4-24.2-20.9-11-37.4-23.3-35.6-45.7 1.9-26.7 24.6-38.2 50.7-38.2 15.1 0 27.6 0.9 43.7 6.4v0.2l-11.1 21.5c-9-3.6-17.7-5.3-26.3-4.9-11.9 0.6-20.5 4.3-20.7 12.7-0.3 11.9 14.7 16.4 29.5 24.2 20 10.5 33.4 18.3 33.4 43.1 0 21.2-14.3 43.9-55.7 43.9zm172.4 0c-43.9 0-72-26.4-72-73.6 0-47.2 28.1-73.6 72-73.6 43.9 0 71.9 26.4 71.9 73.6 0 47.2-28 73.6-71.9 73.6zm0-123c-25.8 0-33.4 26.6-33.4 49.4 0 22.8 7.5 49.4 33.4 49.4 25.9 0 33.4-26.6 33.4-49.4 0-22.8-7.5-49.4-33.4-49.4zm229 119.9c-10.9 0-20.2-1.2-26.4-10.2l-31.8-46.2h-8v56.4h-36.3v-141h54.8c41.8 0 53.1 20.9 53.1 40.6 0 13.5-5.5 30.7-27.2 37.7l39.7 56.4c1.4 2.1 4 4.3 6.4 6v0.3zm-55.8-117.5h-10.4v37.8h11.1c16.6 0 24.3-6.8 24.3-18.9 0-14.2-7.7-18.9-25-18.9zm230.8-6.7c-3.2 6.3-7.3 8.6-16.5 8.6h-25.6v115.6h-37.4v-115.6h-42.2q-0.9 0.1-1.8 0.3-0.9 0.2-1.7 0.4-0.9 0.2-1.8 0.6-0.8 0.3-1.6 0.7l-0.6-0.4 9.9-18c3.8-6.8 8.6-9 16.3-9h111.8zm87.2 127.3c-17.3 0-30.2-2.5-44.1-6.5l12.3-22.4c8.6 2.7 19.3 5.3 28.7 5.3 14.3 0.2 21.6-5.5 21.6-15.4 0-10.6-5.9-13.5-26.4-24.2-20.9-10.9-37.4-23.3-35.6-45.7 2-26.7 24.6-38.2 50.7-38.2 15.1 0 27.6 1 43.7 6.4v0.2l-11.1 21.5c-9-3.5-17.7-5.3-26.2-4.9-12 0.6-20.5 4.3-20.7 12.7-0.4 11.9 14.7 16.4 29.4 24.2 20.1 10.5 33.4 18.3 33.4 43.1 0 21.2-14.3 43.9-55.7 43.9zm-1255.2-425.9l27-55.4-69.7-149.4 84.2-43.1 115.1 248.2 27.4-56-62.6-142.4 80.1-40.1 173.8 383.9h-99.7l-76.5-169.8-27.5 58.2 48.9 111.6h-103.9l-77.8-165.8c-65.1 147.2-99.9 199.2-152.7 199.2-17.4 0-48-7.5-60.6-19.5l48-78.8c7.5 1.7 18.4 3.9 28 3.9 40.2 0 80-46.8 98.5-84.7zm583.6 99.5h-71.5c-7.8-7.4-12.8-20-15-29.9-20.7 18-39.4 33.1-70.5 33-30.3-0.1-64.3-31.8-66.3-80.1-1.9-46.5 18.8-69 42.6-83.2 26.4-15.7 59.5-24.7 74.9-32.4 10.7-5.4 17.5-10.8 17.5-19.9 0-12.5-16.2-17.3-39.9-13.8-18.2 2.7-44.8 16-72.8 41.8 2.9-19.1 7-36.1 12.2-48.6 4.6-11.1 10.5-18.7 18.8-22.5 19.8-9.2 44.1-14.7 74.4-14.7 41.1 0 56.5 13.6 66.2 25.4 10.4 12.7 15.7 31.5 15.7 54v154.7c0 13.4 5.9 25.5 13.7 36.2zm-88.8-109c0-17.9-0.2-25.1-1.1-33.2-1.4-12.4-5.3-16.5-14.9-16-15.4 0.8-31 13.8-41.4 32.5-5.8 10.5-10 27.2-10 40.7 0 22.4 9.1 39 25.6 39.5 8.8 0.3 17.1-1.6 28-9.7 12.6-9.2 13.8-17.9 13.8-53.8zm435.7-158.5c20.3 0 34.9 9.1 42.7 19.1l-31.4 48.6c-15.2-11.4-35.7-15.5-53.4-1.2v142.2c-0.1 24.7 4 46.9 16.9 58.7h-71.3c-15-11.2-20.7-30.9-20.7-45.5v-189.2c0-15.5-3.3-22-9.4-30.8h74c4 3.5 7.8 11.8 9.2 17.6 11.9-10.7 26.2-19.5 43.4-19.5zm145.9 55.9v152.8c-0.1 24.7 4.1 46.9 16.9 58.7h-71.3c-15-11.2-20.6-30.9-20.6-45.5v-189.2c0-15.5-3.4-22-9.5-30.8h72.7c9.2 13.1 11.8 28.3 11.8 54zm-332-55.9c20.4 0 35 9.1 42.7 19.1l-31.4 48.6c-15.2-11.4-35.7-15.5-53.4-1.2v142.2c-0.1 24.7 4.1 46.9 16.9 58.7h-71.3c-14.9-11.2-20.6-30.9-20.6-45.5v-189.2c0-15.5-3.3-22-9.4-30.8h73.9c4 3.5 7.8 11.8 9.2 17.6 12-10.7 26.2-19.5 43.4-19.5zm594.2 127.2c0.2 18 0 32.3-1.4 44.8-2.7 24.8-11.7 38.9-32.9 60-11.2 11.1-54.6 51.1-92.3 38.9-21.5-7-80.2-34.2-84.3-93.3-1.8-25.1-2.4-59.7 0.2-87.5 1.5-16.2 4.7-29.4 9-36.3 12.2-19.3 39.6-34.8 52-40.7 44.1-20.8 56-21.1 76.2-10.3 30.2 16.1 51 39 61.9 57.6 8.5 14.4 11.2 43.7 11.6 66.8zm-72.9-11.1c-2.4-55.8-14.7-74.9-27.4-78.9-13.2-4.2-22.3 6-26.2 12.9-7.7 13.7-9.4 30.3-10.9 53.8-1 15.6-1.7 74.9 5.1 97.3 5.9 19.4 15.9 29.4 25.1 29.5 9 0.1 15.7-4.7 21.5-15.3 7.1-12.7 15.5-37.9 12.8-99.3zm197.6 92.6c-0.2 24.7 4 46.9 16.8 58.7h-72.6c-15-11.2-20.6-30.9-20.6-45.5v-199.1h-41.9l9.2-24.7h32.7v-55.3l76.4-28.5v83.8h36.9l-9.3 24.7h-27.6zm161.9 0c-0.2 24.7 4 46.9 16.9 58.7h-72.6c-15-11.3-20.6-30.9-20.6-45.5v-199.1h-42l9.2-24.7h32.8v-55.4l76.3-28.4v83.8h37l-9.4 24.7h-27.6zm72.5 61.2c-4.2 0-8.4-0.9-12.3-2.5-3.8-1.6-7.4-3.9-10.4-6.9-2.9-3-5.3-6.5-6.9-10.4-1.6-3.9-2.5-8.1-2.5-12.3 0-4.2 0.9-8.4 2.5-12.2 1.6-3.9 4-7.5 6.9-10.4 3-3 6.6-5.4 10.4-7 3.9-1.6 8.1-2.4 12.3-2.4 4.2 0 8.4 0.8 12.3 2.4 3.9 1.6 7.4 4 10.4 7 3 2.9 5.3 6.5 6.9 10.4 1.6 3.8 2.5 8 2.5 12.2 0 4.2-0.9 8.4-2.5 12.3-1.6 3.9-4 7.4-6.9 10.4-3 2.9-6.5 5.3-10.4 6.9-3.9 1.6-8.1 2.5-12.3 2.5zm0-59.7c-3.6 0-7.2 0.7-10.6 2.1-3.3 1.4-6.4 3.4-9 6-2.5 2.5-4.6 5.6-6 8.9-1.3 3.4-2.1 7-2 10.6 0 15.3 12.3 27.7 27.6 27.7 15.3 0 27.6-12.4 27.6-27.7 0-3.6-0.7-7.2-2.1-10.6-1.3-3.3-3.4-6.4-5.9-8.9-2.6-2.6-5.7-4.6-9-6-3.4-1.4-7-2.1-10.6-2.1zm11.7 47.1c-1.9 0-3.9-0.2-5.1-2l-9.7-14.5h-2.7v16.5h-6.9v-38.4h13.4c10.4 0 12.5 6.5 12.5 10.4 0 5.4-3.6 9.5-8.9 10.5l10.8 15.8q0.2 0.2 0.4 0.5 0.2 0.2 0.5 0.4 0.2 0.2 0.4 0.4 0.3 0.2 0.5 0.3v0.1zm-13.4-33.7h-4.1v12.4h3.8c4.9 0 8.3-2 8.3-6.4-0.1-5.4-4.3-6-8-6z"/></svg>