<svg version="1.2" xmlns="http://www.w3.org/2000/svg" viewBox="0 0 5000 1957" width="5000" height="1957"><style>.a{opacity:.98;fill:#000844}.b{opacity:.99;fill:#000844}.c{opacity:.97;fill:#000844}.d{opacity:.96;fill:#000844}.e{opacity:.95;fill:#000844}</style><path fill-rule="evenodd" class="a" d="m3056.5-0.5q1 0 2 0-114.3 203.6-311 330.5-226 140-492 160-219.3 16.7-438-40-9.4-2.6-18-7 186.3 13.9 372-7 370.1-43.8 672-259 112.7-80.9 213-177.5z"/><path fill-rule="evenodd" class="b" d="m1153.5 780.5q82.5-4.2 160 25.5 132.8 58.9 166.5 200.5 24.8 112.5-16 220-54.7 123.8-184.5 162.5-115.7 31.4-231-7-143-56-179.5-205.5-24.8-111.3 15-218 60.2-136.7 206.5-169.5 31.4-6.5 63-8.5zm-24 114.5q-91.9 16.9-128.5 102.5-31.9 86.6-5 175 24.7 73.2 95.5 103.5 58.4 21.1 120 12 102.9-14.3 140.5-110.5 28.7-86 0-172-25.8-71.8-96.5-100.5-41.1-14.4-82-14.5-21.9 1-44 4.5z"/><path fill-rule="evenodd" class="b" d="m2693.5 780.5q96.3-5.3 183 36.5 109.2 59.6 140.5 180.5 28.2 114.4-12 225-59 138-205.5 171.5-91.9 20.1-187-4-150.5-43.5-198.5-192.5-32.1-111 3-222 55.6-150.6 212.5-186.5 31.9-6.5 64-8.5zm-30 115.5q-102.9 23.9-131.5 125.5-15.2 63.7-3 128 21.5 101 119.5 132.5 57 14.6 115 4 86.6-17.6 123.5-97.5 29.2-76.1 12-156-15.7-78.6-84.5-118.5-51.4-24.8-107-23.5-22 1.1-44 5.5z"/><path fill-rule="evenodd" class="b" d="m-0.5 792.5q72.5-10.3 134 28.5 46.5 32.2 84.5 74.5 23.5 27.5 47 55 62.6 82.1 124 165 44.5 60.5 98.5 113.5 8.3 7.5 17 14.5 1.5-225.5 1-451 58.5 0 117 0 0 299.5 0 599-17.3-0.3-33.5 1-79.1-0.4-142.5-47.5-59.1-46.1-106.5-104.5-26.6-33.1-52-67-50.4-71.3-103-141-30.8-39.8-68-74-0.8 216.5-0.5 433-61 1.1-117 0 0-299.5 0-599z"/><path fill-rule="evenodd" class="b" d="m1625.5 792.5q67.5-0.5 135 1 90.7 204.4 183 408 91.6-203.8 182.5-408 68.1-1.5 136.5-1-144 301.5-290.5 602-14.4 1-29 1-14.6 0-29-1-144.7-300.9-288.5-602z"/><path fill-rule="evenodd" class="b" d="m3155.5 792.5q273.5-0.3 547 0.5 2 52.5 0 105-1.9 0.5-3.5 1.5-101.4-1-210.5-1 0 246.5 0 493-59 0-118 0 0-246.5 0-493-112.6 0.8-215 0 0-53 0-106z"/><path fill-rule="evenodd" class="b" d="m3894.5 792.5q218 0 436 0 0 55 0 110-151.9 0-319 0 0 64.5 0 129 147 0 294 0 0 55 0 110-147 0-294 0-0.4 33.6 1.5 68 6.6 63.6 69.5 75.5 41.1 6.7 82 5.5 83.2 0.4 165-14 1.5 54.5 1 109-131 26.7-264 12.5-162-21.5-171.5-184.5-0.8-210.5-0.5-421z"/><path fill-rule="evenodd" class="b" d="m4999.5 1277.5q0 54 0 108-130.2 25.4-257 13.5-58.8-6.1-106-41-44.3-41.3-54.5-101.5-3.5-18.9-5-38-2.2-213-1.5-426 59 0 118 0-0.3 202.5 0.5 405 0.8 86.8 87.5 91.5 109.6 4.9 218-11.5z"/><path fill-rule="evenodd" class="c" d="m1015.5 1956.5q-13.5 0-27 0-62.9-10.7-78.5-73-9.2-41.4 6-81 26.1-54.5 87-54 69.1 2.1 90 68 15.4 57.8-18 107-23.5 27.6-59.5 33zm-60-166.5q-28.3 33-22.5 76.5 5.2 43.8 44.5 62.5 46 14.5 77.5-21.5 24-36.4 14-79-14.8-57-73.5-57-22.7 3.1-40 18.5z"/><path fill-rule="evenodd" class="d" d="m2029.5 1956.5q-12.5 0-25 0-25.9-3.4-51-12 0-11.5 0-23 29.9 10.6 61.5 13 16.9-0.2 32.5-6.5 26.6-18.6 11.5-47.5-9.6-9.7-22.5-14.5-23.6-6.8-47-14-43.1-18.5-33.5-64.5 6.5-25.5 31.5-33.5 33.2-9.9 67-2 11 2.8 22 5.5 0 11.5 0 23-17.3-4.9-35-8.5-28.5-5.5-54 8-19.4 20.5-1 42 8.8 6.2 19 10 21.4 6.7 43 13 53.8 20.9 36.5 76.5-18.5 32.1-55.5 35z"/><path fill-rule="evenodd" class="d" d="m3254.5 1956.5q-12.5 0-25 0-26.2-2.9-51-13-1.8-11 0-22 29.6 10.5 61 13 19-0.1 36-8.5 20.9-18.3 9.5-43.5-8.2-11.1-21.5-15.5-25-7.5-50-15-33.5-12.7-35-48.5 5.2-51.4 57-54.5 33.9-2 66 9 1.5 11.6 1 23.5-19.4-5.2-39-9.5-25.8-5.2-49 7-19.4 16.6-7.5 39.5 9.2 9.2 21.5 13.5 18.9 6 38 11 61.2 18.2 42.5 79.5-9.9 18.9-29.5 27.5-12.3 4.9-25 6.5z"/><path fill-rule="evenodd" class="c" d="m3529.5 1956.5q-12.5 0-25 0-64.9-10.6-80.5-75-9.1-44.7 10-86 27.8-47.8 83.5-47 64 0.8 87.5 60 17.3 53.2-8 104-23.3 38-67.5 44zm-66.5-158q-25 39.2-12 84 11.3 37.3 48.5 48.5 39.8 9.1 67.5-20.5 30.2-41.8 14-91-18-49.1-70.5-48-29.1 3.9-47.5 27z"/><path fill-rule="evenodd" class="d" d="m4299.5 1956.5q-13.5 0-27 0-24.4-3.6-48-12-2-11.5 0-23 40.5 16.6 82 10.5 40.1-14.4 21.5-52.5-8.4-8.3-19.5-12.5-25-7.5-50-15-38.4-14.5-34.5-55.5 5.4-38.4 43.5-45.5 39.9-6.7 78 7 1.5 11.6 1 23.5-16.4-4.4-33-8.5-27.5-6.8-53 5-26.3 22.7-2 47 23.8 11.7 50 17 23.3 5.3 39.5 22.5 16.8 25.7 7 55-13.2 27.7-43.5 34.5-6.3 1.1-12 2.5z"/><path fill-rule="evenodd" class="d" d="m2377.5 1956.5q-13 0-26 0-60.9-12.4-51.5-74 6.6-23.6 25.5-39.5 5-3.5 10-7-21.6-33.8-0.5-67.5 16-17.1 39.5-18.5 27-2.2 53 5.5 0.3 12.5 1 21.5-19.7-4.3-40-6.5-18-0.6-31.5 11-11.4 15.1-5 33 5.3 10.3 13 19 29 30.5 59 60 4.8-22.7 3.5-46 10.5 0 21 0 2.6 14.9 1.5 30-2 17.9-7 35 19.5 19.3 38.5 39-16 1.8-32 0.5-10.3-10.1-20-20.5-22.6 19.8-52 25zm-54.5-69q-7.3 30.2 20.5 43.5 36.4 12.4 66-12 2.7-1.7 2.5-4.5-30.3-30.3-60.5-60.5-1.4-0.7-3-0.5-18.9 12.3-25.5 34z"/><path fill-rule="evenodd" class="d" d="m633.5 1751.5q11 0.4 22 1 1.5 42.5 1 85 55.5 0 111 0-1.2-41.8-1-84.5 1.4-0.6 2.5-1.5 10.6 0.8 21.5 1 1.5 100 1 200-12 0.5-24-1-0.3-0.9-1-1.5 0-44 0-88-55-0.8-110-0.5 0 45 0 90-11.8 0.1-25 1-1-100.8 2-201z"/><path fill-rule="evenodd" class="d" d="m1182.5 1751.5q71.1 1.1 166 0 0 12 0 24-35.7 1.7-72 0 0 88.5 0 177-12 0-24 0 0-88.5 0-177-35 1-72 0-0.9-12.4 2-24z"/><path fill-rule="evenodd" class="d" d="m1468.5 1751.5q68.2 0 120 1 0 11.5 0 23-49 0.5-97 0 0 30.5 0 61 46.4-0.5 92.5 1 1.4 11.7-1 23-45.5-0.5-91-1-0.1 19.4 0 39 0.8 29.2 29.5 32.5 33.5 3 66.5-2.5 2.2 11.2 1.5 23-35.3 5.4-71 3.5-42.9-0.4-49.5-42.5-0.8-80.5-0.5-161z"/><path fill-rule="evenodd" class="e" d="m1730.5 1751.5q9.2 1 21.5 1 0.5 78.5 1 157 0.4 13.6 12.5 19.5 10.3 2.6 21 3 29.1 0.3 58-2.5-0.1 11.8-1 21-8.2 3-17 3.5-30.5 2.9-61 0-33.3-3.3-36.5-36.5-0.3-41.3-0.5-82.5 0-42.1 2-83.5z"/><path fill-rule="evenodd" class="c" d="m2701.5 1751.5q19.5-0.3 39 0.5 68.7 1.2 66.5 69.5-4.6 24.5-25.5 37.5-9.4 4.3-19 8 29.6 41.9 58 84.5-14 1.8-28 0.5-28.5-40.5-57-81-21-0.8-42-0.5 0 41 0 82-12 0-24 0 0-100 0-200 16.3 0.5 32-1zm-8 96q24.5 0.3 49-0.5 11.4-0.8 22-5 13.5-6.8 17.5-21.5 6-40.2-34.5-44.5-27-0.8-54-0.5 0 36 0 72z"/><path fill-rule="evenodd" class="e" d="m2939.5 1751.5q49.9 0.9 117 0.5 1.5 11.6 1 23.5-48.3 0.3-95 0 0 30.5 0 61 45.5 0 91 0 0 11.5 0 23-47.1 0.3-91 1-0.3 23 0.5 46 4.8 22.3 27.5 24.5 10.2 1.4 20.5 1.5 23.8-1.4 47.5-3 0 11 0 22-41.4 6.8-83 1.5-31.5-6.5-36.5-38.5-0.5-5.5-1-11-0.3-37.8-0.5-75.5 0-38.6 2-76.5z"/><path fill-rule="evenodd" class="d" d="m3756.5 1751.5q33.3-1.5 66 4.5 33.9 11.1 39.5 46.5 3.9 50.4-44.5 64.5 29.6 41.9 58 84.5-14.5 2-29 0-28.2-40.1-56-80.5-21-0.8-42-0.5 0.3 40.5-0.5 81-11.5 2-23 0-0.8-99.5-0.5-199 16.3 0.5 32-1zm-8 96q24.5 0.3 49-0.5 11.4-0.8 22-5 13.5-6.8 17.5-21.5 6-40.2-34.5-44.5-27.2-0.6-54-0.5 0 36 0 72z"/><path fill-rule="evenodd" class="d" d="m3959.5 1751.5q70.4 0.2 165 0 0 12 0 24-35.8 1.3-72 0 0 88.5 0 177-12 0-24 0 0-88.5 0-177-35.9 1.2-71 0-0.9-12.4 2-24z"/></svg>