<?xml version="1.0" encoding="UTF-8"?>
<!DOCTYPE svg PUBLIC "-//W3C//DTD SVG 1.1//EN" "http://www.w3.org/Graphics/SVG/1.1/DTD/svg11.dtd">
<svg xmlns="http://www.w3.org/2000/svg" version="1.1" width="1300px" height="818px" style="shape-rendering:geometricPrecision; text-rendering:geometricPrecision; image-rendering:optimizeQuality; fill-rule:evenodd; clip-rule:evenodd" xmlns:xlink="http://www.w3.org/1999/xlink">
<g><path style="opacity:0.994" fill="#53565a" d="M 157.5,259.5 C 212.622,258.811 256.788,280.477 290,324.5C 292.5,328.833 295,333.167 297.5,337.5C 288.859,338.498 280.192,338.831 271.5,338.5C 271.5,358.5 271.5,378.5 271.5,398.5C 250.5,398.5 229.5,398.5 208.5,398.5C 208.5,378.5 208.5,358.5 208.5,338.5C 197.833,338.5 187.167,338.5 176.5,338.5C 176.5,388.5 176.5,438.5 176.5,488.5C 187.167,488.5 197.833,488.5 208.5,488.5C 208.333,468.497 208.5,448.497 209,428.5C 219.259,427.839 229.592,427.506 240,427.5C 250.408,427.506 260.741,427.839 271,428.5C 271.5,448.497 271.667,468.497 271.5,488.5C 278.677,488.04 285.677,488.54 292.5,490C 261.918,533.287 220.252,556.12 167.5,558.5C 125.572,557.142 89.405,541.476 59,511.5C 52.9229,504.591 47.4229,497.258 42.5,489.5C 49.4684,488.503 56.4684,488.17 63.5,488.5C 63.0159,472.012 63.5159,455.678 65,439.5C 73.1212,439.79 81.2879,439.957 89.5,440C 100.89,455.725 111.89,471.725 122.5,488C 134.847,488.833 147.18,488.666 159.5,487.5C 148.084,469.919 136.084,452.752 123.5,436C 134.3,431.338 143.134,424.171 150,414.5C 159.027,395.452 158.36,376.785 148,358.5C 137.725,346.279 124.558,339.779 108.5,339C 84.5023,338.5 60.5023,338.333 36.5,338.5C 63.3098,291.901 103.643,265.567 157.5,259.5 Z"/></g>
<g><path style="opacity:0.988" fill="#53565a" d="M 1063.5,271.5 C 1097.2,269.913 1120.36,284.58 1133,315.5C 1139.82,338.792 1136.48,360.458 1123,380.5C 1100.55,405.487 1073.71,411.654 1042.5,399C 1010.92,379.135 1000.09,351.302 1010,315.5C 1019.66,290.66 1037.49,275.993 1063.5,271.5 Z M 1066.5,295.5 C 1091.64,295.586 1106.31,308.086 1110.5,333C 1111.19,345.923 1107.36,358.09 1099,369.5C 1081.62,384.754 1063.79,385.254 1045.5,371C 1032.05,353.556 1029.89,334.723 1039,314.5C 1045.41,304.055 1054.58,297.722 1066.5,295.5 Z"/></g>
<g><path style="opacity:0.986" fill="#53565a" d="M 837.5,271.5 C 857.015,270.781 874.015,276.781 888.5,289.5C 884.066,296.049 879.399,302.383 874.5,308.5C 862.408,297.635 848.408,293.802 832.5,297C 823.516,302.533 822.183,309.533 828.5,318C 838.643,323.048 849.31,326.715 860.5,329C 891.887,339.949 899.721,360.116 884,389.5C 873.845,400.168 861.345,405.501 846.5,405.5C 826.065,404.774 808.732,397.274 794.5,383C 799.319,376.844 804.153,370.678 809,364.5C 821.084,377.307 835.917,382.807 853.5,381C 863.014,379.493 867.18,373.993 866,364.5C 865.394,361.452 863.894,358.952 861.5,357C 849.332,352.54 836.999,348.54 824.5,345C 801.195,334.782 794.028,317.616 803,293.5C 810.744,280.253 822.244,272.919 837.5,271.5 Z"/></g>
<g><path style="opacity:0.986" fill="#53565a" d="M 941.5,271.5 C 961.017,270.781 978.017,276.781 992.5,289.5C 988.066,296.049 983.399,302.383 978.5,308.5C 966.408,297.635 952.408,293.802 936.5,297C 929.567,300.372 927.067,305.872 929,313.5C 932.365,318.186 936.865,321.353 942.5,323C 956.185,325.894 969.185,330.561 981.5,337C 994.525,347.564 998.692,361.064 994,377.5C 990.32,388.514 983.153,396.347 972.5,401C 944.219,409.429 919.552,403.429 898.5,383C 903.319,376.844 908.153,370.678 913,364.5C 926.033,378.289 941.866,383.456 960.5,380C 967.605,377.726 970.939,373.06 970.5,366C 969.924,362.93 968.591,360.263 966.5,358C 963.833,356.667 961.167,355.333 958.5,354C 945.835,351 933.501,347 921.5,342C 906.214,333.174 900.38,320.008 904,302.5C 906.374,291.803 912.207,283.637 921.5,278C 928,274.888 934.667,272.721 941.5,271.5 Z"/></g>
<g><path style="opacity:0.987" fill="#53565a" d="M 534.5,272.5 C 542.087,272.186 549.587,272.519 557,273.5C 575.531,316.605 593.364,359.938 610.5,403.5C 601.779,403.804 593.112,403.471 584.5,402.5C 580.596,392.952 576.596,383.452 572.5,374C 554.5,373.333 536.5,373.333 518.5,374C 514.167,383.667 509.833,393.333 505.5,403C 497.147,403.832 488.813,403.665 480.5,402.5C 498.515,359.141 516.515,315.808 534.5,272.5 Z M 544.5,306.5 C 550.929,320.533 557.262,334.699 563.5,349C 551.838,349.5 540.171,349.667 528.5,349.5C 533.833,335.167 539.167,320.833 544.5,306.5 Z"/></g>
<g><path style="opacity:0.99" fill="#53565a" d="M 371.5,273.5 C 392.503,273.333 413.503,273.5 434.5,274C 459.244,276.909 472.577,290.742 474.5,315.5C 473.497,334.656 464.164,347.822 446.5,355C 456.971,370.97 467.638,386.803 478.5,402.5C 468.851,403.665 459.184,403.832 449.5,403C 439.833,388.667 430.167,374.333 420.5,360C 412.507,359.5 404.507,359.334 396.5,359.5C 396.5,374.167 396.5,388.833 396.5,403.5C 388.167,403.5 379.833,403.5 371.5,403.5C 371.5,360.167 371.5,316.833 371.5,273.5 Z M 396.5,297.5 C 407.838,297.333 419.172,297.5 430.5,298C 440.721,299.221 446.721,304.888 448.5,315C 448.573,325.629 443.24,332.295 432.5,335C 420.505,335.5 408.505,335.667 396.5,335.5C 396.5,322.833 396.5,310.167 396.5,297.5 Z"/></g>
<g><path style="opacity:0.988" fill="#53565a" d="M 622.5,273.5 C 640.503,273.333 658.503,273.5 676.5,274C 713.132,279.634 732.799,300.967 735.5,338C 733.135,376.029 713.135,397.696 675.5,403C 657.836,403.5 640.17,403.667 622.5,403.5C 622.5,360.167 622.5,316.833 622.5,273.5 Z M 647.5,297.5 C 656.506,297.334 665.506,297.5 674.5,298C 697.34,301.962 709.006,315.628 709.5,339C 708.793,362.034 697.127,375.368 674.5,379C 665.506,379.5 656.506,379.666 647.5,379.5C 647.5,352.167 647.5,324.833 647.5,297.5 Z"/></g>
<g><path style="opacity:0.981" fill="#53565a" d="M 753.5,273.5 C 761.833,273.5 770.167,273.5 778.5,273.5C 778.5,316.833 778.5,360.167 778.5,403.5C 770.167,403.5 761.833,403.5 753.5,403.5C 753.5,360.167 753.5,316.833 753.5,273.5 Z"/></g>
<g><path style="opacity:0.996" fill="#53565a" d="M 1153.5,273.5 C 1161.17,273.334 1168.84,273.5 1176.5,274C 1196.54,301.256 1216.71,328.422 1237,355.5C 1237.5,328.169 1237.67,300.835 1237.5,273.5C 1245.83,273.5 1254.17,273.5 1262.5,273.5C 1262.5,316.833 1262.5,360.167 1262.5,403.5C 1255.49,403.666 1248.49,403.5 1241.5,403C 1220.67,374.833 1199.83,346.667 1179,318.5C 1178.5,346.831 1178.33,375.165 1178.5,403.5C 1170.17,403.5 1161.83,403.5 1153.5,403.5C 1153.5,360.167 1153.5,316.833 1153.5,273.5 Z"/></g>
<g><path style="opacity:0.986" fill="#53565a" d="M 61.5,367.5 C 75.1707,367.333 88.8374,367.5 102.5,368C 117.802,370.308 124.302,379.141 122,394.5C 121.166,399.668 118.666,403.835 114.5,407C 109.65,409.838 104.483,411.672 99,412.5C 86.8333,412.333 74.6667,412.167 62.5,412C 61.5094,397.245 61.176,382.412 61.5,367.5 Z"/></g>
<g><path style="opacity:0.941" fill="#5c5f63" d="M 371.5,429.5 C 668.5,429.5 965.5,429.5 1262.5,429.5C 1262.5,431.167 1262.5,432.833 1262.5,434.5C 965.5,434.5 668.5,434.5 371.5,434.5C 371.5,432.833 371.5,431.167 371.5,429.5 Z"/></g>
<g><path style="opacity:0.98" fill="#53565a" d="M 567.5,459.5 C 595.45,457.315 612.95,469.649 620,496.5C 621.682,523.153 609.682,540.153 584,547.5C 565.218,549.783 549.884,543.449 538,528.5C 527.666,510.848 528.166,493.515 539.5,476.5C 547.017,467.746 556.35,462.079 567.5,459.5 Z M 569.5,474.5 C 587.28,472.634 598.446,480.3 603,497.5C 605.064,509.983 601.231,520.15 591.5,528C 575.873,535.965 562.706,533.132 552,519.5C 544.131,503.985 546.631,490.485 559.5,479C 562.815,477.17 566.149,475.67 569.5,474.5 Z"/></g>
<g><path style="opacity:0.979" fill="#53565a" d="M 1224.5,459.5 C 1235.45,458.791 1245.79,460.957 1255.5,466C 1257.81,467.314 1259.81,468.981 1261.5,471C 1259.07,475.104 1256.23,478.937 1253,482.5C 1243.42,474.805 1232.92,472.638 1221.5,476C 1216.66,480.38 1216.32,485.046 1220.5,490C 1231.91,494.137 1243.24,498.47 1254.5,503C 1265.28,511.562 1267.45,522.062 1261,534.5C 1253.9,543.38 1244.57,547.714 1233,547.5C 1219.43,547.127 1207.59,542.46 1197.5,533.5C 1200.14,529.225 1203.48,525.558 1207.5,522.5C 1217.87,531.51 1229.53,534.343 1242.5,531C 1249.19,526.257 1249.85,521.257 1244.5,516C 1233.83,512.333 1223.17,508.667 1212.5,505C 1200.05,495.729 1197.55,484.562 1205,471.5C 1210.25,465.298 1216.75,461.298 1224.5,459.5 Z"/></g>
<g><path style="opacity:0.976" fill="#53565a" d="M 371.5,460.5 C 376.833,460.5 382.167,460.5 387.5,460.5C 387.5,472.167 387.5,483.833 387.5,495.5C 400.5,495.5 413.5,495.5 426.5,495.5C 426.5,483.833 426.5,472.167 426.5,460.5C 431.833,460.5 437.167,460.5 442.5,460.5C 442.667,488.835 442.5,517.169 442,545.5C 436.928,546.471 431.762,546.805 426.5,546.5C 426.978,534.339 426.478,522.339 425,510.5C 413,510.5 401,510.5 389,510.5C 387.688,522.01 387.021,533.677 387,545.5C 381.928,546.471 376.762,546.805 371.5,546.5C 371.5,517.833 371.5,489.167 371.5,460.5 Z"/></g>
<g><path style="opacity:0.994" fill="#53565a" d="M 704.5,460.5 C 727.833,460.5 751.167,460.5 774.5,460.5C 774.5,465.5 774.5,470.5 774.5,475.5C 765.5,475.5 756.5,475.5 747.5,475.5C 747.667,498.836 747.5,522.169 747,545.5C 744.422,546.141 741.755,546.475 739,546.5C 735.973,546.618 733.139,546.118 730.5,545C 730.255,522.372 730.589,499.539 731.5,476.5C 722.525,475.502 713.525,475.168 704.5,475.5C 704.5,470.5 704.5,465.5 704.5,460.5 Z"/></g>
<g><path style="opacity:0.984" fill="#53565a" d="M 874.5,460.5 C 895.503,460.333 916.503,460.5 937.5,461C 938.833,465.667 938.833,470.333 937.5,475C 921.837,475.5 906.17,475.667 890.5,475.5C 890.5,482.167 890.5,488.833 890.5,495.5C 904.171,495.333 917.837,495.5 931.5,496C 932.469,500.737 932.803,505.57 932.5,510.5C 918.5,510.5 904.5,510.5 890.5,510.5C 890.5,517.5 890.5,524.5 890.5,531.5C 906.5,531.5 922.5,531.5 938.5,531.5C 938.803,536.43 938.469,541.263 937.5,546C 916.26,546.826 895.094,546.66 874,545.5C 873.176,517.095 873.343,488.761 874.5,460.5 Z"/></g>
<g><path style="opacity:0.979" fill="#53565a" d="M 1048.5,460.5 C 1053.5,460.5 1058.5,460.5 1063.5,460.5C 1063.5,484.167 1063.5,507.833 1063.5,531.5C 1078.5,531.5 1093.5,531.5 1108.5,531.5C 1108.8,536.43 1108.47,541.263 1107.5,546C 1087.59,546.826 1067.76,546.659 1048,545.5C 1047.18,517.095 1047.34,488.761 1048.5,460.5 Z"/></g>
</svg>
