<?xml version="1.0" encoding="UTF-8"?>
<!DOCTYPE svg PUBLIC "-//W3C//DTD SVG 1.1//EN" "http://www.w3.org/Graphics/SVG/1.1/DTD/svg11.dtd">
<svg xmlns="http://www.w3.org/2000/svg" version="1.1" width="3840px" height="2160px" style="shape-rendering:geometricPrecision; text-rendering:geometricPrecision; image-rendering:optimizeQuality; fill-rule:evenodd; clip-rule:evenodd" xmlns:xlink="http://www.w3.org/1999/xlink">
<g><path style="opacity:1" fill="#d01240" d="M 1869.5,536.5 C 1956.25,531.145 2027.42,561.478 2083,627.5C 2136.86,700.667 2149.86,780.667 2122,867.5C 2092.97,940.196 2041.47,989.363 1967.5,1015C 1955.05,1018.94 1942.39,1021.94 1929.5,1024C 1920.83,1025.34 1912.5,1024.34 1904.5,1021C 1901.63,1018.46 1899.13,1015.63 1897,1012.5C 1888.68,990.273 1884.35,967.273 1884,943.5C 1882.08,899.099 1890.41,856.766 1909,816.5C 1917.31,802.852 1927.14,790.352 1938.5,779C 1946.68,772.825 1955.85,768.992 1966,767.5C 1980.73,768.905 1987.56,777.072 1986.5,792C 1984.7,806.858 1982.7,821.691 1980.5,836.5C 1980.21,849.751 1985.54,859.918 1996.5,867C 2019.43,878.24 2042.76,879.24 2066.5,870C 2079.99,861.153 2087.82,848.653 2090,832.5C 2095.55,788.404 2077.38,759.237 2035.5,745C 1984.19,733.1 1942.69,747.933 1911,789.5C 1903,800.163 1896,811.497 1890,823.5C 1888.54,826.21 1886.54,826.876 1884,825.5C 1883.5,800.169 1883.33,774.836 1883.5,749.5C 1822.5,749.5 1761.5,749.5 1700.5,749.5C 1700.5,754.167 1700.5,758.833 1700.5,763.5C 1725.5,763.5 1750.5,763.5 1775.5,763.5C 1774.31,822.638 1781.81,880.638 1798,937.5C 1807.15,966.845 1819.65,994.512 1835.5,1020.5C 1745.14,996.642 1685.31,940.309 1656,851.5C 1632.07,761.559 1650.74,681.892 1712,612.5C 1755.27,568.281 1807.77,542.948 1869.5,536.5 Z M 1819.5,568.5 C 1854.73,572.848 1886.4,585.682 1914.5,607C 1939.74,630.641 1953.9,659.808 1957,694.5C 1958.74,706.485 1958.9,718.485 1957.5,730.5C 1873.64,724.805 1827.81,680.138 1820,596.5C 1819.06,587.092 1818.89,577.759 1819.5,568.5 Z"/></g>
<g><path style="opacity:0.991" fill="#d01240" d="M 562.5,1075.5 C 593.9,1074.91 624.9,1078.08 655.5,1085C 719.669,1103.27 751.669,1145.94 751.5,1213C 750.099,1269.5 725.099,1311.83 676.5,1340C 664.645,1346.09 652.645,1351.93 640.5,1357.5C 692.03,1435.86 743.363,1514.36 794.5,1593C 773.876,1602.89 753.043,1612.39 732,1621.5C 673.869,1533.26 616.202,1444.6 559,1355.5C 558.333,1354.17 558.333,1352.83 559,1351.5C 562.504,1343.65 566.004,1335.82 569.5,1328C 603.532,1324.07 632.366,1309.9 656,1285.5C 681.595,1252.12 687.262,1215.45 673,1175.5C 660.582,1150.35 640.415,1135.52 612.5,1131C 605.546,1129.67 598.546,1128.67 591.5,1128C 555.495,1127.35 519.495,1127.51 483.5,1128.5C 484.098,1289.83 484.432,1451.17 484.5,1612.5C 463.833,1612.5 443.167,1612.5 422.5,1612.5C 422.5,1434.83 422.5,1257.17 422.5,1079.5C 469.332,1078.34 515.998,1077 562.5,1075.5 Z"/></g>
<g><path style="opacity:0.916" fill="#d01240" d="M 3368.5,1183.5 C 3389.48,1181.01 3403.31,1189.67 3410,1209.5C 3413.03,1228.94 3405.53,1242.44 3387.5,1250C 3366.29,1254.81 3351.46,1247.31 3343,1227.5C 3338.89,1205.38 3347.39,1190.72 3368.5,1183.5 Z M 3371.5,1189.5 C 3393.79,1189.29 3404.29,1200.29 3403,1222.5C 3397.99,1240.76 3386.16,1247.93 3367.5,1244C 3355.73,1238.89 3349.4,1229.89 3348.5,1217C 3349.93,1202.42 3357.6,1193.25 3371.5,1189.5 Z M 3369.5,1203.5 C 3373.85,1203.33 3378.18,1203.5 3382.5,1204C 3386.74,1207.79 3386.41,1211.13 3381.5,1214C 3377.51,1214.5 3373.51,1214.67 3369.5,1214.5C 3369.5,1210.83 3369.5,1207.17 3369.5,1203.5 Z"/></g>
<g><path style="opacity:0.989" fill="#d01240" d="M 1050.5,1195.5 C 1062.84,1195.33 1075.17,1195.5 1087.5,1196C 1088,1196.5 1088.5,1197 1089,1197.5C 1145.31,1334.76 1201.81,1471.93 1258.5,1609C 1239.16,1609.83 1219.82,1609.67 1200.5,1608.5C 1183.4,1566.36 1166.4,1524.19 1149.5,1482C 1094.5,1481.17 1039.5,1481.33 984.5,1482.5C 967.5,1524.5 950.5,1566.5 933.5,1608.5C 915.167,1609.83 896.833,1609.83 878.5,1608.5C 936.122,1470.93 993.455,1333.26 1050.5,1195.5 Z M 1066.5,1276.5 C 1088.53,1330.24 1110.2,1384.24 1131.5,1438.5C 1088.17,1439.67 1044.84,1439.83 1001.5,1439C 1023.86,1385.09 1045.52,1330.93 1066.5,1276.5 Z"/></g>
<g><path style="opacity:0.989" fill="#d01240" d="M 2177.5,1195.5 C 2190.08,1195.18 2202.58,1195.51 2215,1196.5C 2272,1334 2328.5,1471.67 2384.5,1609.5C 2365.26,1609.83 2346.09,1609.49 2327,1608.5C 2310.07,1566.54 2293.24,1524.54 2276.5,1482.5C 2221.5,1481.33 2166.5,1481.17 2111.5,1482C 2094.2,1524.09 2077.04,1566.26 2060,1608.5C 2041.9,1609.82 2023.73,1609.82 2005.5,1608.5C 2063.12,1470.93 2120.46,1333.26 2177.5,1195.5 Z M 2193.5,1277.5 C 2215.39,1330.96 2237.06,1384.63 2258.5,1438.5C 2215.17,1439.67 2171.84,1439.83 2128.5,1439C 2150.27,1385.19 2171.93,1331.36 2193.5,1277.5 Z"/></g>
<g><path style="opacity:0.989" fill="#d01240" d="M 3174.5,1195.5 C 3187.08,1195.18 3199.58,1195.51 3212,1196.5C 3268.4,1333.87 3324.9,1471.21 3381.5,1608.5C 3362.18,1609.5 3342.84,1609.83 3323.5,1609.5C 3306.83,1566.83 3290.17,1524.17 3273.5,1481.5C 3218.5,1481.33 3163.5,1481.5 3108.5,1482C 3091.2,1524.09 3074.04,1566.26 3057,1608.5C 3038.9,1609.82 3020.73,1609.82 3002.5,1608.5C 3059.84,1470.8 3117.17,1333.14 3174.5,1195.5 Z M 3189.5,1277.5 C 3190.75,1277.58 3191.58,1278.24 3192,1279.5C 3212.98,1332.76 3234.14,1385.93 3255.5,1439C 3212.16,1439.83 3168.83,1439.67 3125.5,1438.5C 3147.23,1384.96 3168.57,1331.29 3189.5,1277.5 Z"/></g>
<g><path style="opacity:0.882" fill="#d01240" d="M 3362.5,1197.5 C 3369.84,1197.33 3377.17,1197.5 3384.5,1198C 3391.16,1200.61 3393.66,1205.45 3392,1212.5C 3390.79,1216.88 3387.96,1219.21 3383.5,1219.5C 3386.13,1225.66 3389.47,1231.49 3393.5,1237C 3390.77,1237.82 3388.11,1237.65 3385.5,1236.5C 3382.29,1231.25 3378.96,1226.08 3375.5,1221C 3373.53,1220.5 3371.53,1220.34 3369.5,1220.5C 3369.5,1226.17 3369.5,1231.83 3369.5,1237.5C 3367.17,1237.5 3364.83,1237.5 3362.5,1237.5C 3362.5,1224.17 3362.5,1210.83 3362.5,1197.5 Z M 3369.5,1203.5 C 3369.5,1207.17 3369.5,1210.83 3369.5,1214.5C 3373.51,1214.67 3377.51,1214.5 3381.5,1214C 3386.41,1211.13 3386.74,1207.79 3382.5,1204C 3378.18,1203.5 3373.85,1203.33 3369.5,1203.5 Z"/></g>
<g><path style="opacity:0.99" fill="#d01240" d="M 2614.5,1202.5 C 2657.39,1200.49 2699.72,1204.33 2741.5,1214C 2822.82,1235.65 2871.32,1287.82 2887,1370.5C 2897.36,1435.05 2882.7,1493.05 2843,1544.5C 2816.23,1575.14 2782.73,1594.31 2742.5,1602C 2705.9,1609.6 2668.9,1613.1 2631.5,1612.5C 2602.12,1612.09 2572.79,1610.75 2543.5,1608.5C 2543.5,1474.5 2543.5,1340.5 2543.5,1206.5C 2567.32,1205.16 2590.98,1203.82 2614.5,1202.5 Z M 2610.5,1248.5 C 2641.81,1247.35 2672.81,1249.85 2703.5,1256C 2775.77,1272.94 2817.6,1318.1 2829,1391.5C 2835.82,1441.59 2822.82,1485.59 2790,1523.5C 2772.93,1540.29 2752.77,1551.79 2729.5,1558C 2704.86,1563.94 2679.86,1566.77 2654.5,1566.5C 2635.42,1566.16 2616.42,1564.83 2597.5,1562.5C 2597.5,1458.17 2597.5,1353.83 2597.5,1249.5C 2602.03,1249.82 2606.37,1249.48 2610.5,1248.5 Z"/></g>
<g><path style="opacity:0.988" fill="#d01240" d="M 1444.5,1204.5 C 1457.08,1204.18 1469.58,1204.51 1482,1205.5C 1531.64,1314.1 1581.8,1422.44 1632.5,1530.5C 1682.76,1422.32 1732.76,1313.98 1782.5,1205.5C 1795.15,1204.5 1807.82,1204.17 1820.5,1204.5C 1836.17,1339.22 1852.17,1473.88 1868.5,1608.5C 1850.18,1609.5 1831.85,1609.83 1813.5,1609.5C 1803.37,1511.17 1793.2,1412.84 1783,1314.5C 1737.24,1412.35 1691.74,1510.35 1646.5,1608.5C 1634.94,1609.82 1623.44,1609.82 1612,1608.5C 1567.33,1512.5 1522.67,1416.5 1478,1320.5C 1466.4,1416.73 1455.57,1513.07 1445.5,1609.5C 1428.5,1609.5 1411.5,1609.5 1394.5,1609.5C 1410.93,1474.43 1427.59,1339.43 1444.5,1204.5 Z"/></g>
</svg>
